M48
;DRILL file {KiCad 4.0.7} date 07/10/18 22:50:00
;FORMAT={-:-/ absolute / metric / decimal}
FMAT,2
METRIC,TZ
T1C0.400
T2C0.800
T3C1.000
%
G90
G05
M71
T1
X49.149Y-45.72
X49.492Y-49.873
X69.342Y-56.121
X69.609Y-90.335
X70.104Y-50.673
X70.904Y-90.716
X71.694Y-66.888
X73.706Y-66.888
X74.265Y-42.022
X74.32Y-64.262
X77.511Y-69.296
X78.029Y-67.361
X78.075Y-64.313
X78.374Y-80.061
X78.41Y-76.391
X78.456Y-82.591
X79.182Y-77.589
X79.88Y-62.25
X80.048Y-60.617
X80.467Y-61.417
X80.505Y-66.142
X80.505Y-82.829
X80.879Y-71.14
X80.955Y-69.449
X83.708Y-96.84
X84.353Y-76.314
X84.43Y-83.401
X84.544Y-68.199
X84.714Y-65.659
X85.664Y-44.76
X85.763Y-47.549
X85.832Y-63.871
X85.832Y-66.358
X85.999Y-57.249
X86.446Y-84.211
X87.62Y-66.777
X87.62Y-68.229
X87.899Y-91.587
X88.011Y-74.79
X88.201Y-96.431
X88.402Y-92.453
X88.43Y-58.534
X89.129Y-87.396
X89.992Y-87.478
X90.833Y-73.762
X90.973Y-80.3
X91.021Y-61.303
X91.326Y-94.374
X91.364Y-88.506
X92.354Y-47.549
X92.537Y-80.104
X92.817Y-66.106
X93.04Y-73.035
X93.459Y-85.534
X95.288Y-69.609
X95.75Y-72.895
X95.834Y-73.762
X96.058Y-77.724
X96.317Y-90.335
X96.896Y-91.364
X96.952Y-93.096
X97.079Y-98.031
X99.69Y-94.437
X99.858Y-97.231
X101.73Y-72.393
X101.869Y-73.706
X102.205Y-94.772
X103.289Y-68.732
X103.713Y-91.42
X104.104Y-86.152
X104.775Y-91.326
X104.813Y-92.926
X105.08Y-85.801
X106.032Y-85.115
X106.947Y-68.047
X107.709Y-49.682
X109.918Y-89.154
X111.1Y-90.221
X111.938Y-93.383
X112.258Y-91.227
X112.939Y-80.142
X113.119Y-50.673
X113.805Y-91.135
X114.49Y-51.664
X116.091Y-90.526
X116.891Y-92.354
X118.994Y-80.02
X120.802Y-92.334
X121.595Y-77.003
X122.489Y-76.22
X123.187Y-39.759
X123.2Y-70.592
X123.243Y-75.662
X124.877Y-92.339
X125.562Y-40.737
X126.126Y-70.592
X127.406Y-77.114
X127.798Y-41.826
X127.798Y-81.082
X128.623Y-76.17
X128.727Y-92.273
X128.748Y-80.02
X129.753Y-79.014
X129.977Y-77.17
X130.983Y-78.176
X132.664Y-92.354
X133.441Y-79.126
X133.441Y-81.305
X133.693Y-83.876
X134.95Y-76.192
X134.978Y-83.876
X136.207Y-83.782
X136.672Y-92.339
X137.13Y-64.541
X137.447Y-83.84
X137.577Y-75.634
X138.829Y-83.85
X140.635Y-92.4
X144.414Y-92.415
X145.58Y-87.63
X158.021Y-84.765
X158.029Y-91.559
X158.9Y-85.588
X158.946Y-91.531
X159.873Y-86.365
X159.873Y-91.531
X160.711Y-87.061
X160.711Y-91.504
X161.549Y-87.871
X161.605Y-91.531
X162.039Y-71.857
X162.527Y-88.682
X162.583Y-91.531
X163.337Y-57.724
X163.645Y-89.771
X163.645Y-91.531
X164.455Y-62.697
X168.212Y-74.623
X168.212Y-75.743
X168.227Y-73.426
X168.234Y-72.245
X168.245Y-71.12
X168.25Y-70.028
X168.265Y-67.856
X168.265Y-68.961
T2
X56.309Y-46.33
X59.571Y-55.918
X59.571Y-58.458
X59.571Y-60.998
X59.571Y-63.538
X59.571Y-66.078
X59.571Y-68.618
X59.571Y-71.158
X59.571Y-73.698
X59.571Y-76.238
X59.571Y-78.778
X59.571Y-81.318
X59.571Y-83.858
X59.571Y-86.398
X59.571Y-88.938
X61.189Y-46.33
X67.191Y-55.918
X67.191Y-58.458
X67.191Y-60.998
X67.191Y-63.538
X67.191Y-66.078
X67.191Y-68.618
X67.191Y-71.158
X67.191Y-73.698
X67.191Y-76.238
X67.191Y-78.778
X67.191Y-81.318
X67.191Y-83.858
X67.191Y-86.398
X67.191Y-88.938
X109.08Y-45.745
X109.08Y-60.985
X111.62Y-45.745
X111.62Y-60.985
X114.16Y-45.745
X114.16Y-60.985
X116.7Y-45.745
X116.7Y-60.985
X119.24Y-45.745
X119.24Y-60.985
X121.78Y-45.745
X121.78Y-60.985
X124.32Y-45.745
X124.32Y-60.985
X126.86Y-45.745
X126.86Y-60.985
X129.4Y-45.745
X129.4Y-60.985
X131.94Y-45.745
X131.94Y-60.985
X134.48Y-45.745
X134.48Y-60.985
X137.02Y-45.745
X137.02Y-60.985
X139.56Y-45.745
X139.56Y-60.985
X142.1Y-45.745
X142.1Y-60.985
X144.64Y-45.745
X144.64Y-60.985
X147.18Y-45.745
X147.18Y-60.985
X149.72Y-45.745
X149.72Y-60.985
X152.26Y-45.745
X152.26Y-60.985
X154.8Y-45.745
X154.8Y-60.985
X157.34Y-45.745
X157.34Y-60.985
X159.88Y-45.745
X159.88Y-60.985
T3
X51.054Y-86.068
X51.054Y-88.608
X51.181Y-77.559
X51.181Y-80.099
X51.308Y-69.812
X51.308Y-72.352
X51.435Y-62.192
X51.435Y-64.732
X71.755Y-46.063
X74.295Y-46.063
X76.835Y-46.063
X79.375Y-46.063
T0
M30
