G04 #@! TF.FileFunction,Profile,NP*
%FSLAX46Y46*%
G04 Gerber Fmt 4.6, Leading zero omitted, Abs format (unit mm)*
G04 Created by KiCad (PCBNEW 4.0.7) date 07/14/18 13:42:47*
%MOMM*%
%LPD*%
G01*
G04 APERTURE LIST*
%ADD10C,0.100000*%
%ADD11C,0.150000*%
G04 APERTURE END LIST*
D10*
D11*
X46000000Y-32214800D02*
G75*
G03X44000000Y-34214800I0J-2000000D01*
G01*
X170540000Y-34214800D02*
G75*
G03X168540000Y-32214800I-2000000J0D01*
G01*
X151476200Y-109529880D02*
G75*
G03X152476200Y-108529880I0J1000000D01*
G01*
X61607700Y-108529880D02*
G75*
G03X62607700Y-109529880I1000000J0D01*
G01*
X61607700Y-108529880D02*
X61607700Y-99885500D01*
X74874120Y-109529880D02*
X62607700Y-109529880D01*
X74874120Y-100218240D02*
X74874120Y-109529880D01*
X75834240Y-100218240D02*
X74874120Y-100218240D01*
X75834240Y-109529880D02*
X75834240Y-100218240D01*
X142067280Y-109529880D02*
X75834240Y-109529880D01*
X142067280Y-100218240D02*
X142067280Y-109529880D01*
X143057880Y-100218240D02*
X142067280Y-100218240D01*
X143057880Y-109529880D02*
X143057880Y-100218240D01*
X151476200Y-109529880D02*
X143057880Y-109529880D01*
X152476200Y-99885500D02*
X152476200Y-108529880D01*
X152476200Y-99885500D02*
X170540000Y-99885500D01*
X61607700Y-99885500D02*
X44000000Y-99885500D01*
X44000000Y-34214800D02*
X44000000Y-99885500D01*
X168540000Y-32214800D02*
X46000000Y-32214800D01*
X170540000Y-99885500D02*
X170540000Y-34214800D01*
M02*
