M48
;DRILL file {KiCad 4.0.7} date 07/13/18 15:30:50
;FORMAT={-:-/ absolute / metric / decimal}
FMAT,2
METRIC,TZ
T1C0.400
T2C0.800
T3C1.000
%
G90
G05
M71
T1
X48.42Y-73.343
X49.149Y-45.72
X49.492Y-49.873
X69.342Y-56.121
X70.104Y-50.673
X71.59Y-63.627
X71.933Y-57.645
X72.314Y-81.382
X72.657Y-78.753
X73.132Y-63.358
X73.843Y-66.67
X74.229Y-61.102
X74.265Y-42.022
X74.943Y-70.561
X76.733Y-39.091
X77.023Y-68.809
X77.572Y-63.208
X77.838Y-38.062
X78.829Y-37.071
X79.477Y-62.751
X79.629Y-54.864
X80.124Y-36.233
X80.886Y-72.962
X81.09Y-35.42
X81.158Y-60.98
X81.613Y-68.509
X81.724Y-78.981
X84.353Y-73.228
X84.62Y-63.589
X85.268Y-98.679
X85.954Y-61.265
X86.144Y-62.56
X86.594Y-56.418
X87.34Y-68.565
X87.897Y-86.716
X88.697Y-61.285
X88.834Y-52.487
X88.849Y-49.881
X88.887Y-73.381
X89.002Y-57.561
X89.626Y-64.359
X89.725Y-71.361
X89.802Y-83.096
X89.878Y-50.101
X89.954Y-53.683
X90.8Y-45.491
X92.314Y-45.319
X93.459Y-49.873
X93.497Y-53.569
X93.612Y-85.192
X93.693Y-61.105
X93.817Y-51.552
X94.137Y-65.913
X94.465Y-50.851
X94.605Y-55.433
X96.225Y-65.684
X96.276Y-50.698
X96.479Y-55.148
X96.886Y-61.976
X97.17Y-60.797
X97.495Y-51.592
X97.727Y-49.949
X97.846Y-44.033
X98.222Y-45.682
X98.374Y-51.587
X98.88Y-65.24
X98.999Y-61.956
X99.411Y-44.089
X100.012Y-81.953
X100.076Y-52.1
X100.239Y-55.331
X100.767Y-44.562
X101.478Y-45.789
X101.91Y-75.514
X101.981Y-76.835
X102.047Y-52.06
X102.108Y-56.124
X102.26Y-65.441
X103.022Y-53.421
X103.574Y-69.487
X104.272Y-72.113
X105.034Y-69.88
X105.537Y-84.163
X105.745Y-70.653
X106.436Y-64.902
X106.456Y-62.362
X107.168Y-65.634
X107.432Y-71.323
X108.143Y-72.095
X109.042Y-39.738
X111.425Y-69.906
X112.022Y-71.031
X112.766Y-72.812
X112.89Y-43.701
X112.89Y-50.216
X113.513Y-74.618
X115.1Y-80.81
X115.438Y-66.487
X115.443Y-43.663
X115.458Y-67.828
X115.458Y-68.946
X115.481Y-49.873
X116.091Y-90.526
X116.891Y-92.354
X117.881Y-91.516
X119.901Y-87.135
X120.51Y-69.837
X120.802Y-92.334
X121.595Y-77.003
X121.846Y-49.705
X122.489Y-76.22
X123.104Y-59.345
X123.2Y-68.864
X123.2Y-70.592
X123.243Y-75.662
X123.368Y-86.182
X124.877Y-92.339
X124.892Y-65.913
X125.009Y-64.333
X125.082Y-79.21
X125.235Y-87.097
X126.035Y-79.781
X126.126Y-70.592
X127.284Y-69.86
X127.798Y-81.082
X127.909Y-67.168
X128.13Y-62.979
X128.727Y-92.273
X128.748Y-80.02
X129.753Y-79.014
X130.619Y-65.603
X130.675Y-59.428
X130.983Y-78.176
X132.664Y-92.354
X133.05Y-49.146
X133.162Y-46.967
X133.162Y-59.428
X133.162Y-65.91
X133.441Y-79.126
X133.441Y-81.305
X133.693Y-83.876
X134.95Y-76.192
X134.978Y-83.876
X135.677Y-65.324
X135.76Y-62.39
X136.207Y-83.782
X136.672Y-92.339
X137.13Y-64.541
X137.447Y-83.84
X137.577Y-75.634
X138.829Y-83.85
X140.635Y-92.4
X144.414Y-92.415
X145.58Y-87.63
X158.021Y-84.765
X158.029Y-91.559
X158.9Y-85.588
X158.946Y-91.531
X159.873Y-86.365
X159.873Y-91.531
X160.711Y-87.061
X160.711Y-91.504
X161.549Y-87.871
X161.605Y-91.531
X162.039Y-71.857
X162.527Y-88.682
X162.583Y-91.531
X163.337Y-57.724
X163.645Y-89.771
X163.645Y-91.531
X164.455Y-62.697
X168.212Y-74.623
X168.212Y-75.743
X168.227Y-73.426
X168.234Y-72.245
X168.245Y-71.12
X168.25Y-70.028
X168.265Y-67.856
X168.265Y-68.961
T2
X56.309Y-46.33
X59.571Y-55.918
X59.571Y-58.458
X59.571Y-60.998
X59.571Y-63.538
X59.571Y-66.078
X59.571Y-68.618
X59.571Y-71.158
X59.571Y-73.698
X59.571Y-76.238
X59.571Y-78.778
X59.571Y-81.318
X59.571Y-83.858
X59.571Y-86.398
X59.571Y-88.938
X61.189Y-46.33
X67.191Y-55.918
X67.191Y-58.458
X67.191Y-60.998
X67.191Y-63.538
X67.191Y-66.078
X67.191Y-68.618
X67.191Y-71.158
X67.191Y-73.698
X67.191Y-76.238
X67.191Y-78.778
X67.191Y-81.318
X67.191Y-83.858
X67.191Y-86.398
X67.191Y-88.938
X109.08Y-45.745
X109.08Y-60.985
X111.62Y-45.745
X111.62Y-60.985
X114.16Y-45.745
X114.16Y-60.985
X116.7Y-45.745
X116.7Y-60.985
X119.24Y-45.745
X119.24Y-60.985
X121.78Y-45.745
X121.78Y-60.985
X124.32Y-45.745
X124.32Y-60.985
X126.86Y-45.745
X126.86Y-60.985
X129.4Y-45.745
X129.4Y-60.985
X131.94Y-45.745
X131.94Y-60.985
X134.48Y-45.745
X134.48Y-60.985
X137.02Y-45.745
X137.02Y-60.985
X139.56Y-45.745
X139.56Y-60.985
X142.1Y-45.745
X142.1Y-60.985
X144.64Y-45.745
X144.64Y-60.985
X147.18Y-45.745
X147.18Y-60.985
X149.72Y-45.745
X149.72Y-60.985
X152.26Y-45.745
X152.26Y-60.985
X154.8Y-45.745
X154.8Y-60.985
X157.34Y-45.745
X157.34Y-60.985
X159.88Y-45.745
X159.88Y-60.985
T3
X51.054Y-86.068
X51.054Y-88.608
X51.181Y-77.559
X51.181Y-80.099
X51.308Y-69.812
X51.308Y-72.352
X71.755Y-46.063
X74.295Y-46.063
X76.835Y-46.063
X79.375Y-46.063
T0
M30
