G04 #@! TF.FileFunction,Copper,L1,Top,Signal*
%FSLAX46Y46*%
G04 Gerber Fmt 4.6, Leading zero omitted, Abs format (unit mm)*
G04 Created by KiCad (PCBNEW 4.0.7) date 07/11/18 06:20:05*
%MOMM*%
%LPD*%
G01*
G04 APERTURE LIST*
%ADD10C,0.100000*%
%ADD11R,2.400000X8.800000*%
%ADD12R,0.400000X1.200000*%
%ADD13R,1.600000X1.600000*%
%ADD14O,1.600000X1.600000*%
%ADD15R,0.750000X0.800000*%
%ADD16R,2.600000X1.600000*%
%ADD17R,1.100000X1.100000*%
%ADD18R,1.700000X1.700000*%
%ADD19O,1.700000X1.700000*%
%ADD20R,0.500000X0.900000*%
%ADD21C,1.500000*%
%ADD22C,0.600000*%
%ADD23C,0.250000*%
G04 APERTURE END LIST*
D10*
D11*
X65399940Y-104279120D03*
X69359940Y-104279120D03*
X73319940Y-104279120D03*
X77279940Y-104279120D03*
X81239940Y-104279120D03*
X85199940Y-104279120D03*
X89159940Y-104279120D03*
X93119940Y-104279120D03*
X97079940Y-104279120D03*
X101039940Y-104279120D03*
X104999940Y-104279120D03*
X108959940Y-104279120D03*
X112919940Y-104279120D03*
X120839940Y-104279120D03*
X140639940Y-104279120D03*
X116879940Y-104279120D03*
X128759940Y-104279120D03*
X148559940Y-104279120D03*
X144599940Y-104279120D03*
X124799940Y-104279120D03*
X136679940Y-104279120D03*
X132719940Y-104279120D03*
D12*
X124835700Y-85343200D03*
X126105700Y-85343200D03*
X127375700Y-85343200D03*
X128645700Y-85343200D03*
X129915700Y-85343200D03*
X131185700Y-85343200D03*
X132455700Y-85343200D03*
X133725700Y-85343200D03*
X134995700Y-85343200D03*
X136265700Y-85343200D03*
X137535700Y-85343200D03*
X138805700Y-85343200D03*
X140075700Y-85343200D03*
X141345700Y-85343200D03*
X142615700Y-85343200D03*
X143885700Y-85343200D03*
X143885700Y-72543200D03*
X142615700Y-72543200D03*
X141345700Y-72543200D03*
X140075700Y-72543200D03*
X138805700Y-72543200D03*
X137535700Y-72543200D03*
X136265700Y-72543200D03*
X134995700Y-72543200D03*
X133725700Y-72543200D03*
X132455700Y-72543200D03*
X131185700Y-72543200D03*
X129915700Y-72543200D03*
X128645700Y-72543200D03*
X127375700Y-72543200D03*
X126105700Y-72543200D03*
X124835700Y-72543200D03*
D13*
X109080300Y-60985400D03*
D14*
X159880300Y-45745400D03*
X111620300Y-60985400D03*
X157340300Y-45745400D03*
X114160300Y-60985400D03*
X154800300Y-45745400D03*
X116700300Y-60985400D03*
X152260300Y-45745400D03*
X119240300Y-60985400D03*
X149720300Y-45745400D03*
X121780300Y-60985400D03*
X147180300Y-45745400D03*
X124320300Y-60985400D03*
X144640300Y-45745400D03*
X126860300Y-60985400D03*
X142100300Y-45745400D03*
X129400300Y-60985400D03*
X139560300Y-45745400D03*
X131940300Y-60985400D03*
X137020300Y-45745400D03*
X134480300Y-60985400D03*
X134480300Y-45745400D03*
X137020300Y-60985400D03*
X131940300Y-45745400D03*
X139560300Y-60985400D03*
X129400300Y-45745400D03*
X142100300Y-60985400D03*
X126860300Y-45745400D03*
X144640300Y-60985400D03*
X124320300Y-45745400D03*
X147180300Y-60985400D03*
X121780300Y-45745400D03*
X149720300Y-60985400D03*
X119240300Y-45745400D03*
X152260300Y-60985400D03*
X116700300Y-45745400D03*
X154800300Y-60985400D03*
X114160300Y-45745400D03*
X157340300Y-60985400D03*
X111620300Y-45745400D03*
X159880300Y-60985400D03*
X109080300Y-45745400D03*
D15*
X55118000Y-52678900D03*
X55118000Y-54178900D03*
X51968400Y-45541500D03*
X51968400Y-47041500D03*
X65570100Y-47079600D03*
X65570100Y-45579600D03*
D16*
X109115000Y-72186800D03*
X105515000Y-72186800D03*
D15*
X163220400Y-54356700D03*
X163220400Y-52856700D03*
X120309640Y-80043720D03*
X120309640Y-78543720D03*
D17*
X49539700Y-52273200D03*
X52339700Y-52273200D03*
D18*
X71755000Y-46062900D03*
D19*
X74295000Y-46062900D03*
X76835000Y-46062900D03*
X79375000Y-46062900D03*
D20*
X50189700Y-55295800D03*
X51689700Y-55295800D03*
D18*
X51054000Y-86067900D03*
D19*
X51054000Y-88607900D03*
D18*
X51181000Y-77558900D03*
D19*
X51181000Y-80098900D03*
D18*
X51308000Y-69811900D03*
D19*
X51308000Y-72351900D03*
D18*
X51435000Y-62191900D03*
D19*
X51435000Y-64731900D03*
D21*
X61188600Y-46329600D03*
X56308600Y-46329600D03*
D13*
X59570620Y-55918100D03*
D14*
X67190620Y-88938100D03*
X59570620Y-58458100D03*
X67190620Y-86398100D03*
X59570620Y-60998100D03*
X67190620Y-83858100D03*
X59570620Y-63538100D03*
X67190620Y-81318100D03*
X59570620Y-66078100D03*
X67190620Y-78778100D03*
X59570620Y-68618100D03*
X67190620Y-76238100D03*
X59570620Y-71158100D03*
X67190620Y-73698100D03*
X59570620Y-73698100D03*
X67190620Y-71158100D03*
X59570620Y-76238100D03*
X67190620Y-68618100D03*
X59570620Y-78778100D03*
X67190620Y-66078100D03*
X59570620Y-81318100D03*
X67190620Y-63538100D03*
X59570620Y-83858100D03*
X67190620Y-60998100D03*
X59570620Y-86398100D03*
X67190620Y-58458100D03*
X59570620Y-88938100D03*
X67190620Y-55918100D03*
D22*
X87619840Y-68229480D03*
X87619840Y-66776600D03*
X92816680Y-66106040D03*
X89128600Y-87396320D03*
X96951800Y-93096080D03*
X99689920Y-94437200D03*
X99857560Y-97231200D03*
X96057720Y-77724000D03*
X77510640Y-69296280D03*
X78074520Y-64312800D03*
X80954880Y-69448680D03*
X80878680Y-71140320D03*
X90972640Y-80299560D03*
X87899240Y-91587320D03*
X96895920Y-91363800D03*
X103713280Y-91419680D03*
X102204520Y-94772480D03*
X74320400Y-64262000D03*
X102717600Y-87210900D03*
X117348000Y-84124800D03*
X80467200Y-61417200D03*
X104775000Y-91325700D03*
X104813100Y-92925900D03*
X104698800Y-57797700D03*
X121081800Y-73533000D03*
X80505300Y-66141600D03*
X113804700Y-91135200D03*
X111937800Y-93383100D03*
X158899860Y-85587840D03*
X158945580Y-91531440D03*
X168264840Y-68961000D03*
X163644580Y-91531440D03*
X163644580Y-89771220D03*
X168211500Y-74622660D03*
X158021020Y-84764880D03*
X158028640Y-91559380D03*
X168264840Y-67856100D03*
X160710880Y-87061040D03*
X160710880Y-91503500D03*
X168244520Y-71120000D03*
X168211500Y-75742800D03*
X159872680Y-86365080D03*
X159872680Y-91531440D03*
X168249600Y-70027800D03*
X162582860Y-91531440D03*
X162526980Y-88681560D03*
X168226740Y-73426320D03*
X161604960Y-91531440D03*
X161549080Y-87871300D03*
X168234360Y-72245220D03*
X112257840Y-91226640D03*
X104104440Y-86151720D03*
X129753360Y-79014320D03*
X116090700Y-90525600D03*
X130982720Y-78176120D03*
X122488960Y-76220320D03*
X120802400Y-92334080D03*
X137447020Y-83840320D03*
X140634720Y-92400120D03*
X121594880Y-77002640D03*
X116890800Y-92354400D03*
X133692900Y-83875880D03*
X128727200Y-92273120D03*
X138828780Y-83850480D03*
X144414240Y-92415360D03*
X123243340Y-75661520D03*
X124876560Y-92339160D03*
X136207500Y-83781900D03*
X136672320Y-92339160D03*
X134978140Y-83875880D03*
X132664200Y-92354400D03*
X118993920Y-80020160D03*
X112938560Y-80142080D03*
X123200160Y-70591680D03*
X74264520Y-42021760D03*
X90832940Y-73761600D03*
X95834200Y-73761600D03*
X101869240Y-73705720D03*
X88430100Y-58534300D03*
X85999320Y-57249060D03*
X162039300Y-71856600D03*
X145580100Y-87630000D03*
X163337240Y-57724040D03*
X164454840Y-62697360D03*
X137129520Y-64541400D03*
X69342000Y-56121300D03*
X78409800Y-76390500D03*
X88011000Y-74790300D03*
X69608700Y-90335100D03*
X126126240Y-70591680D03*
X95750380Y-72895460D03*
X93040200Y-73035160D03*
X101729540Y-72392540D03*
X92354400Y-47548800D03*
X85763100Y-47548800D03*
X70904100Y-90716100D03*
X80048100Y-60617100D03*
X84429600Y-83400900D03*
X84353400Y-76314300D03*
X95288100Y-69608700D03*
X84543900Y-68199000D03*
X70104000Y-50673000D03*
X49491900Y-49872900D03*
X49149000Y-45720000D03*
X134950200Y-76192380D03*
X137576560Y-75633580D03*
X128623060Y-76169520D03*
X88402160Y-92453460D03*
X79181960Y-77589380D03*
X129976880Y-77170280D03*
X114490500Y-51663600D03*
X106946700Y-68046600D03*
X103289100Y-68732400D03*
X96316800Y-90335100D03*
X97078800Y-98031300D03*
X109918500Y-89154000D03*
X106032300Y-85115400D03*
X113118900Y-50673000D03*
X133441440Y-79126080D03*
X133441440Y-81305400D03*
X127797560Y-81081880D03*
X105079800Y-85801200D03*
X111099600Y-90220800D03*
X128747520Y-80020160D03*
X127406400Y-77114400D03*
X83708240Y-96840040D03*
X78455520Y-82590640D03*
X123187460Y-39758620D03*
X125562360Y-40736520D03*
X127797560Y-41826180D03*
X85664040Y-44759880D03*
X73705720Y-66888360D03*
X71694040Y-66888360D03*
X92537280Y-80103980D03*
X86446360Y-84211160D03*
X91020900Y-61302900D03*
X107708700Y-49682400D03*
X93459300Y-85534500D03*
X89992200Y-87477600D03*
X91363800Y-88506300D03*
X91325700Y-94373700D03*
X88201500Y-96431100D03*
X80505300Y-82829400D03*
X78028800Y-67360800D03*
X78374240Y-80060800D03*
X84714080Y-65659000D03*
X79880460Y-62250320D03*
X85831680Y-63870840D03*
X85831680Y-66357500D03*
D23*
X89159940Y-104279120D02*
X89159940Y-89209020D01*
X95610680Y-68229480D02*
X87619840Y-68229480D01*
X97398840Y-70017640D02*
X95610680Y-68229480D01*
X97398840Y-86166960D02*
X97398840Y-70017640D01*
X96337120Y-87228680D02*
X97398840Y-86166960D01*
X91140280Y-87228680D02*
X96337120Y-87228680D01*
X89159940Y-89209020D02*
X91140280Y-87228680D01*
X93119940Y-104279120D02*
X93119940Y-89272380D01*
X95890080Y-66776600D02*
X87619840Y-66776600D01*
X98292920Y-69179440D02*
X95890080Y-66776600D01*
X98292920Y-86614000D02*
X98292920Y-69179440D01*
X96784160Y-88122760D02*
X98292920Y-86614000D01*
X94269560Y-88122760D02*
X96784160Y-88122760D01*
X93119940Y-89272380D02*
X94269560Y-88122760D01*
X97079940Y-104279120D02*
X97079940Y-99426900D01*
X92928440Y-65994280D02*
X92816680Y-66106040D01*
X96560640Y-65994280D02*
X92928440Y-65994280D01*
X99242880Y-68676520D02*
X96560640Y-65994280D01*
X99242880Y-87005160D02*
X99242880Y-68676520D01*
X97175320Y-89072720D02*
X99242880Y-87005160D01*
X95778320Y-89072720D02*
X97175320Y-89072720D01*
X95610680Y-89240360D02*
X95778320Y-89072720D01*
X95610680Y-97957640D02*
X95610680Y-89240360D01*
X97079940Y-99426900D02*
X95610680Y-97957640D01*
X101039940Y-104279120D02*
X101039940Y-98413580D01*
X96057720Y-81361280D02*
X96057720Y-77724000D01*
X92034360Y-85384640D02*
X96057720Y-81361280D01*
X91140280Y-85384640D02*
X92034360Y-85384640D01*
X89128600Y-87396320D02*
X91140280Y-85384640D01*
X98348800Y-93096080D02*
X96951800Y-93096080D01*
X99689920Y-94437200D02*
X98348800Y-93096080D01*
X101039940Y-98413580D02*
X99857560Y-97231200D01*
X96530160Y-77251560D02*
X96057720Y-77724000D01*
X96530160Y-72054720D02*
X96530160Y-77251560D01*
X94884240Y-70408800D02*
X96530160Y-72054720D01*
X78623160Y-70408800D02*
X94884240Y-70408800D01*
X77510640Y-69296280D02*
X78623160Y-70408800D01*
X88742520Y-80299560D02*
X88742520Y-72755760D01*
X78074520Y-64404240D02*
X78074520Y-64312800D01*
X78607920Y-64937640D02*
X78074520Y-64404240D01*
X78607920Y-67101720D02*
X78607920Y-64937640D01*
X80954880Y-69448680D02*
X78607920Y-67101720D01*
X81259680Y-71521320D02*
X80878680Y-71140320D01*
X87508080Y-71521320D02*
X81259680Y-71521320D01*
X88742520Y-72755760D02*
X87508080Y-71521320D01*
X104999940Y-104279120D02*
X104999940Y-97567900D01*
X88681560Y-80299560D02*
X88742520Y-80299560D01*
X88742520Y-80299560D02*
X90972640Y-80299560D01*
X85552280Y-83428840D02*
X88681560Y-80299560D01*
X85552280Y-89240360D02*
X85552280Y-83428840D01*
X87899240Y-91587320D02*
X85552280Y-89240360D01*
X103657400Y-91363800D02*
X96895920Y-91363800D01*
X103713280Y-91419680D02*
X103657400Y-91363800D01*
X104999940Y-97567900D02*
X102204520Y-94772480D01*
X121780300Y-45745400D02*
X121780300Y-44945300D01*
X121780300Y-44945300D02*
X120644920Y-43809920D01*
X120644920Y-43809920D02*
X84998560Y-43809920D01*
X84998560Y-43809920D02*
X82423000Y-46385480D01*
X82423000Y-46385480D02*
X82423000Y-46436280D01*
X82423000Y-46436280D02*
X78399640Y-50459640D01*
X78399640Y-50459640D02*
X75885040Y-50459640D01*
X75885040Y-50459640D02*
X74320400Y-52024280D01*
X74320400Y-52024280D02*
X74320400Y-64262000D01*
X127375700Y-85343200D02*
X127375700Y-86479600D01*
X100279200Y-85496400D02*
X100012500Y-85763100D01*
X101003100Y-85496400D02*
X100279200Y-85496400D01*
X102717600Y-87210900D02*
X101003100Y-85496400D01*
X120624600Y-87401400D02*
X117348000Y-84124800D01*
X126453900Y-87401400D02*
X120624600Y-87401400D01*
X127375700Y-86479600D02*
X126453900Y-87401400D01*
X108959940Y-104279120D02*
X108959940Y-97072740D01*
X85229700Y-61417200D02*
X80467200Y-61417200D01*
X88430100Y-64617600D02*
X85229700Y-61417200D01*
X96774000Y-64617600D02*
X88430100Y-64617600D01*
X100012500Y-67856100D02*
X96774000Y-64617600D01*
X100012500Y-86563200D02*
X100012500Y-85763100D01*
X100012500Y-85763100D02*
X100012500Y-67856100D01*
X104775000Y-91325700D02*
X100012500Y-86563200D01*
X108959940Y-97072740D02*
X104813100Y-92925900D01*
X126105700Y-72543200D02*
X126105700Y-74071700D01*
X98069400Y-64427100D02*
X98069400Y-64579500D01*
X104698800Y-57797700D02*
X98069400Y-64427100D01*
X122758200Y-73533000D02*
X121081800Y-73533000D01*
X123405900Y-74180700D02*
X122758200Y-73533000D01*
X125996700Y-74180700D02*
X123405900Y-74180700D01*
X126105700Y-74071700D02*
X125996700Y-74180700D01*
X112919940Y-104279120D02*
X112919940Y-94365240D01*
X80505300Y-65836800D02*
X80505300Y-66141600D01*
X77990700Y-63322200D02*
X80505300Y-65836800D01*
X77990700Y-61264800D02*
X77990700Y-63322200D01*
X79438500Y-59817000D02*
X77990700Y-61264800D01*
X84963000Y-59817000D02*
X79438500Y-59817000D01*
X87325200Y-62179200D02*
X84963000Y-59817000D01*
X95669100Y-62179200D02*
X87325200Y-62179200D01*
X100850700Y-67360800D02*
X98069400Y-64579500D01*
X98069400Y-64579500D02*
X95669100Y-62179200D01*
X100850700Y-78181200D02*
X100850700Y-67360800D01*
X113804700Y-91135200D02*
X100850700Y-78181200D01*
X112919940Y-94365240D02*
X111937800Y-93383100D01*
X158899860Y-85587840D02*
X158899860Y-85608160D01*
X158899860Y-85608160D02*
X158899860Y-85587840D01*
X158899860Y-85587840D02*
X158899860Y-85608160D01*
X120839940Y-104279120D02*
X120839940Y-94577460D01*
X158945580Y-93687900D02*
X158945580Y-91531440D01*
X158587440Y-94046040D02*
X158945580Y-93687900D01*
X121371360Y-94046040D02*
X158587440Y-94046040D01*
X120839940Y-94577460D02*
X121371360Y-94046040D01*
X140075700Y-72543200D02*
X140075700Y-71038940D01*
X163728400Y-73497440D02*
X168264840Y-68961000D01*
X163728400Y-83847940D02*
X163728400Y-73497440D01*
X161968180Y-85608160D02*
X163728400Y-83847940D01*
X149255480Y-85608160D02*
X158899860Y-85608160D01*
X158899860Y-85608160D02*
X161968180Y-85608160D01*
X148752560Y-85105240D02*
X149255480Y-85608160D01*
X148752560Y-72532240D02*
X148752560Y-85105240D01*
X146154140Y-69933820D02*
X148752560Y-72532240D01*
X141180820Y-69933820D02*
X146154140Y-69933820D01*
X140075700Y-71038940D02*
X141180820Y-69933820D01*
X140639940Y-104279120D02*
X140639940Y-98498520D01*
X140639940Y-98498520D02*
X141152880Y-97985580D01*
X141152880Y-97985580D02*
X161996120Y-97985580D01*
X161996120Y-97985580D02*
X163644580Y-96337120D01*
X163644580Y-96337120D02*
X163644580Y-91531440D01*
X163644580Y-89771220D02*
X163644580Y-89659460D01*
X163644580Y-89659460D02*
X163644580Y-89771220D01*
X163644580Y-89771220D02*
X163644580Y-89659460D01*
X141345700Y-85343200D02*
X141345700Y-88120000D01*
X167500300Y-75333860D02*
X168211500Y-74622660D01*
X167500300Y-86278720D02*
X167500300Y-75333860D01*
X164119560Y-89659460D02*
X167500300Y-86278720D01*
X142885160Y-89659460D02*
X163644580Y-89659460D01*
X163644580Y-89659460D02*
X164119560Y-89659460D01*
X141345700Y-88120000D02*
X142885160Y-89659460D01*
X116879940Y-104279120D02*
X116879940Y-94150880D01*
X158021020Y-84764880D02*
X158021020Y-84775040D01*
X158028640Y-92732860D02*
X158028640Y-91559380D01*
X157497780Y-93263720D02*
X158028640Y-92732860D01*
X117767100Y-93263720D02*
X157497780Y-93263720D01*
X116879940Y-94150880D02*
X117767100Y-93263720D01*
X138805700Y-72543200D02*
X138805700Y-70917020D01*
X162986720Y-73134220D02*
X168264840Y-67856100D01*
X162986720Y-83332320D02*
X162986720Y-73134220D01*
X161544000Y-84775040D02*
X162986720Y-83332320D01*
X149880320Y-84775040D02*
X158021020Y-84775040D01*
X158021020Y-84775040D02*
X161544000Y-84775040D01*
X149534880Y-84429600D02*
X149880320Y-84775040D01*
X149534880Y-71993760D02*
X149534880Y-84429600D01*
X146588480Y-69047360D02*
X149534880Y-71993760D01*
X140675360Y-69047360D02*
X146588480Y-69047360D01*
X138805700Y-70917020D02*
X140675360Y-69047360D01*
X128759940Y-104279120D02*
X128759940Y-96380580D01*
X160710880Y-95023940D02*
X160710880Y-91503500D01*
X160152080Y-95582740D02*
X160710880Y-95023940D01*
X129557780Y-95582740D02*
X160152080Y-95582740D01*
X128759940Y-96380580D02*
X129557780Y-95582740D01*
X160710880Y-87061040D02*
X160710880Y-87088980D01*
X160710880Y-87088980D02*
X160710880Y-87061040D01*
X160710880Y-87061040D02*
X160710880Y-87088980D01*
X142615700Y-72543200D02*
X142615700Y-71600280D01*
X165097460Y-74267060D02*
X168244520Y-71120000D01*
X165097460Y-84769960D02*
X165097460Y-74267060D01*
X162778440Y-87088980D02*
X165097460Y-84769960D01*
X148071840Y-87088980D02*
X160710880Y-87088980D01*
X160710880Y-87088980D02*
X162778440Y-87088980D01*
X147495260Y-86512400D02*
X148071840Y-87088980D01*
X147495260Y-73230740D02*
X147495260Y-86512400D01*
X145595340Y-71330820D02*
X147495260Y-73230740D01*
X142885160Y-71330820D02*
X145595340Y-71330820D01*
X142615700Y-71600280D02*
X142885160Y-71330820D01*
X144599940Y-104279120D02*
X144599940Y-99288320D01*
X164454840Y-96784160D02*
X164454840Y-90665300D01*
X162415220Y-98823780D02*
X164454840Y-96784160D01*
X145064480Y-98823780D02*
X162415220Y-98823780D01*
X144599940Y-99288320D02*
X145064480Y-98823780D01*
X140075700Y-85343200D02*
X140075700Y-88302880D01*
X168211500Y-86908640D02*
X168211500Y-75742800D01*
X164454840Y-90665300D02*
X168211500Y-86908640D01*
X142438120Y-90665300D02*
X164454840Y-90665300D01*
X140075700Y-88302880D02*
X142438120Y-90665300D01*
X124799940Y-104279120D02*
X124799940Y-95562840D01*
X159872680Y-94269560D02*
X159872680Y-91531440D01*
X159369760Y-94772480D02*
X159872680Y-94269560D01*
X125590300Y-94772480D02*
X159369760Y-94772480D01*
X124799940Y-95562840D02*
X125590300Y-94772480D01*
X159872680Y-86365080D02*
X159872680Y-86390480D01*
X159872680Y-86390480D02*
X159872680Y-86365080D01*
X159872680Y-86365080D02*
X159872680Y-86390480D01*
X141345700Y-72543200D02*
X141345700Y-71277700D01*
X164371020Y-73906380D02*
X168249600Y-70027800D01*
X164371020Y-84322920D02*
X164371020Y-73906380D01*
X162303460Y-86390480D02*
X164371020Y-84322920D01*
X148638260Y-86390480D02*
X159872680Y-86390480D01*
X159872680Y-86390480D02*
X162303460Y-86390480D01*
X148109940Y-85862160D02*
X148638260Y-86390480D01*
X148109940Y-72951340D02*
X148109940Y-85862160D01*
X145818860Y-70660260D02*
X148109940Y-72951340D01*
X141963140Y-70660260D02*
X145818860Y-70660260D01*
X141345700Y-71277700D02*
X141963140Y-70660260D01*
X136679940Y-104279120D02*
X136679940Y-97904300D01*
X136679940Y-97904300D02*
X137380980Y-97203260D01*
X137380980Y-97203260D02*
X161465260Y-97203260D01*
X161465260Y-97203260D02*
X162582860Y-96085660D01*
X162582860Y-96085660D02*
X162582860Y-91531440D01*
X142615700Y-85343200D02*
X142615700Y-88132700D01*
X166773860Y-74879200D02*
X168226740Y-73426320D01*
X166773860Y-85552280D02*
X166773860Y-74879200D01*
X163644580Y-88681560D02*
X166773860Y-85552280D01*
X143164560Y-88681560D02*
X162526980Y-88681560D01*
X162526980Y-88681560D02*
X163644580Y-88681560D01*
X142615700Y-88132700D02*
X143164560Y-88681560D01*
X132719940Y-104279120D02*
X132719940Y-97030680D01*
X132719940Y-97030680D02*
X133357620Y-96393000D01*
X133357620Y-96393000D02*
X160934400Y-96393000D01*
X160934400Y-96393000D02*
X161604960Y-95722440D01*
X161604960Y-95722440D02*
X161604960Y-91531440D01*
X161549080Y-87871300D02*
X161549080Y-87899240D01*
X161549080Y-87899240D02*
X161549080Y-87871300D01*
X161549080Y-87871300D02*
X161549080Y-87899240D01*
X143885700Y-72543200D02*
X145438660Y-72543200D01*
X165935660Y-74543920D02*
X168234360Y-72245220D01*
X165935660Y-85161120D02*
X165935660Y-74543920D01*
X163197540Y-87899240D02*
X165935660Y-85161120D01*
X147662900Y-87899240D02*
X161549080Y-87899240D01*
X161549080Y-87899240D02*
X163197540Y-87899240D01*
X146796760Y-87033100D02*
X147662900Y-87899240D01*
X146796760Y-73901300D02*
X146796760Y-87033100D01*
X145438660Y-72543200D02*
X146796760Y-73901300D01*
X157340300Y-60985400D02*
X157340300Y-60261500D01*
X109179360Y-91226640D02*
X112257840Y-91226640D01*
X104104440Y-86151720D02*
X109179360Y-91226640D01*
X132455700Y-77876620D02*
X132455700Y-72543200D01*
X131429760Y-78902560D02*
X132455700Y-77876620D01*
X129865120Y-78902560D02*
X131429760Y-78902560D01*
X129753360Y-79014320D02*
X129865120Y-78902560D01*
X114160300Y-60985400D02*
X114160300Y-81165700D01*
X116090700Y-83096100D02*
X116090700Y-90525600D01*
X114160300Y-81165700D02*
X116090700Y-83096100D01*
X131185700Y-77973140D02*
X131185700Y-72543200D01*
X130982720Y-78176120D02*
X131185700Y-77973140D01*
X131185700Y-83408300D02*
X131185700Y-85343200D01*
X130647440Y-82870040D02*
X131185700Y-83408300D01*
X126149100Y-82870040D02*
X130647440Y-82870040D01*
X123410980Y-80131920D02*
X126149100Y-82870040D01*
X123410980Y-77142340D02*
X123410980Y-80131920D01*
X122488960Y-76220320D02*
X123410980Y-77142340D01*
X131185700Y-85343200D02*
X131185700Y-88384600D01*
X122793760Y-92334080D02*
X120802400Y-92334080D01*
X125082300Y-90144600D02*
X122793760Y-92334080D01*
X129425700Y-90144600D02*
X125082300Y-90144600D01*
X131185700Y-88384600D02*
X129425700Y-90144600D01*
X137517920Y-83911220D02*
X137535700Y-85343200D01*
X137447020Y-83840320D02*
X137517920Y-83911220D01*
X137535700Y-85343200D02*
X137535700Y-89148700D01*
X137535700Y-89148700D02*
X140634720Y-92400120D01*
X129915700Y-84149980D02*
X129915700Y-85343200D01*
X129529840Y-83764120D02*
X129915700Y-84149980D01*
X125702060Y-83764120D02*
X129529840Y-83764120D01*
X122712480Y-80774540D02*
X125702060Y-83764120D01*
X122712480Y-78120240D02*
X122712480Y-80774540D01*
X121594880Y-77002640D02*
X122712480Y-78120240D01*
X129915700Y-85343200D02*
X129915700Y-87940100D01*
X118681500Y-92354400D02*
X116890800Y-92354400D01*
X120205500Y-90830400D02*
X118681500Y-92354400D01*
X123139200Y-90830400D02*
X120205500Y-90830400D01*
X124548900Y-89420700D02*
X123139200Y-90830400D01*
X128435100Y-89420700D02*
X124548900Y-89420700D01*
X129915700Y-87940100D02*
X128435100Y-89420700D01*
X133725700Y-83908680D02*
X133725700Y-85343200D01*
X133692900Y-83875880D02*
X133725700Y-83908680D01*
X133725700Y-85343200D02*
X133725700Y-89121200D01*
X130799840Y-92273120D02*
X128727200Y-92273120D01*
X133725700Y-89121200D02*
X130799840Y-92273120D01*
X138805700Y-83873560D02*
X138805700Y-85343200D01*
X138828780Y-83850480D02*
X138805700Y-83873560D01*
X138805700Y-85343200D02*
X138805700Y-88475600D01*
X142433040Y-92400120D02*
X144414240Y-92415360D01*
X138805700Y-88475600D02*
X142433040Y-92400120D01*
X132455700Y-83001900D02*
X132455700Y-85343200D01*
X131681220Y-82227420D02*
X132455700Y-83001900D01*
X126987300Y-82227420D02*
X131681220Y-82227420D01*
X124137420Y-79377540D02*
X126987300Y-82227420D01*
X124137420Y-76555600D02*
X124137420Y-79377540D01*
X123243340Y-75661520D02*
X124137420Y-76555600D01*
X132455700Y-85343200D02*
X132455700Y-88638600D01*
X126019560Y-91196160D02*
X124876560Y-92339160D01*
X129882900Y-91211400D02*
X126019560Y-91196160D01*
X132455700Y-88638600D02*
X129882900Y-91211400D01*
X136207500Y-83781900D02*
X136265700Y-83840100D01*
X136265700Y-83840100D02*
X136265700Y-85343200D01*
X136265700Y-85343200D02*
X136265700Y-91688700D01*
X136265700Y-91688700D02*
X136672320Y-92339160D01*
X134978140Y-85325640D02*
X134978140Y-83875880D01*
X134978140Y-85325640D02*
X134995700Y-85343200D01*
X134995700Y-85343200D02*
X134995700Y-90022900D01*
X134995700Y-90022900D02*
X132664200Y-92354400D01*
X105515000Y-72186800D02*
X105515000Y-74689560D01*
X118993920Y-80020160D02*
X119017480Y-80043720D01*
X110967520Y-80142080D02*
X112938560Y-80142080D01*
X105515000Y-74689560D02*
X110967520Y-80142080D01*
X120309640Y-80043720D02*
X119017480Y-80043720D01*
X119017480Y-80043720D02*
X117896640Y-78922880D01*
X117896640Y-78922880D02*
X117896640Y-73720960D01*
X117896640Y-73720960D02*
X121025920Y-70591680D01*
X121025920Y-70591680D02*
X123200160Y-70591680D01*
X126105700Y-85343200D02*
X126105700Y-84663500D01*
X120964960Y-80114140D02*
X120380060Y-80114140D01*
X125194060Y-84343240D02*
X120964960Y-80114140D01*
X125785440Y-84343240D02*
X125194060Y-84343240D01*
X126105700Y-84663500D02*
X125785440Y-84343240D01*
X120380060Y-80114140D02*
X120309640Y-80043720D01*
X74295000Y-42052240D02*
X74295000Y-46062900D01*
X74264520Y-42021760D02*
X74295000Y-42052240D01*
X90832940Y-73761600D02*
X95834200Y-73761600D01*
X103388160Y-72186800D02*
X105515000Y-72186800D01*
X101869240Y-73705720D02*
X103388160Y-72186800D01*
X87284560Y-58534300D02*
X88430100Y-58534300D01*
X85999320Y-57249060D02*
X87284560Y-58534300D01*
X143885700Y-85343200D02*
X143885700Y-86811900D01*
X164454840Y-69441060D02*
X164454840Y-62697360D01*
X162039300Y-71856600D02*
X164454840Y-69441060D01*
X144703800Y-87630000D02*
X145580100Y-87630000D01*
X143885700Y-86811900D02*
X144703800Y-87630000D01*
X137020300Y-45745400D02*
X137020300Y-60985400D01*
X137129520Y-64541400D02*
X162554920Y-64541400D01*
X163220400Y-57607200D02*
X163220400Y-54356700D01*
X163337240Y-57724040D02*
X163220400Y-57607200D01*
X164398960Y-62697360D02*
X164454840Y-62697360D01*
X162554920Y-64541400D02*
X164398960Y-62697360D01*
X129362200Y-64541400D02*
X137129520Y-64541400D01*
X120309640Y-80043720D02*
X120309640Y-80109060D01*
X126121160Y-85327740D02*
X126105700Y-85343200D01*
X67190620Y-71158100D02*
X67190620Y-71150480D01*
X67190620Y-71150480D02*
X69342000Y-68999100D01*
X69342000Y-68999100D02*
X69342000Y-56121300D01*
X51435000Y-64731900D02*
X50576480Y-64731900D01*
X50279300Y-72351900D02*
X51308000Y-72351900D01*
X49118520Y-71191120D02*
X50279300Y-72351900D01*
X49118520Y-66189860D02*
X49118520Y-71191120D01*
X50576480Y-64731900D02*
X49118520Y-66189860D01*
X78867000Y-75933300D02*
X78409800Y-76390500D01*
X80352900Y-75933300D02*
X78867000Y-75933300D01*
X81000600Y-75285600D02*
X80352900Y-75933300D01*
X87515700Y-75285600D02*
X81000600Y-75285600D01*
X88011000Y-74790300D02*
X87515700Y-75285600D01*
X65399940Y-104279120D02*
X65399940Y-94508340D01*
X51054000Y-90868500D02*
X51054000Y-88607900D01*
X53835300Y-93649800D02*
X51054000Y-90868500D01*
X64541400Y-93649800D02*
X53835300Y-93649800D01*
X65399940Y-94508340D02*
X64541400Y-93649800D01*
X69608700Y-90335100D02*
X65399940Y-94543860D01*
X65399940Y-94543860D02*
X65399940Y-104279120D01*
X51435000Y-64731900D02*
X54025800Y-64731900D01*
X54025800Y-64731900D02*
X54330600Y-64427100D01*
X51968400Y-47041500D02*
X50837400Y-47041500D01*
X56667400Y-73698100D02*
X59570620Y-73698100D01*
X54330600Y-71361300D02*
X56667400Y-73698100D01*
X54330600Y-60121800D02*
X54330600Y-64427100D01*
X54330600Y-64427100D02*
X54330600Y-71361300D01*
X52120800Y-57912000D02*
X54330600Y-60121800D01*
X50101500Y-57912000D02*
X52120800Y-57912000D01*
X48082200Y-55892700D02*
X50101500Y-57912000D01*
X48082200Y-49796700D02*
X48082200Y-55892700D01*
X50837400Y-47041500D02*
X48082200Y-49796700D01*
X74295000Y-46062900D02*
X74295000Y-46672500D01*
X74295000Y-46672500D02*
X73571100Y-47396400D01*
X73571100Y-47396400D02*
X65886900Y-47396400D01*
X65886900Y-47396400D02*
X65570100Y-47079600D01*
X65570100Y-47079600D02*
X65570100Y-48196500D01*
X64998600Y-48768000D02*
X52235100Y-48768000D01*
X65570100Y-48196500D02*
X64998600Y-48768000D01*
X51968400Y-47041500D02*
X51968400Y-48501300D01*
X55118000Y-51650900D02*
X55118000Y-52678900D01*
X51968400Y-48501300D02*
X52235100Y-48768000D01*
X52235100Y-48768000D02*
X55118000Y-51650900D01*
X126126240Y-70591680D02*
X126105700Y-70591680D01*
X126105700Y-70591680D02*
X126126240Y-70591680D01*
X126126240Y-70591680D02*
X126105700Y-70591680D01*
X126105700Y-70591680D02*
X126105700Y-67797900D01*
X126105700Y-67797900D02*
X129362200Y-64541400D01*
X93179900Y-72895460D02*
X95750380Y-72895460D01*
X93040200Y-73035160D02*
X93179900Y-72895460D01*
X109115000Y-71312180D02*
X109115000Y-72186800D01*
X101729540Y-72392540D02*
X104076500Y-70045580D01*
X104076500Y-70045580D02*
X107848400Y-70045580D01*
X107848400Y-70045580D02*
X109115000Y-71312180D01*
X124835700Y-72543200D02*
X120823520Y-72543200D01*
X120197880Y-73168840D02*
X120197880Y-78431960D01*
X120823520Y-72543200D02*
X120197880Y-73168840D01*
X120197880Y-78431960D02*
X120309640Y-78543720D01*
X124835700Y-72543200D02*
X124835700Y-67559140D01*
X164225540Y-52856700D02*
X163220400Y-52856700D01*
X165125400Y-53756560D02*
X164225540Y-52856700D01*
X165125400Y-60294520D02*
X165125400Y-53756560D01*
X162107880Y-63312040D02*
X165125400Y-60294520D01*
X129082800Y-63312040D02*
X162107880Y-63312040D01*
X124835700Y-67559140D02*
X129082800Y-63312040D01*
X159880300Y-45745400D02*
X159880300Y-41582340D01*
X71755000Y-42575480D02*
X71755000Y-46062900D01*
X75549760Y-38780720D02*
X71755000Y-42575480D01*
X157078680Y-38780720D02*
X75549760Y-38780720D01*
X159880300Y-41582340D02*
X157078680Y-38780720D01*
X92354400Y-47548800D02*
X85763100Y-47548800D01*
X69359940Y-92260260D02*
X69359940Y-104279120D01*
X70904100Y-90716100D02*
X69359940Y-92260260D01*
X84543900Y-68199000D02*
X84048600Y-68199000D01*
X78790800Y-61874400D02*
X80048100Y-60617100D01*
X78790800Y-62941200D02*
X78790800Y-61874400D01*
X84048600Y-68199000D02*
X78790800Y-62941200D01*
X84429600Y-76390500D02*
X84429600Y-83400900D01*
X84353400Y-76314300D02*
X84429600Y-76390500D01*
X85953600Y-69608700D02*
X95288100Y-69608700D01*
X84543900Y-68199000D02*
X85953600Y-69608700D01*
X67190620Y-76238100D02*
X68199000Y-76238100D01*
X70104000Y-74333100D02*
X70104000Y-50673000D01*
X68199000Y-76238100D02*
X70104000Y-74333100D01*
X59570620Y-71158100D02*
X56603900Y-71158100D01*
X50189700Y-56400000D02*
X50189700Y-55295800D01*
X50673000Y-56883300D02*
X50189700Y-56400000D01*
X52463700Y-56883300D02*
X50673000Y-56883300D01*
X55359300Y-59778900D02*
X52463700Y-56883300D01*
X55359300Y-69913500D02*
X55359300Y-59778900D01*
X56603900Y-71158100D02*
X55359300Y-69913500D01*
X49539700Y-52273200D02*
X49539700Y-54866080D01*
X49539700Y-54866080D02*
X49969420Y-55295800D01*
X49969420Y-55295800D02*
X50189700Y-55295800D01*
X71755000Y-46062900D02*
X69456300Y-46062900D01*
X49539700Y-49920700D02*
X49539700Y-52273200D01*
X49491900Y-49872900D02*
X49539700Y-49920700D01*
X51854100Y-43014900D02*
X49149000Y-45720000D01*
X66408300Y-43014900D02*
X51854100Y-43014900D01*
X69456300Y-46062900D02*
X66408300Y-43014900D01*
X159880300Y-45745400D02*
X161025840Y-45745400D01*
X161025840Y-45745400D02*
X163220400Y-47939960D01*
X163220400Y-47939960D02*
X163220400Y-52856700D01*
X134995700Y-72543200D02*
X134995700Y-76146880D01*
X134995700Y-76146880D02*
X134950200Y-76192380D01*
X137535700Y-75592720D02*
X137535700Y-72543200D01*
X137576560Y-75633580D02*
X137535700Y-75592720D01*
X128645700Y-76146880D02*
X128645700Y-72543200D01*
X128623060Y-76169520D02*
X128645700Y-76146880D01*
X86055200Y-92453460D02*
X88402160Y-92453460D01*
X84127340Y-90525600D02*
X86055200Y-92453460D01*
X84127340Y-85803740D02*
X84127340Y-90525600D01*
X83875880Y-85552280D02*
X84127340Y-85803740D01*
X83875880Y-85691980D02*
X83875880Y-85552280D01*
X83400900Y-85217000D02*
X83875880Y-85691980D01*
X83400900Y-81808320D02*
X83400900Y-85217000D01*
X79181960Y-77589380D02*
X83400900Y-81808320D01*
X53939900Y-53873400D02*
X53112100Y-53873400D01*
X53112100Y-53873400D02*
X51689700Y-55295800D01*
X59570620Y-55918100D02*
X56857200Y-55918100D01*
X56857200Y-55918100D02*
X54812500Y-53873400D01*
X54812500Y-53873400D02*
X53939900Y-53873400D01*
X53939900Y-53873400D02*
X52339700Y-52273200D01*
X56308600Y-46329600D02*
X54406800Y-46329600D01*
X53618700Y-45541500D02*
X51968400Y-45541500D01*
X54406800Y-46329600D02*
X53618700Y-45541500D01*
X61188600Y-46329600D02*
X63741300Y-46329600D01*
X64491300Y-45579600D02*
X65570100Y-45579600D01*
X63741300Y-46329600D02*
X64491300Y-45579600D01*
X129976880Y-77170280D02*
X129915700Y-77109100D01*
X129915700Y-77109100D02*
X129915700Y-72543200D01*
X119240300Y-45745400D02*
X119240300Y-46494700D01*
X119240300Y-46494700D02*
X117462300Y-48272700D01*
X117462300Y-48272700D02*
X115290600Y-48272700D01*
X115290600Y-48272700D02*
X114490500Y-49072800D01*
X114490500Y-49072800D02*
X114490500Y-51663600D01*
X106946700Y-68046600D02*
X106260900Y-68732400D01*
X106260900Y-68732400D02*
X103289100Y-68732400D01*
X96316800Y-90335100D02*
X96202500Y-90449400D01*
X96202500Y-90449400D02*
X96202500Y-95783400D01*
X96202500Y-95783400D02*
X97078800Y-96659700D01*
X97078800Y-96659700D02*
X97078800Y-98031300D01*
X128645700Y-85343200D02*
X128645700Y-87800400D01*
X102946200Y-92163900D02*
X97078800Y-98031300D01*
X115062000Y-92163900D02*
X102946200Y-92163900D01*
X115595400Y-91630500D02*
X115062000Y-92163900D01*
X118529100Y-91630500D02*
X115595400Y-91630500D01*
X120053100Y-90106500D02*
X118529100Y-91630500D01*
X122682000Y-90106500D02*
X120053100Y-90106500D01*
X124015500Y-88773000D02*
X122682000Y-90106500D01*
X127673100Y-88773000D02*
X124015500Y-88773000D01*
X128645700Y-87800400D02*
X127673100Y-88773000D01*
X116700300Y-45745400D02*
X116332000Y-45745400D01*
X116332000Y-45745400D02*
X113118900Y-48958500D01*
X109918500Y-89001600D02*
X109918500Y-89154000D01*
X106032300Y-85115400D02*
X109918500Y-89001600D01*
X113118900Y-48958500D02*
X113118900Y-50673000D01*
X133725700Y-78841820D02*
X133725700Y-72543200D01*
X133441440Y-79126080D02*
X133725700Y-78841820D01*
X133329680Y-81193640D02*
X133441440Y-81305400D01*
X127909320Y-81193640D02*
X133329680Y-81193640D01*
X127797560Y-81081880D02*
X127909320Y-81193640D01*
X105079800Y-85801200D02*
X109499400Y-90220800D01*
X109499400Y-90220800D02*
X111099600Y-90220800D01*
X136265700Y-77419420D02*
X136265700Y-72543200D01*
X133441440Y-80243680D02*
X136265700Y-77419420D01*
X128971040Y-80243680D02*
X133441440Y-80243680D01*
X128747520Y-80020160D02*
X128971040Y-80243680D01*
X76835000Y-46062900D02*
X76835000Y-46875700D01*
X76835000Y-46875700D02*
X75552300Y-48158400D01*
X75552300Y-48158400D02*
X68618100Y-48158400D01*
X68618100Y-48158400D02*
X67190620Y-49585880D01*
X67190620Y-49585880D02*
X67190620Y-55918100D01*
X79375000Y-46062900D02*
X79375000Y-46545500D01*
X79375000Y-46545500D02*
X76847700Y-49072800D01*
X76847700Y-49072800D02*
X68999100Y-49072800D01*
X68999100Y-49072800D02*
X68694300Y-49377600D01*
X68694300Y-49377600D02*
X68694300Y-56954420D01*
X68694300Y-56954420D02*
X67190620Y-58458100D01*
X127375700Y-77083700D02*
X127375700Y-72543200D01*
X127406400Y-77114400D02*
X127375700Y-77083700D01*
X79796640Y-92928440D02*
X83708240Y-96840040D01*
X79796640Y-83931760D02*
X79796640Y-92928440D01*
X78455520Y-82590640D02*
X79796640Y-83931760D01*
X51054000Y-86067900D02*
X52006500Y-86067900D01*
X65760600Y-67508120D02*
X67190620Y-66078100D01*
X65760600Y-78524100D02*
X65760600Y-67508120D01*
X64274700Y-80010000D02*
X65760600Y-78524100D01*
X58064400Y-80010000D02*
X64274700Y-80010000D01*
X52006500Y-86067900D02*
X58064400Y-80010000D01*
X51181000Y-77558900D02*
X64592200Y-77558900D01*
X65151000Y-65577720D02*
X67190620Y-63538100D01*
X65151000Y-77000100D02*
X65151000Y-65577720D01*
X64592200Y-77558900D02*
X65151000Y-77000100D01*
X51308000Y-69811900D02*
X51308000Y-70167500D01*
X51308000Y-70167500D02*
X56045100Y-74904600D01*
X56045100Y-74904600D02*
X63817500Y-74904600D01*
X63817500Y-74904600D02*
X64465200Y-74256900D01*
X64465200Y-74256900D02*
X64465200Y-63723520D01*
X64465200Y-63723520D02*
X67190620Y-60998100D01*
X51435000Y-62191900D02*
X48755300Y-62191900D01*
X58643520Y-87325200D02*
X59570620Y-86398100D01*
X49149000Y-87325200D02*
X58643520Y-87325200D01*
X48196500Y-86372700D02*
X49149000Y-87325200D01*
X48196500Y-62750700D02*
X48196500Y-86372700D01*
X48755300Y-62191900D02*
X48196500Y-62750700D01*
X124320300Y-40891460D02*
X124320300Y-45745400D01*
X123187460Y-39758620D02*
X124320300Y-40891460D01*
X124305060Y-45730160D02*
X124320300Y-45745400D01*
X126791720Y-41965880D02*
X126791720Y-45676820D01*
X125562360Y-40736520D02*
X126791720Y-41965880D01*
X126791720Y-45676820D02*
X126860300Y-45745400D01*
X126735840Y-45620940D02*
X126860300Y-45745400D01*
X126860300Y-45745400D02*
X126860300Y-45554900D01*
X129400300Y-43428920D02*
X129400300Y-45745400D01*
X127797560Y-41826180D02*
X129400300Y-43428920D01*
X129306320Y-45651420D02*
X129400300Y-45745400D01*
X111620300Y-60985400D02*
X111620300Y-50599340D01*
X105780840Y-44759880D02*
X85664040Y-44759880D01*
X111620300Y-50599340D02*
X105780840Y-44759880D01*
X109080300Y-60985400D02*
X109080300Y-49400460D01*
X64416940Y-81318100D02*
X59570620Y-81318100D01*
X65603120Y-80131920D02*
X64416940Y-81318100D01*
X68955920Y-80131920D02*
X65603120Y-80131920D01*
X76108560Y-72979280D02*
X68955920Y-80131920D01*
X76108560Y-53588920D02*
X76108560Y-72979280D01*
X77505560Y-52191920D02*
X76108560Y-53588920D01*
X79629000Y-52191920D02*
X77505560Y-52191920D01*
X86222840Y-45598080D02*
X79629000Y-52191920D01*
X105277920Y-45598080D02*
X86222840Y-45598080D01*
X109080300Y-49400460D02*
X105277920Y-45598080D01*
X71694040Y-66888360D02*
X73705720Y-66888360D01*
X92537280Y-82031840D02*
X92537280Y-80103980D01*
X91922600Y-82646520D02*
X92537280Y-82031840D01*
X88011000Y-82646520D02*
X91922600Y-82646520D01*
X86446360Y-84211160D02*
X88011000Y-82646520D01*
X91020900Y-61302900D02*
X93878400Y-58445400D01*
X93878400Y-58445400D02*
X93878400Y-47777400D01*
X93878400Y-47777400D02*
X94983300Y-46672500D01*
X94983300Y-46672500D02*
X104698800Y-46672500D01*
X104698800Y-46672500D02*
X107708700Y-49682400D01*
X93459300Y-86258400D02*
X93459300Y-85534500D01*
X93345000Y-86372700D02*
X93459300Y-86258400D01*
X91097100Y-86372700D02*
X93345000Y-86372700D01*
X89992200Y-87477600D02*
X91097100Y-86372700D01*
X91363800Y-94335600D02*
X91363800Y-88506300D01*
X91325700Y-94373700D02*
X91363800Y-94335600D01*
X85153500Y-96431100D02*
X88201500Y-96431100D01*
X80619600Y-91897200D02*
X85153500Y-96431100D01*
X80619600Y-82943700D02*
X80619600Y-91897200D01*
X80505300Y-82829400D02*
X80619600Y-82943700D01*
X76789280Y-68600320D02*
X78028800Y-67360800D01*
X76789280Y-73416160D02*
X76789280Y-68600320D01*
X75895200Y-74310240D02*
X76789280Y-73416160D01*
X75895200Y-75488800D02*
X75895200Y-74310240D01*
X78414880Y-78008480D02*
X75895200Y-75488800D01*
X78414880Y-80020160D02*
X78414880Y-78008480D01*
X78374240Y-80060800D02*
X78414880Y-80020160D01*
X84714080Y-64345820D02*
X84714080Y-65659000D01*
X83400900Y-63032640D02*
X84714080Y-64345820D01*
X80662780Y-63032640D02*
X83400900Y-63032640D01*
X79880460Y-62250320D02*
X80662780Y-63032640D01*
X85831680Y-63870840D02*
X85831680Y-66357500D01*
M02*
