G04 #@! TF.FileFunction,Soldermask,Top*
%FSLAX46Y46*%
G04 Gerber Fmt 4.6, Leading zero omitted, Abs format (unit mm)*
G04 Created by KiCad (PCBNEW 4.0.7) date 07/11/18 06:20:05*
%MOMM*%
%LPD*%
G01*
G04 APERTURE LIST*
%ADD10C,0.100000*%
%ADD11R,2.800000X9.200000*%
%ADD12R,0.800000X1.600000*%
%ADD13R,2.000000X2.000000*%
%ADD14O,2.000000X2.000000*%
%ADD15R,1.150000X1.200000*%
%ADD16R,3.000000X2.000000*%
%ADD17R,1.500000X1.500000*%
%ADD18R,2.100000X2.100000*%
%ADD19O,2.100000X2.100000*%
%ADD20R,0.900000X1.300000*%
%ADD21C,1.900000*%
G04 APERTURE END LIST*
D10*
D11*
X65399940Y-104279120D03*
X69359940Y-104279120D03*
X73319940Y-104279120D03*
X77279940Y-104279120D03*
X81239940Y-104279120D03*
X85199940Y-104279120D03*
X89159940Y-104279120D03*
X93119940Y-104279120D03*
X97079940Y-104279120D03*
X101039940Y-104279120D03*
X104999940Y-104279120D03*
X108959940Y-104279120D03*
X112919940Y-104279120D03*
X120839940Y-104279120D03*
X140639940Y-104279120D03*
X116879940Y-104279120D03*
X128759940Y-104279120D03*
X148559940Y-104279120D03*
X144599940Y-104279120D03*
X124799940Y-104279120D03*
X136679940Y-104279120D03*
X132719940Y-104279120D03*
D12*
X124835700Y-85343200D03*
X126105700Y-85343200D03*
X127375700Y-85343200D03*
X128645700Y-85343200D03*
X129915700Y-85343200D03*
X131185700Y-85343200D03*
X132455700Y-85343200D03*
X133725700Y-85343200D03*
X134995700Y-85343200D03*
X136265700Y-85343200D03*
X137535700Y-85343200D03*
X138805700Y-85343200D03*
X140075700Y-85343200D03*
X141345700Y-85343200D03*
X142615700Y-85343200D03*
X143885700Y-85343200D03*
X143885700Y-72543200D03*
X142615700Y-72543200D03*
X141345700Y-72543200D03*
X140075700Y-72543200D03*
X138805700Y-72543200D03*
X137535700Y-72543200D03*
X136265700Y-72543200D03*
X134995700Y-72543200D03*
X133725700Y-72543200D03*
X132455700Y-72543200D03*
X131185700Y-72543200D03*
X129915700Y-72543200D03*
X128645700Y-72543200D03*
X127375700Y-72543200D03*
X126105700Y-72543200D03*
X124835700Y-72543200D03*
D13*
X109080300Y-60985400D03*
D14*
X159880300Y-45745400D03*
X111620300Y-60985400D03*
X157340300Y-45745400D03*
X114160300Y-60985400D03*
X154800300Y-45745400D03*
X116700300Y-60985400D03*
X152260300Y-45745400D03*
X119240300Y-60985400D03*
X149720300Y-45745400D03*
X121780300Y-60985400D03*
X147180300Y-45745400D03*
X124320300Y-60985400D03*
X144640300Y-45745400D03*
X126860300Y-60985400D03*
X142100300Y-45745400D03*
X129400300Y-60985400D03*
X139560300Y-45745400D03*
X131940300Y-60985400D03*
X137020300Y-45745400D03*
X134480300Y-60985400D03*
X134480300Y-45745400D03*
X137020300Y-60985400D03*
X131940300Y-45745400D03*
X139560300Y-60985400D03*
X129400300Y-45745400D03*
X142100300Y-60985400D03*
X126860300Y-45745400D03*
X144640300Y-60985400D03*
X124320300Y-45745400D03*
X147180300Y-60985400D03*
X121780300Y-45745400D03*
X149720300Y-60985400D03*
X119240300Y-45745400D03*
X152260300Y-60985400D03*
X116700300Y-45745400D03*
X154800300Y-60985400D03*
X114160300Y-45745400D03*
X157340300Y-60985400D03*
X111620300Y-45745400D03*
X159880300Y-60985400D03*
X109080300Y-45745400D03*
D15*
X55118000Y-52678900D03*
X55118000Y-54178900D03*
X51968400Y-45541500D03*
X51968400Y-47041500D03*
X65570100Y-47079600D03*
X65570100Y-45579600D03*
D16*
X109115000Y-72186800D03*
X105515000Y-72186800D03*
D15*
X163220400Y-54356700D03*
X163220400Y-52856700D03*
X120309640Y-80043720D03*
X120309640Y-78543720D03*
D17*
X49539700Y-52273200D03*
X52339700Y-52273200D03*
D18*
X71755000Y-46062900D03*
D19*
X74295000Y-46062900D03*
X76835000Y-46062900D03*
X79375000Y-46062900D03*
D20*
X50189700Y-55295800D03*
X51689700Y-55295800D03*
D18*
X51054000Y-86067900D03*
D19*
X51054000Y-88607900D03*
D18*
X51181000Y-77558900D03*
D19*
X51181000Y-80098900D03*
D18*
X51308000Y-69811900D03*
D19*
X51308000Y-72351900D03*
D18*
X51435000Y-62191900D03*
D19*
X51435000Y-64731900D03*
D21*
X61188600Y-46329600D03*
X56308600Y-46329600D03*
D13*
X59570620Y-55918100D03*
D14*
X67190620Y-88938100D03*
X59570620Y-58458100D03*
X67190620Y-86398100D03*
X59570620Y-60998100D03*
X67190620Y-83858100D03*
X59570620Y-63538100D03*
X67190620Y-81318100D03*
X59570620Y-66078100D03*
X67190620Y-78778100D03*
X59570620Y-68618100D03*
X67190620Y-76238100D03*
X59570620Y-71158100D03*
X67190620Y-73698100D03*
X59570620Y-73698100D03*
X67190620Y-71158100D03*
X59570620Y-76238100D03*
X67190620Y-68618100D03*
X59570620Y-78778100D03*
X67190620Y-66078100D03*
X59570620Y-81318100D03*
X67190620Y-63538100D03*
X59570620Y-83858100D03*
X67190620Y-60998100D03*
X59570620Y-86398100D03*
X67190620Y-58458100D03*
X59570620Y-88938100D03*
X67190620Y-55918100D03*
M02*
