G04 #@! TF.FileFunction,Other,Fab,Bot*
%FSLAX46Y46*%
G04 Gerber Fmt 4.6, Leading zero omitted, Abs format (unit mm)*
G04 Created by KiCad (PCBNEW 4.0.7) date 07/11/18 06:20:05*
%MOMM*%
%LPD*%
G01*
G04 APERTURE LIST*
%ADD10C,0.100000*%
%ADD11C,0.150000*%
%ADD12C,0.075000*%
%ADD13C,0.135000*%
G04 APERTURE END LIST*
D10*
X80149600Y-74367440D02*
X78549600Y-74367440D01*
X78549600Y-74367440D02*
X78549600Y-75167440D01*
X78549600Y-75167440D02*
X80149600Y-75167440D01*
X80149600Y-75167440D02*
X80149600Y-74367440D01*
X80098800Y-58185100D02*
X78498800Y-58185100D01*
X78498800Y-58185100D02*
X78498800Y-58985100D01*
X78498800Y-58985100D02*
X80098800Y-58985100D01*
X80098800Y-58985100D02*
X80098800Y-58185100D01*
X92367000Y-74364900D02*
X90767000Y-74364900D01*
X90767000Y-74364900D02*
X90767000Y-75164900D01*
X90767000Y-75164900D02*
X92367000Y-75164900D01*
X92367000Y-75164900D02*
X92367000Y-74364900D01*
X92189200Y-58185100D02*
X90589200Y-58185100D01*
X90589200Y-58185100D02*
X90589200Y-58985100D01*
X90589200Y-58985100D02*
X92189200Y-58985100D01*
X92189200Y-58985100D02*
X92189200Y-58185100D01*
X80009900Y-86391700D02*
X80009900Y-85591700D01*
X78409900Y-86391700D02*
X80009900Y-86391700D01*
X78409900Y-85591700D02*
X78409900Y-86391700D01*
X80009900Y-85591700D02*
X78409900Y-85591700D01*
X92278100Y-56940400D02*
X92278100Y-56140400D01*
X90678100Y-56940400D02*
X92278100Y-56940400D01*
X90678100Y-56140400D02*
X90678100Y-56940400D01*
X92278100Y-56140400D02*
X90678100Y-56140400D01*
D11*
X90705900Y-68624700D02*
X93605900Y-68624700D01*
X93605900Y-68624700D02*
X93605900Y-59924700D01*
X93605900Y-59924700D02*
X89705900Y-59924700D01*
X89705900Y-59924700D02*
X89705900Y-67624700D01*
X89705900Y-67624700D02*
X90705900Y-68624700D01*
X90718600Y-84626700D02*
X93618600Y-84626700D01*
X93618600Y-84626700D02*
X93618600Y-75926700D01*
X93618600Y-75926700D02*
X89718600Y-75926700D01*
X89718600Y-75926700D02*
X89718600Y-83626700D01*
X89718600Y-83626700D02*
X90718600Y-84626700D01*
X78399600Y-68667880D02*
X81299600Y-68667880D01*
X81299600Y-68667880D02*
X81299600Y-59967880D01*
X81299600Y-59967880D02*
X77399600Y-59967880D01*
X77399600Y-59967880D02*
X77399600Y-67667880D01*
X77399600Y-67667880D02*
X78399600Y-68667880D01*
X78389440Y-84634320D02*
X81289440Y-84634320D01*
X81289440Y-84634320D02*
X81289440Y-75934320D01*
X81289440Y-75934320D02*
X77389440Y-75934320D01*
X77389440Y-75934320D02*
X77389440Y-83634320D01*
X77389440Y-83634320D02*
X78389440Y-84634320D01*
X80849600Y-75719821D02*
X80754361Y-75719821D01*
X80659123Y-75767440D01*
X80611504Y-75815059D01*
X80563885Y-75910297D01*
X80516266Y-76100773D01*
X80516266Y-76338869D01*
X80563885Y-76529345D01*
X80611504Y-76624583D01*
X80659123Y-76672202D01*
X80754361Y-76719821D01*
X80849600Y-76719821D01*
X80944838Y-76672202D01*
X80992457Y-76624583D01*
X81040076Y-76529345D01*
X81087695Y-76338869D01*
X81087695Y-76100773D01*
X81040076Y-75910297D01*
X80992457Y-75815059D01*
X80944838Y-75767440D01*
X80849600Y-75719821D01*
X80087695Y-76624583D02*
X80040076Y-76672202D01*
X80087695Y-76719821D01*
X80135314Y-76672202D01*
X80087695Y-76624583D01*
X80087695Y-76719821D01*
X79087695Y-76719821D02*
X79659124Y-76719821D01*
X79373410Y-76719821D02*
X79373410Y-75719821D01*
X79468648Y-75862678D01*
X79563886Y-75957916D01*
X79659124Y-76005535D01*
X78230552Y-76053154D02*
X78230552Y-76719821D01*
X78659124Y-76053154D02*
X78659124Y-76576964D01*
X78611505Y-76672202D01*
X78516267Y-76719821D01*
X78373409Y-76719821D01*
X78278171Y-76672202D01*
X78230552Y-76624583D01*
X77897219Y-76053154D02*
X77516267Y-76053154D01*
X77754362Y-76719821D02*
X77754362Y-75862678D01*
X77706743Y-75767440D01*
X77611505Y-75719821D01*
X77516267Y-75719821D01*
D12*
X79399600Y-74874583D02*
X79413886Y-74888869D01*
X79456743Y-74903154D01*
X79485314Y-74903154D01*
X79528171Y-74888869D01*
X79556743Y-74860297D01*
X79571028Y-74831726D01*
X79585314Y-74774583D01*
X79585314Y-74731726D01*
X79571028Y-74674583D01*
X79556743Y-74646011D01*
X79528171Y-74617440D01*
X79485314Y-74603154D01*
X79456743Y-74603154D01*
X79413886Y-74617440D01*
X79399600Y-74631726D01*
X79299600Y-74603154D02*
X79099600Y-74603154D01*
X79228171Y-74903154D01*
D11*
X80798800Y-59537481D02*
X80703561Y-59537481D01*
X80608323Y-59585100D01*
X80560704Y-59632719D01*
X80513085Y-59727957D01*
X80465466Y-59918433D01*
X80465466Y-60156529D01*
X80513085Y-60347005D01*
X80560704Y-60442243D01*
X80608323Y-60489862D01*
X80703561Y-60537481D01*
X80798800Y-60537481D01*
X80894038Y-60489862D01*
X80941657Y-60442243D01*
X80989276Y-60347005D01*
X81036895Y-60156529D01*
X81036895Y-59918433D01*
X80989276Y-59727957D01*
X80941657Y-59632719D01*
X80894038Y-59585100D01*
X80798800Y-59537481D01*
X80036895Y-60442243D02*
X79989276Y-60489862D01*
X80036895Y-60537481D01*
X80084514Y-60489862D01*
X80036895Y-60442243D01*
X80036895Y-60537481D01*
X79036895Y-60537481D02*
X79608324Y-60537481D01*
X79322610Y-60537481D02*
X79322610Y-59537481D01*
X79417848Y-59680338D01*
X79513086Y-59775576D01*
X79608324Y-59823195D01*
X78179752Y-59870814D02*
X78179752Y-60537481D01*
X78608324Y-59870814D02*
X78608324Y-60394624D01*
X78560705Y-60489862D01*
X78465467Y-60537481D01*
X78322609Y-60537481D01*
X78227371Y-60489862D01*
X78179752Y-60442243D01*
X77846419Y-59870814D02*
X77465467Y-59870814D01*
X77703562Y-60537481D02*
X77703562Y-59680338D01*
X77655943Y-59585100D01*
X77560705Y-59537481D01*
X77465467Y-59537481D01*
D12*
X79348800Y-58692243D02*
X79363086Y-58706529D01*
X79405943Y-58720814D01*
X79434514Y-58720814D01*
X79477371Y-58706529D01*
X79505943Y-58677957D01*
X79520228Y-58649386D01*
X79534514Y-58592243D01*
X79534514Y-58549386D01*
X79520228Y-58492243D01*
X79505943Y-58463671D01*
X79477371Y-58435100D01*
X79434514Y-58420814D01*
X79405943Y-58420814D01*
X79363086Y-58435100D01*
X79348800Y-58449386D01*
X79177371Y-58549386D02*
X79205943Y-58535100D01*
X79220228Y-58520814D01*
X79234514Y-58492243D01*
X79234514Y-58477957D01*
X79220228Y-58449386D01*
X79205943Y-58435100D01*
X79177371Y-58420814D01*
X79120228Y-58420814D01*
X79091657Y-58435100D01*
X79077371Y-58449386D01*
X79063086Y-58477957D01*
X79063086Y-58492243D01*
X79077371Y-58520814D01*
X79091657Y-58535100D01*
X79120228Y-58549386D01*
X79177371Y-58549386D01*
X79205943Y-58563671D01*
X79220228Y-58577957D01*
X79234514Y-58606529D01*
X79234514Y-58663671D01*
X79220228Y-58692243D01*
X79205943Y-58706529D01*
X79177371Y-58720814D01*
X79120228Y-58720814D01*
X79091657Y-58706529D01*
X79077371Y-58692243D01*
X79063086Y-58663671D01*
X79063086Y-58606529D01*
X79077371Y-58577957D01*
X79091657Y-58563671D01*
X79120228Y-58549386D01*
D11*
X93067000Y-75717281D02*
X92971761Y-75717281D01*
X92876523Y-75764900D01*
X92828904Y-75812519D01*
X92781285Y-75907757D01*
X92733666Y-76098233D01*
X92733666Y-76336329D01*
X92781285Y-76526805D01*
X92828904Y-76622043D01*
X92876523Y-76669662D01*
X92971761Y-76717281D01*
X93067000Y-76717281D01*
X93162238Y-76669662D01*
X93209857Y-76622043D01*
X93257476Y-76526805D01*
X93305095Y-76336329D01*
X93305095Y-76098233D01*
X93257476Y-75907757D01*
X93209857Y-75812519D01*
X93162238Y-75764900D01*
X93067000Y-75717281D01*
X92305095Y-76622043D02*
X92257476Y-76669662D01*
X92305095Y-76717281D01*
X92352714Y-76669662D01*
X92305095Y-76622043D01*
X92305095Y-76717281D01*
X91305095Y-76717281D02*
X91876524Y-76717281D01*
X91590810Y-76717281D02*
X91590810Y-75717281D01*
X91686048Y-75860138D01*
X91781286Y-75955376D01*
X91876524Y-76002995D01*
X90447952Y-76050614D02*
X90447952Y-76717281D01*
X90876524Y-76050614D02*
X90876524Y-76574424D01*
X90828905Y-76669662D01*
X90733667Y-76717281D01*
X90590809Y-76717281D01*
X90495571Y-76669662D01*
X90447952Y-76622043D01*
X90114619Y-76050614D02*
X89733667Y-76050614D01*
X89971762Y-76717281D02*
X89971762Y-75860138D01*
X89924143Y-75764900D01*
X89828905Y-75717281D01*
X89733667Y-75717281D01*
D12*
X91617000Y-74872043D02*
X91631286Y-74886329D01*
X91674143Y-74900614D01*
X91702714Y-74900614D01*
X91745571Y-74886329D01*
X91774143Y-74857757D01*
X91788428Y-74829186D01*
X91802714Y-74772043D01*
X91802714Y-74729186D01*
X91788428Y-74672043D01*
X91774143Y-74643471D01*
X91745571Y-74614900D01*
X91702714Y-74600614D01*
X91674143Y-74600614D01*
X91631286Y-74614900D01*
X91617000Y-74629186D01*
X91474143Y-74900614D02*
X91417000Y-74900614D01*
X91388428Y-74886329D01*
X91374143Y-74872043D01*
X91345571Y-74829186D01*
X91331286Y-74772043D01*
X91331286Y-74657757D01*
X91345571Y-74629186D01*
X91359857Y-74614900D01*
X91388428Y-74600614D01*
X91445571Y-74600614D01*
X91474143Y-74614900D01*
X91488428Y-74629186D01*
X91502714Y-74657757D01*
X91502714Y-74729186D01*
X91488428Y-74757757D01*
X91474143Y-74772043D01*
X91445571Y-74786329D01*
X91388428Y-74786329D01*
X91359857Y-74772043D01*
X91345571Y-74757757D01*
X91331286Y-74729186D01*
D11*
X92889200Y-59537481D02*
X92793961Y-59537481D01*
X92698723Y-59585100D01*
X92651104Y-59632719D01*
X92603485Y-59727957D01*
X92555866Y-59918433D01*
X92555866Y-60156529D01*
X92603485Y-60347005D01*
X92651104Y-60442243D01*
X92698723Y-60489862D01*
X92793961Y-60537481D01*
X92889200Y-60537481D01*
X92984438Y-60489862D01*
X93032057Y-60442243D01*
X93079676Y-60347005D01*
X93127295Y-60156529D01*
X93127295Y-59918433D01*
X93079676Y-59727957D01*
X93032057Y-59632719D01*
X92984438Y-59585100D01*
X92889200Y-59537481D01*
X92127295Y-60442243D02*
X92079676Y-60489862D01*
X92127295Y-60537481D01*
X92174914Y-60489862D01*
X92127295Y-60442243D01*
X92127295Y-60537481D01*
X91127295Y-60537481D02*
X91698724Y-60537481D01*
X91413010Y-60537481D02*
X91413010Y-59537481D01*
X91508248Y-59680338D01*
X91603486Y-59775576D01*
X91698724Y-59823195D01*
X90270152Y-59870814D02*
X90270152Y-60537481D01*
X90698724Y-59870814D02*
X90698724Y-60394624D01*
X90651105Y-60489862D01*
X90555867Y-60537481D01*
X90413009Y-60537481D01*
X90317771Y-60489862D01*
X90270152Y-60442243D01*
X89936819Y-59870814D02*
X89555867Y-59870814D01*
X89793962Y-60537481D02*
X89793962Y-59680338D01*
X89746343Y-59585100D01*
X89651105Y-59537481D01*
X89555867Y-59537481D01*
D12*
X91582057Y-58692243D02*
X91596343Y-58706529D01*
X91639200Y-58720814D01*
X91667771Y-58720814D01*
X91710628Y-58706529D01*
X91739200Y-58677957D01*
X91753485Y-58649386D01*
X91767771Y-58592243D01*
X91767771Y-58549386D01*
X91753485Y-58492243D01*
X91739200Y-58463671D01*
X91710628Y-58435100D01*
X91667771Y-58420814D01*
X91639200Y-58420814D01*
X91596343Y-58435100D01*
X91582057Y-58449386D01*
X91296343Y-58720814D02*
X91467771Y-58720814D01*
X91382057Y-58720814D02*
X91382057Y-58420814D01*
X91410628Y-58463671D01*
X91439200Y-58492243D01*
X91467771Y-58506529D01*
X91110629Y-58420814D02*
X91082057Y-58420814D01*
X91053486Y-58435100D01*
X91039200Y-58449386D01*
X91024914Y-58477957D01*
X91010629Y-58535100D01*
X91010629Y-58606529D01*
X91024914Y-58663671D01*
X91039200Y-58692243D01*
X91053486Y-58706529D01*
X91082057Y-58720814D01*
X91110629Y-58720814D01*
X91139200Y-58706529D01*
X91153486Y-58692243D01*
X91167771Y-58663671D01*
X91182057Y-58606529D01*
X91182057Y-58535100D01*
X91167771Y-58477957D01*
X91153486Y-58449386D01*
X91139200Y-58435100D01*
X91110629Y-58420814D01*
D11*
X79805138Y-87944081D02*
X80376567Y-87944081D01*
X80090853Y-87944081D02*
X80090853Y-86944081D01*
X80186091Y-87086938D01*
X80281329Y-87182176D01*
X80376567Y-87229795D01*
X79186091Y-86944081D02*
X79090852Y-86944081D01*
X78995614Y-86991700D01*
X78947995Y-87039319D01*
X78900376Y-87134557D01*
X78852757Y-87325033D01*
X78852757Y-87563129D01*
X78900376Y-87753605D01*
X78947995Y-87848843D01*
X78995614Y-87896462D01*
X79090852Y-87944081D01*
X79186091Y-87944081D01*
X79281329Y-87896462D01*
X79328948Y-87848843D01*
X79376567Y-87753605D01*
X79424186Y-87563129D01*
X79424186Y-87325033D01*
X79376567Y-87134557D01*
X79328948Y-87039319D01*
X79281329Y-86991700D01*
X79186091Y-86944081D01*
X78424186Y-87944081D02*
X78424186Y-86944081D01*
X78328948Y-87563129D02*
X78043233Y-87944081D01*
X78043233Y-87277414D02*
X78424186Y-87658367D01*
D12*
X79276566Y-86172652D02*
X79409900Y-85982176D01*
X79505138Y-86172652D02*
X79505138Y-85772652D01*
X79352757Y-85772652D01*
X79314662Y-85791700D01*
X79295614Y-85810748D01*
X79276566Y-85848843D01*
X79276566Y-85905986D01*
X79295614Y-85944081D01*
X79314662Y-85963129D01*
X79352757Y-85982176D01*
X79505138Y-85982176D01*
X79124186Y-85810748D02*
X79105138Y-85791700D01*
X79067043Y-85772652D01*
X78971805Y-85772652D01*
X78933709Y-85791700D01*
X78914662Y-85810748D01*
X78895614Y-85848843D01*
X78895614Y-85886938D01*
X78914662Y-85944081D01*
X79143233Y-86172652D01*
X78895614Y-86172652D01*
D11*
X92073338Y-58492781D02*
X92644767Y-58492781D01*
X92359053Y-58492781D02*
X92359053Y-57492781D01*
X92454291Y-57635638D01*
X92549529Y-57730876D01*
X92644767Y-57778495D01*
X91454291Y-57492781D02*
X91359052Y-57492781D01*
X91263814Y-57540400D01*
X91216195Y-57588019D01*
X91168576Y-57683257D01*
X91120957Y-57873733D01*
X91120957Y-58111829D01*
X91168576Y-58302305D01*
X91216195Y-58397543D01*
X91263814Y-58445162D01*
X91359052Y-58492781D01*
X91454291Y-58492781D01*
X91549529Y-58445162D01*
X91597148Y-58397543D01*
X91644767Y-58302305D01*
X91692386Y-58111829D01*
X91692386Y-57873733D01*
X91644767Y-57683257D01*
X91597148Y-57588019D01*
X91549529Y-57540400D01*
X91454291Y-57492781D01*
X90692386Y-58492781D02*
X90692386Y-57492781D01*
X90597148Y-58111829D02*
X90311433Y-58492781D01*
X90311433Y-57826114D02*
X90692386Y-58207067D01*
D12*
X91544766Y-56721352D02*
X91678100Y-56530876D01*
X91773338Y-56721352D02*
X91773338Y-56321352D01*
X91620957Y-56321352D01*
X91582862Y-56340400D01*
X91563814Y-56359448D01*
X91544766Y-56397543D01*
X91544766Y-56454686D01*
X91563814Y-56492781D01*
X91582862Y-56511829D01*
X91620957Y-56530876D01*
X91773338Y-56530876D01*
X91411433Y-56321352D02*
X91163814Y-56321352D01*
X91297147Y-56473733D01*
X91240005Y-56473733D01*
X91201909Y-56492781D01*
X91182862Y-56511829D01*
X91163814Y-56549924D01*
X91163814Y-56645162D01*
X91182862Y-56683257D01*
X91201909Y-56702305D01*
X91240005Y-56721352D01*
X91354290Y-56721352D01*
X91392386Y-56702305D01*
X91411433Y-56683257D01*
D11*
X94298757Y-58352081D02*
X93632090Y-58352081D01*
X94060662Y-59352081D01*
X92822566Y-58685414D02*
X92822566Y-59352081D01*
X93060662Y-58304462D02*
X93298757Y-59018748D01*
X92679709Y-59018748D01*
X91822566Y-59352081D02*
X92298757Y-59352081D01*
X92298757Y-58352081D01*
X91536852Y-59304462D02*
X91393995Y-59352081D01*
X91155899Y-59352081D01*
X91060661Y-59304462D01*
X91013042Y-59256843D01*
X90965423Y-59161605D01*
X90965423Y-59066367D01*
X91013042Y-58971129D01*
X91060661Y-58923510D01*
X91155899Y-58875890D01*
X91346376Y-58828271D01*
X91441614Y-58780652D01*
X91489233Y-58733033D01*
X91536852Y-58637795D01*
X91536852Y-58542557D01*
X91489233Y-58447319D01*
X91441614Y-58399700D01*
X91346376Y-58352081D01*
X91108280Y-58352081D01*
X90965423Y-58399700D01*
X90013042Y-59352081D02*
X90584471Y-59352081D01*
X90298757Y-59352081D02*
X90298757Y-58352081D01*
X90393995Y-58494938D01*
X90489233Y-58590176D01*
X90584471Y-58637795D01*
X89060661Y-59352081D02*
X89632090Y-59352081D01*
X89346376Y-59352081D02*
X89346376Y-58352081D01*
X89441614Y-58494938D01*
X89536852Y-58590176D01*
X89632090Y-58637795D01*
D13*
X92341614Y-63781843D02*
X92341614Y-64510414D01*
X92298757Y-64596129D01*
X92255900Y-64638986D01*
X92170186Y-64681843D01*
X91998757Y-64681843D01*
X91913043Y-64638986D01*
X91870186Y-64596129D01*
X91827329Y-64510414D01*
X91827329Y-63781843D01*
X91013043Y-64081843D02*
X91013043Y-64681843D01*
X91227329Y-63738986D02*
X91441614Y-64381843D01*
X90884472Y-64381843D01*
D11*
X94311457Y-74354081D02*
X93644790Y-74354081D01*
X94073362Y-75354081D01*
X92835266Y-74687414D02*
X92835266Y-75354081D01*
X93073362Y-74306462D02*
X93311457Y-75020748D01*
X92692409Y-75020748D01*
X91835266Y-75354081D02*
X92311457Y-75354081D01*
X92311457Y-74354081D01*
X91549552Y-75306462D02*
X91406695Y-75354081D01*
X91168599Y-75354081D01*
X91073361Y-75306462D01*
X91025742Y-75258843D01*
X90978123Y-75163605D01*
X90978123Y-75068367D01*
X91025742Y-74973129D01*
X91073361Y-74925510D01*
X91168599Y-74877890D01*
X91359076Y-74830271D01*
X91454314Y-74782652D01*
X91501933Y-74735033D01*
X91549552Y-74639795D01*
X91549552Y-74544557D01*
X91501933Y-74449319D01*
X91454314Y-74401700D01*
X91359076Y-74354081D01*
X91120980Y-74354081D01*
X90978123Y-74401700D01*
X90644790Y-74354081D02*
X90025742Y-74354081D01*
X90359076Y-74735033D01*
X90216218Y-74735033D01*
X90120980Y-74782652D01*
X90073361Y-74830271D01*
X90025742Y-74925510D01*
X90025742Y-75163605D01*
X90073361Y-75258843D01*
X90120980Y-75306462D01*
X90216218Y-75354081D01*
X90501933Y-75354081D01*
X90597171Y-75306462D01*
X90644790Y-75258843D01*
X89644790Y-74449319D02*
X89597171Y-74401700D01*
X89501933Y-74354081D01*
X89263837Y-74354081D01*
X89168599Y-74401700D01*
X89120980Y-74449319D01*
X89073361Y-74544557D01*
X89073361Y-74639795D01*
X89120980Y-74782652D01*
X89692409Y-75354081D01*
X89073361Y-75354081D01*
D13*
X92354314Y-79783843D02*
X92354314Y-80512414D01*
X92311457Y-80598129D01*
X92268600Y-80640986D01*
X92182886Y-80683843D01*
X92011457Y-80683843D01*
X91925743Y-80640986D01*
X91882886Y-80598129D01*
X91840029Y-80512414D01*
X91840029Y-79783843D01*
X90982886Y-79783843D02*
X91411457Y-79783843D01*
X91454314Y-80212414D01*
X91411457Y-80169557D01*
X91325743Y-80126700D01*
X91111457Y-80126700D01*
X91025743Y-80169557D01*
X90982886Y-80212414D01*
X90940029Y-80298129D01*
X90940029Y-80512414D01*
X90982886Y-80598129D01*
X91025743Y-80640986D01*
X91111457Y-80683843D01*
X91325743Y-80683843D01*
X91411457Y-80640986D01*
X91454314Y-80598129D01*
D11*
X81992457Y-58395261D02*
X81325790Y-58395261D01*
X81754362Y-59395261D01*
X80516266Y-58728594D02*
X80516266Y-59395261D01*
X80754362Y-58347642D02*
X80992457Y-59061928D01*
X80373409Y-59061928D01*
X79516266Y-59395261D02*
X79992457Y-59395261D01*
X79992457Y-58395261D01*
X79230552Y-59347642D02*
X79087695Y-59395261D01*
X78849599Y-59395261D01*
X78754361Y-59347642D01*
X78706742Y-59300023D01*
X78659123Y-59204785D01*
X78659123Y-59109547D01*
X78706742Y-59014309D01*
X78754361Y-58966690D01*
X78849599Y-58919070D01*
X79040076Y-58871451D01*
X79135314Y-58823832D01*
X79182933Y-58776213D01*
X79230552Y-58680975D01*
X79230552Y-58585737D01*
X79182933Y-58490499D01*
X79135314Y-58442880D01*
X79040076Y-58395261D01*
X78801980Y-58395261D01*
X78659123Y-58442880D01*
X78325790Y-58395261D02*
X77706742Y-58395261D01*
X78040076Y-58776213D01*
X77897218Y-58776213D01*
X77801980Y-58823832D01*
X77754361Y-58871451D01*
X77706742Y-58966690D01*
X77706742Y-59204785D01*
X77754361Y-59300023D01*
X77801980Y-59347642D01*
X77897218Y-59395261D01*
X78182933Y-59395261D01*
X78278171Y-59347642D01*
X78325790Y-59300023D01*
X77325790Y-58490499D02*
X77278171Y-58442880D01*
X77182933Y-58395261D01*
X76944837Y-58395261D01*
X76849599Y-58442880D01*
X76801980Y-58490499D01*
X76754361Y-58585737D01*
X76754361Y-58680975D01*
X76801980Y-58823832D01*
X77373409Y-59395261D01*
X76754361Y-59395261D01*
D13*
X80035314Y-63825023D02*
X80035314Y-64553594D01*
X79992457Y-64639309D01*
X79949600Y-64682166D01*
X79863886Y-64725023D01*
X79692457Y-64725023D01*
X79606743Y-64682166D01*
X79563886Y-64639309D01*
X79521029Y-64553594D01*
X79521029Y-63825023D01*
X78706743Y-63825023D02*
X78878172Y-63825023D01*
X78963886Y-63867880D01*
X79006743Y-63910737D01*
X79092457Y-64039309D01*
X79135314Y-64210737D01*
X79135314Y-64553594D01*
X79092457Y-64639309D01*
X79049600Y-64682166D01*
X78963886Y-64725023D01*
X78792457Y-64725023D01*
X78706743Y-64682166D01*
X78663886Y-64639309D01*
X78621029Y-64553594D01*
X78621029Y-64339309D01*
X78663886Y-64253594D01*
X78706743Y-64210737D01*
X78792457Y-64167880D01*
X78963886Y-64167880D01*
X79049600Y-64210737D01*
X79092457Y-64253594D01*
X79135314Y-64339309D01*
D11*
X81982297Y-74361701D02*
X81315630Y-74361701D01*
X81744202Y-75361701D01*
X80506106Y-74695034D02*
X80506106Y-75361701D01*
X80744202Y-74314082D02*
X80982297Y-75028368D01*
X80363249Y-75028368D01*
X79506106Y-75361701D02*
X79982297Y-75361701D01*
X79982297Y-74361701D01*
X79220392Y-75314082D02*
X79077535Y-75361701D01*
X78839439Y-75361701D01*
X78744201Y-75314082D01*
X78696582Y-75266463D01*
X78648963Y-75171225D01*
X78648963Y-75075987D01*
X78696582Y-74980749D01*
X78744201Y-74933130D01*
X78839439Y-74885510D01*
X79029916Y-74837891D01*
X79125154Y-74790272D01*
X79172773Y-74742653D01*
X79220392Y-74647415D01*
X79220392Y-74552177D01*
X79172773Y-74456939D01*
X79125154Y-74409320D01*
X79029916Y-74361701D01*
X78791820Y-74361701D01*
X78648963Y-74409320D01*
X78268011Y-74456939D02*
X78220392Y-74409320D01*
X78125154Y-74361701D01*
X77887058Y-74361701D01*
X77791820Y-74409320D01*
X77744201Y-74456939D01*
X77696582Y-74552177D01*
X77696582Y-74647415D01*
X77744201Y-74790272D01*
X78315630Y-75361701D01*
X77696582Y-75361701D01*
X77077535Y-74361701D02*
X76982296Y-74361701D01*
X76887058Y-74409320D01*
X76839439Y-74456939D01*
X76791820Y-74552177D01*
X76744201Y-74742653D01*
X76744201Y-74980749D01*
X76791820Y-75171225D01*
X76839439Y-75266463D01*
X76887058Y-75314082D01*
X76982296Y-75361701D01*
X77077535Y-75361701D01*
X77172773Y-75314082D01*
X77220392Y-75266463D01*
X77268011Y-75171225D01*
X77315630Y-74980749D01*
X77315630Y-74742653D01*
X77268011Y-74552177D01*
X77220392Y-74456939D01*
X77172773Y-74409320D01*
X77077535Y-74361701D01*
D13*
X80025154Y-79791463D02*
X80025154Y-80520034D01*
X79982297Y-80605749D01*
X79939440Y-80648606D01*
X79853726Y-80691463D01*
X79682297Y-80691463D01*
X79596583Y-80648606D01*
X79553726Y-80605749D01*
X79510869Y-80520034D01*
X79510869Y-79791463D01*
X79168012Y-79791463D02*
X78568012Y-79791463D01*
X78953726Y-80691463D01*
M02*
