G04 #@! TF.FileFunction,Other,User*
%FSLAX46Y46*%
G04 Gerber Fmt 4.6, Leading zero omitted, Abs format (unit mm)*
G04 Created by KiCad (PCBNEW 4.0.7) date 07/31/18 16:17:15*
%MOMM*%
%LPD*%
G01*
G04 APERTURE LIST*
%ADD10C,0.100000*%
%ADD11C,0.050000*%
G04 APERTURE END LIST*
D10*
D11*
X107480300Y-62535400D02*
X161480300Y-62535400D01*
X161480300Y-62535400D02*
X161480300Y-44185400D01*
X161480300Y-44185400D02*
X107480300Y-44185400D01*
X107480300Y-44185400D02*
X107480300Y-62535400D01*
X55768000Y-52028900D02*
X55768000Y-54828900D01*
X55768000Y-52028900D02*
X54468000Y-52028900D01*
X54468000Y-54828900D02*
X55768000Y-54828900D01*
X54468000Y-54828900D02*
X54468000Y-52028900D01*
X52618400Y-44891500D02*
X52618400Y-47691500D01*
X52618400Y-44891500D02*
X51318400Y-44891500D01*
X51318400Y-47691500D02*
X52618400Y-47691500D01*
X51318400Y-47691500D02*
X51318400Y-44891500D01*
X64920100Y-47729600D02*
X64920100Y-44929600D01*
X64920100Y-47729600D02*
X66220100Y-47729600D01*
X66220100Y-44929600D02*
X64920100Y-44929600D01*
X66220100Y-44929600D02*
X66220100Y-47729600D01*
X82895180Y-78107400D02*
X76195180Y-78107400D01*
X82895180Y-78107400D02*
X82895180Y-73337400D01*
X76195180Y-73337400D02*
X76195180Y-78107400D01*
X76195180Y-73337400D02*
X82895180Y-73337400D01*
X162570400Y-55006700D02*
X162570400Y-52206700D01*
X162570400Y-55006700D02*
X163870400Y-55006700D01*
X163870400Y-52206700D02*
X162570400Y-52206700D01*
X163870400Y-52206700D02*
X163870400Y-55006700D01*
X119659640Y-80693720D02*
X119659640Y-77893720D01*
X119659640Y-80693720D02*
X120959640Y-80693720D01*
X120959640Y-77893720D02*
X119659640Y-77893720D01*
X120959640Y-77893720D02*
X120959640Y-80693720D01*
X103754160Y-56467200D02*
X103754160Y-53667200D01*
X103754160Y-56467200D02*
X105054160Y-56467200D01*
X105054160Y-53667200D02*
X103754160Y-53667200D01*
X105054160Y-53667200D02*
X105054160Y-56467200D01*
X48739700Y-51123200D02*
X53139700Y-51123200D01*
X53139700Y-51123200D02*
X53139700Y-53423200D01*
X53139700Y-53423200D02*
X48739700Y-53423200D01*
X48739700Y-51123200D02*
X48739700Y-53423200D01*
X69955000Y-47862900D02*
X81155000Y-47862900D01*
X81155000Y-47862900D02*
X81155000Y-44262900D01*
X81155000Y-44262900D02*
X69955000Y-44262900D01*
X69955000Y-44262900D02*
X69955000Y-47862900D01*
X49689700Y-54595800D02*
X52189700Y-54595800D01*
X49689700Y-54595800D02*
X49689700Y-55995800D01*
X52189700Y-55995800D02*
X52189700Y-54595800D01*
X52189700Y-55995800D02*
X49689700Y-55995800D01*
X64788600Y-49129600D02*
X64788600Y-43529600D01*
X64788600Y-43529600D02*
X52688600Y-43529600D01*
X52688600Y-43529600D02*
X52688600Y-49129600D01*
X52688600Y-49129600D02*
X64788600Y-49129600D01*
X58470620Y-54368100D02*
X58470620Y-90468100D01*
X58470620Y-90468100D02*
X68270620Y-90468100D01*
X68270620Y-90468100D02*
X68270620Y-54368100D01*
X68270620Y-54368100D02*
X58470620Y-54368100D01*
X61411100Y-99673600D02*
X152711100Y-99673600D01*
X61411100Y-99673600D02*
X61411100Y-109773600D01*
X152711100Y-109773600D02*
X152711100Y-99673600D01*
X152711100Y-109773600D02*
X61411100Y-109773600D01*
X123575700Y-86503200D02*
X145435700Y-86503200D01*
X123575700Y-71383200D02*
X145435700Y-71383200D01*
X123575700Y-86503200D02*
X123575700Y-71383200D01*
X145435700Y-86503200D02*
X145435700Y-71383200D01*
X135550000Y-41080000D02*
X144200000Y-41080000D01*
X144200000Y-41080000D02*
X144200000Y-34930000D01*
X144200000Y-34930000D02*
X135550000Y-34930000D01*
X135550000Y-34930000D02*
X135550000Y-41080000D01*
X110260000Y-70329880D02*
G75*
G03X110260000Y-70329880I-3250000J0D01*
G01*
M02*
