G04 #@! TF.FileFunction,Legend,Top*
%FSLAX46Y46*%
G04 Gerber Fmt 4.6, Leading zero omitted, Abs format (unit mm)*
G04 Created by KiCad (PCBNEW 4.0.7) date 07/15/18 21:19:50*
%MOMM*%
%LPD*%
G01*
G04 APERTURE LIST*
%ADD10C,0.100000*%
%ADD11C,0.300000*%
%ADD12C,0.120000*%
%ADD13C,0.150000*%
G04 APERTURE END LIST*
D10*
D11*
X73877443Y-80595071D02*
X73877443Y-79095071D01*
X74448871Y-79095071D01*
X74591729Y-79166500D01*
X74663157Y-79237929D01*
X74734586Y-79380786D01*
X74734586Y-79595071D01*
X74663157Y-79737929D01*
X74591729Y-79809357D01*
X74448871Y-79880786D01*
X73877443Y-79880786D01*
X75377443Y-80595071D02*
X75377443Y-79095071D01*
X75734586Y-79095071D01*
X75948871Y-79166500D01*
X76091729Y-79309357D01*
X76163157Y-79452214D01*
X76234586Y-79737929D01*
X76234586Y-79952214D01*
X76163157Y-80237929D01*
X76091729Y-80380786D01*
X75948871Y-80523643D01*
X75734586Y-80595071D01*
X75377443Y-80595071D01*
X77163157Y-79095071D02*
X77306014Y-79095071D01*
X77448871Y-79166500D01*
X77520300Y-79237929D01*
X77591729Y-79380786D01*
X77663157Y-79666500D01*
X77663157Y-80023643D01*
X77591729Y-80309357D01*
X77520300Y-80452214D01*
X77448871Y-80523643D01*
X77306014Y-80595071D01*
X77163157Y-80595071D01*
X77020300Y-80523643D01*
X76948871Y-80452214D01*
X76877443Y-80309357D01*
X76806014Y-80023643D01*
X76806014Y-79666500D01*
X76877443Y-79380786D01*
X76948871Y-79237929D01*
X77020300Y-79166500D01*
X77163157Y-79095071D01*
X78306014Y-80023643D02*
X79448871Y-80023643D01*
X80163157Y-80595071D02*
X80163157Y-79095071D01*
X80734585Y-79095071D01*
X80877443Y-79166500D01*
X80948871Y-79237929D01*
X81020300Y-79380786D01*
X81020300Y-79595071D01*
X80948871Y-79737929D01*
X80877443Y-79809357D01*
X80734585Y-79880786D01*
X80163157Y-79880786D01*
X81663157Y-80595071D02*
X81663157Y-79095071D01*
X82020300Y-79095071D01*
X82234585Y-79166500D01*
X82377443Y-79309357D01*
X82448871Y-79452214D01*
X82520300Y-79737929D01*
X82520300Y-79952214D01*
X82448871Y-80237929D01*
X82377443Y-80380786D01*
X82234585Y-80523643D01*
X82020300Y-80595071D01*
X81663157Y-80595071D01*
X83877443Y-79095071D02*
X83163157Y-79095071D01*
X83091728Y-79809357D01*
X83163157Y-79737929D01*
X83306014Y-79666500D01*
X83663157Y-79666500D01*
X83806014Y-79737929D01*
X83877443Y-79809357D01*
X83948871Y-79952214D01*
X83948871Y-80309357D01*
X83877443Y-80452214D01*
X83806014Y-80523643D01*
X83663157Y-80595071D01*
X83306014Y-80595071D01*
X83163157Y-80523643D01*
X83091728Y-80452214D01*
X75020300Y-82359357D02*
X76163157Y-82359357D01*
X76163157Y-82787929D02*
X75020300Y-82787929D01*
X77948871Y-83073643D02*
X78091728Y-83145071D01*
X78377443Y-83145071D01*
X78520300Y-83073643D01*
X78591728Y-82930786D01*
X78591728Y-82859357D01*
X78520300Y-82716500D01*
X78377443Y-82645071D01*
X78163157Y-82645071D01*
X78020300Y-82573643D01*
X77948871Y-82430786D01*
X77948871Y-82359357D01*
X78020300Y-82216500D01*
X78163157Y-82145071D01*
X78377443Y-82145071D01*
X78520300Y-82216500D01*
X79806014Y-83073643D02*
X79663157Y-83145071D01*
X79377443Y-83145071D01*
X79234586Y-83073643D01*
X79163157Y-82930786D01*
X79163157Y-82359357D01*
X79234586Y-82216500D01*
X79377443Y-82145071D01*
X79663157Y-82145071D01*
X79806014Y-82216500D01*
X79877443Y-82359357D01*
X79877443Y-82502214D01*
X79163157Y-82645071D01*
X80734586Y-83145071D02*
X80591728Y-83073643D01*
X80520300Y-82930786D01*
X80520300Y-81645071D01*
X81877442Y-83073643D02*
X81734585Y-83145071D01*
X81448871Y-83145071D01*
X81306014Y-83073643D01*
X81234585Y-82930786D01*
X81234585Y-82359357D01*
X81306014Y-82216500D01*
X81448871Y-82145071D01*
X81734585Y-82145071D01*
X81877442Y-82216500D01*
X81948871Y-82359357D01*
X81948871Y-82502214D01*
X81234585Y-82645071D01*
X83234585Y-83073643D02*
X83091728Y-83145071D01*
X82806014Y-83145071D01*
X82663156Y-83073643D01*
X82591728Y-83002214D01*
X82520299Y-82859357D01*
X82520299Y-82430786D01*
X82591728Y-82287929D01*
X82663156Y-82216500D01*
X82806014Y-82145071D01*
X83091728Y-82145071D01*
X83234585Y-82216500D01*
X83663156Y-82145071D02*
X84234585Y-82145071D01*
X83877442Y-81645071D02*
X83877442Y-82930786D01*
X83948870Y-83073643D01*
X84091728Y-83145071D01*
X84234585Y-83145071D01*
X86734585Y-83145071D02*
X86234585Y-82430786D01*
X85877442Y-83145071D02*
X85877442Y-81645071D01*
X86448870Y-81645071D01*
X86591728Y-81716500D01*
X86663156Y-81787929D01*
X86734585Y-81930786D01*
X86734585Y-82145071D01*
X86663156Y-82287929D01*
X86591728Y-82359357D01*
X86448870Y-82430786D01*
X85877442Y-82430786D01*
X87663156Y-81645071D02*
X87948870Y-81645071D01*
X88091728Y-81716500D01*
X88234585Y-81859357D01*
X88306013Y-82145071D01*
X88306013Y-82645071D01*
X88234585Y-82930786D01*
X88091728Y-83073643D01*
X87948870Y-83145071D01*
X87663156Y-83145071D01*
X87520299Y-83073643D01*
X87377442Y-82930786D01*
X87306013Y-82645071D01*
X87306013Y-82145071D01*
X87377442Y-81859357D01*
X87520299Y-81716500D01*
X87663156Y-81645071D01*
X88948871Y-83145071D02*
X88948871Y-81645071D01*
X89448871Y-82716500D01*
X89948871Y-81645071D01*
X89948871Y-83145071D01*
X91806014Y-83145071D02*
X91806014Y-81645071D01*
X91806014Y-82216500D02*
X91948871Y-82145071D01*
X92234585Y-82145071D01*
X92377442Y-82216500D01*
X92448871Y-82287929D01*
X92520300Y-82430786D01*
X92520300Y-82859357D01*
X92448871Y-83002214D01*
X92377442Y-83073643D01*
X92234585Y-83145071D01*
X91948871Y-83145071D01*
X91806014Y-83073643D01*
X93377443Y-83145071D02*
X93234585Y-83073643D01*
X93163157Y-82930786D01*
X93163157Y-81645071D01*
X94163157Y-83145071D02*
X94020299Y-83073643D01*
X93948871Y-83002214D01*
X93877442Y-82859357D01*
X93877442Y-82430786D01*
X93948871Y-82287929D01*
X94020299Y-82216500D01*
X94163157Y-82145071D01*
X94377442Y-82145071D01*
X94520299Y-82216500D01*
X94591728Y-82287929D01*
X94663157Y-82430786D01*
X94663157Y-82859357D01*
X94591728Y-83002214D01*
X94520299Y-83073643D01*
X94377442Y-83145071D01*
X94163157Y-83145071D01*
X95948871Y-83073643D02*
X95806014Y-83145071D01*
X95520300Y-83145071D01*
X95377442Y-83073643D01*
X95306014Y-83002214D01*
X95234585Y-82859357D01*
X95234585Y-82430786D01*
X95306014Y-82287929D01*
X95377442Y-82216500D01*
X95520300Y-82145071D01*
X95806014Y-82145071D01*
X95948871Y-82216500D01*
X96591728Y-83145071D02*
X96591728Y-81645071D01*
X96734585Y-82573643D02*
X97163156Y-83145071D01*
X97163156Y-82145071D02*
X96591728Y-82716500D01*
X98877442Y-83073643D02*
X99020299Y-83145071D01*
X99306014Y-83145071D01*
X99448871Y-83073643D01*
X99520299Y-82930786D01*
X99520299Y-82859357D01*
X99448871Y-82716500D01*
X99306014Y-82645071D01*
X99091728Y-82645071D01*
X98948871Y-82573643D01*
X98877442Y-82430786D01*
X98877442Y-82359357D01*
X98948871Y-82216500D01*
X99091728Y-82145071D01*
X99306014Y-82145071D01*
X99448871Y-82216500D01*
X100734585Y-83073643D02*
X100591728Y-83145071D01*
X100306014Y-83145071D01*
X100163157Y-83073643D01*
X100091728Y-82930786D01*
X100091728Y-82359357D01*
X100163157Y-82216500D01*
X100306014Y-82145071D01*
X100591728Y-82145071D01*
X100734585Y-82216500D01*
X100806014Y-82359357D01*
X100806014Y-82502214D01*
X100091728Y-82645071D01*
X101234585Y-82145071D02*
X101806014Y-82145071D01*
X101448871Y-81645071D02*
X101448871Y-82930786D01*
X101520299Y-83073643D01*
X101663157Y-83145071D01*
X101806014Y-83145071D01*
X78377442Y-84695071D02*
X79448871Y-84695071D01*
X78806014Y-84052214D02*
X78377442Y-85980786D01*
X79306014Y-85337929D02*
X78234585Y-85337929D01*
X78877442Y-85980786D02*
X79306014Y-84052214D01*
X80234585Y-84195071D02*
X80377442Y-84195071D01*
X80520299Y-84266500D01*
X80591728Y-84337929D01*
X80663157Y-84480786D01*
X80734585Y-84766500D01*
X80734585Y-85123643D01*
X80663157Y-85409357D01*
X80591728Y-85552214D01*
X80520299Y-85623643D01*
X80377442Y-85695071D01*
X80234585Y-85695071D01*
X80091728Y-85623643D01*
X80020299Y-85552214D01*
X79948871Y-85409357D01*
X79877442Y-85123643D01*
X79877442Y-84766500D01*
X79948871Y-84480786D01*
X80020299Y-84337929D01*
X80091728Y-84266500D01*
X80234585Y-84195071D01*
X81377442Y-85123643D02*
X82520299Y-85123643D01*
X83877442Y-84195071D02*
X83591728Y-84195071D01*
X83448871Y-84266500D01*
X83377442Y-84337929D01*
X83234585Y-84552214D01*
X83163156Y-84837929D01*
X83163156Y-85409357D01*
X83234585Y-85552214D01*
X83306013Y-85623643D01*
X83448871Y-85695071D01*
X83734585Y-85695071D01*
X83877442Y-85623643D01*
X83948871Y-85552214D01*
X84020299Y-85409357D01*
X84020299Y-85052214D01*
X83948871Y-84909357D01*
X83877442Y-84837929D01*
X83734585Y-84766500D01*
X83448871Y-84766500D01*
X83306013Y-84837929D01*
X83234585Y-84909357D01*
X83163156Y-85052214D01*
X84520299Y-84195071D02*
X85448870Y-84195071D01*
X84948870Y-84766500D01*
X85163156Y-84766500D01*
X85306013Y-84837929D01*
X85377442Y-84909357D01*
X85448870Y-85052214D01*
X85448870Y-85409357D01*
X85377442Y-85552214D01*
X85306013Y-85623643D01*
X85163156Y-85695071D01*
X84734584Y-85695071D01*
X84591727Y-85623643D01*
X84520299Y-85552214D01*
X73877443Y-88245071D02*
X73877443Y-86745071D01*
X74448871Y-86745071D01*
X74591729Y-86816500D01*
X74663157Y-86887929D01*
X74734586Y-87030786D01*
X74734586Y-87245071D01*
X74663157Y-87387929D01*
X74591729Y-87459357D01*
X74448871Y-87530786D01*
X73877443Y-87530786D01*
X76234586Y-88102214D02*
X76163157Y-88173643D01*
X75948871Y-88245071D01*
X75806014Y-88245071D01*
X75591729Y-88173643D01*
X75448871Y-88030786D01*
X75377443Y-87887929D01*
X75306014Y-87602214D01*
X75306014Y-87387929D01*
X75377443Y-87102214D01*
X75448871Y-86959357D01*
X75591729Y-86816500D01*
X75806014Y-86745071D01*
X75948871Y-86745071D01*
X76163157Y-86816500D01*
X76234586Y-86887929D01*
X76734586Y-86745071D02*
X77663157Y-86745071D01*
X77163157Y-87316500D01*
X77377443Y-87316500D01*
X77520300Y-87387929D01*
X77591729Y-87459357D01*
X77663157Y-87602214D01*
X77663157Y-87959357D01*
X77591729Y-88102214D01*
X77520300Y-88173643D01*
X77377443Y-88245071D01*
X76948871Y-88245071D01*
X76806014Y-88173643D01*
X76734586Y-88102214D01*
X78377442Y-88173643D02*
X78377442Y-88245071D01*
X78306014Y-88387929D01*
X78234585Y-88459357D01*
X79020300Y-88245071D02*
X79020300Y-86745071D01*
X79591728Y-86745071D01*
X79734586Y-86816500D01*
X79806014Y-86887929D01*
X79877443Y-87030786D01*
X79877443Y-87245071D01*
X79806014Y-87387929D01*
X79734586Y-87459357D01*
X79591728Y-87530786D01*
X79020300Y-87530786D01*
X80520300Y-88245071D02*
X80520300Y-86745071D01*
X80877443Y-86745071D01*
X81091728Y-86816500D01*
X81234586Y-86959357D01*
X81306014Y-87102214D01*
X81377443Y-87387929D01*
X81377443Y-87602214D01*
X81306014Y-87887929D01*
X81234586Y-88030786D01*
X81091728Y-88173643D01*
X80877443Y-88245071D01*
X80520300Y-88245071D01*
X82663157Y-86745071D02*
X82377443Y-86745071D01*
X82234586Y-86816500D01*
X82163157Y-86887929D01*
X82020300Y-87102214D01*
X81948871Y-87387929D01*
X81948871Y-87959357D01*
X82020300Y-88102214D01*
X82091728Y-88173643D01*
X82234586Y-88245071D01*
X82520300Y-88245071D01*
X82663157Y-88173643D01*
X82734586Y-88102214D01*
X82806014Y-87959357D01*
X82806014Y-87602214D01*
X82734586Y-87459357D01*
X82663157Y-87387929D01*
X82520300Y-87316500D01*
X82234586Y-87316500D01*
X82091728Y-87387929D01*
X82020300Y-87459357D01*
X81948871Y-87602214D01*
X83520299Y-88173643D02*
X83520299Y-88245071D01*
X83448871Y-88387929D01*
X83377442Y-88459357D01*
X84163157Y-88245071D02*
X84163157Y-86745071D01*
X84734585Y-86745071D01*
X84877443Y-86816500D01*
X84948871Y-86887929D01*
X85020300Y-87030786D01*
X85020300Y-87245071D01*
X84948871Y-87387929D01*
X84877443Y-87459357D01*
X84734585Y-87530786D01*
X84163157Y-87530786D01*
X85663157Y-88245071D02*
X85663157Y-86745071D01*
X86020300Y-86745071D01*
X86234585Y-86816500D01*
X86377443Y-86959357D01*
X86448871Y-87102214D01*
X86520300Y-87387929D01*
X86520300Y-87602214D01*
X86448871Y-87887929D01*
X86377443Y-88030786D01*
X86234585Y-88173643D01*
X86020300Y-88245071D01*
X85663157Y-88245071D01*
X87020300Y-86745071D02*
X88020300Y-86745071D01*
X87377443Y-88245071D01*
X90163156Y-88816500D02*
X90091728Y-88745071D01*
X89948871Y-88530786D01*
X89877442Y-88387929D01*
X89806013Y-88173643D01*
X89734585Y-87816500D01*
X89734585Y-87530786D01*
X89806013Y-87173643D01*
X89877442Y-86959357D01*
X89948871Y-86816500D01*
X90091728Y-86602214D01*
X90163156Y-86530786D01*
X91377442Y-88245071D02*
X91377442Y-87459357D01*
X91306013Y-87316500D01*
X91163156Y-87245071D01*
X90877442Y-87245071D01*
X90734585Y-87316500D01*
X91377442Y-88173643D02*
X91234585Y-88245071D01*
X90877442Y-88245071D01*
X90734585Y-88173643D01*
X90663156Y-88030786D01*
X90663156Y-87887929D01*
X90734585Y-87745071D01*
X90877442Y-87673643D01*
X91234585Y-87673643D01*
X91377442Y-87602214D01*
X92734585Y-88173643D02*
X92591728Y-88245071D01*
X92306014Y-88245071D01*
X92163156Y-88173643D01*
X92091728Y-88102214D01*
X92020299Y-87959357D01*
X92020299Y-87530786D01*
X92091728Y-87387929D01*
X92163156Y-87316500D01*
X92306014Y-87245071D01*
X92591728Y-87245071D01*
X92734585Y-87316500D01*
X93163156Y-87245071D02*
X93734585Y-87245071D01*
X93377442Y-86745071D02*
X93377442Y-88030786D01*
X93448870Y-88173643D01*
X93591728Y-88245071D01*
X93734585Y-88245071D01*
X94234585Y-88245071D02*
X94234585Y-87245071D01*
X94234585Y-86745071D02*
X94163156Y-86816500D01*
X94234585Y-86887929D01*
X94306013Y-86816500D01*
X94234585Y-86745071D01*
X94234585Y-86887929D01*
X94806014Y-87245071D02*
X95163157Y-88245071D01*
X95520299Y-87245071D01*
X96663156Y-88173643D02*
X96520299Y-88245071D01*
X96234585Y-88245071D01*
X96091728Y-88173643D01*
X96020299Y-88030786D01*
X96020299Y-87459357D01*
X96091728Y-87316500D01*
X96234585Y-87245071D01*
X96520299Y-87245071D01*
X96663156Y-87316500D01*
X96734585Y-87459357D01*
X96734585Y-87602214D01*
X96020299Y-87745071D01*
X98734585Y-88245071D02*
X98591727Y-88173643D01*
X98520299Y-88030786D01*
X98520299Y-86745071D01*
X99520299Y-88245071D02*
X99377441Y-88173643D01*
X99306013Y-88102214D01*
X99234584Y-87959357D01*
X99234584Y-87530786D01*
X99306013Y-87387929D01*
X99377441Y-87316500D01*
X99520299Y-87245071D01*
X99734584Y-87245071D01*
X99877441Y-87316500D01*
X99948870Y-87387929D01*
X100020299Y-87530786D01*
X100020299Y-87959357D01*
X99948870Y-88102214D01*
X99877441Y-88173643D01*
X99734584Y-88245071D01*
X99520299Y-88245071D01*
X100520299Y-87245071D02*
X100806013Y-88245071D01*
X101091727Y-87530786D01*
X101377442Y-88245071D01*
X101663156Y-87245071D01*
X102091728Y-88816500D02*
X102163156Y-88745071D01*
X102306013Y-88530786D01*
X102377442Y-88387929D01*
X102448871Y-88173643D01*
X102520299Y-87816500D01*
X102520299Y-87530786D01*
X102448871Y-87173643D01*
X102377442Y-86959357D01*
X102306013Y-86816500D01*
X102163156Y-86602214D01*
X102091728Y-86530786D01*
X75020300Y-90009357D02*
X76163157Y-90009357D01*
X76163157Y-90437929D02*
X75020300Y-90437929D01*
X78020300Y-90795071D02*
X78020300Y-89295071D01*
X78020300Y-89866500D02*
X78163157Y-89795071D01*
X78448871Y-89795071D01*
X78591728Y-89866500D01*
X78663157Y-89937929D01*
X78734586Y-90080786D01*
X78734586Y-90509357D01*
X78663157Y-90652214D01*
X78591728Y-90723643D01*
X78448871Y-90795071D01*
X78163157Y-90795071D01*
X78020300Y-90723643D01*
X80020300Y-89795071D02*
X80020300Y-90795071D01*
X79377443Y-89795071D02*
X79377443Y-90580786D01*
X79448871Y-90723643D01*
X79591729Y-90795071D01*
X79806014Y-90795071D01*
X79948871Y-90723643D01*
X80020300Y-90652214D01*
X80520300Y-89795071D02*
X81091729Y-89795071D01*
X80734586Y-89295071D02*
X80734586Y-90580786D01*
X80806014Y-90723643D01*
X80948872Y-90795071D01*
X81091729Y-90795071D01*
X81377443Y-89795071D02*
X81948872Y-89795071D01*
X81591729Y-89295071D02*
X81591729Y-90580786D01*
X81663157Y-90723643D01*
X81806015Y-90795071D01*
X81948872Y-90795071D01*
X82663158Y-90795071D02*
X82520300Y-90723643D01*
X82448872Y-90652214D01*
X82377443Y-90509357D01*
X82377443Y-90080786D01*
X82448872Y-89937929D01*
X82520300Y-89866500D01*
X82663158Y-89795071D01*
X82877443Y-89795071D01*
X83020300Y-89866500D01*
X83091729Y-89937929D01*
X83163158Y-90080786D01*
X83163158Y-90509357D01*
X83091729Y-90652214D01*
X83020300Y-90723643D01*
X82877443Y-90795071D01*
X82663158Y-90795071D01*
X83806015Y-89795071D02*
X83806015Y-90795071D01*
X83806015Y-89937929D02*
X83877443Y-89866500D01*
X84020301Y-89795071D01*
X84234586Y-89795071D01*
X84377443Y-89866500D01*
X84448872Y-90009357D01*
X84448872Y-90795071D01*
X85091729Y-90723643D02*
X85234586Y-90795071D01*
X85520301Y-90795071D01*
X85663158Y-90723643D01*
X85734586Y-90580786D01*
X85734586Y-90509357D01*
X85663158Y-90366500D01*
X85520301Y-90295071D01*
X85306015Y-90295071D01*
X85163158Y-90223643D01*
X85091729Y-90080786D01*
X85091729Y-90009357D01*
X85163158Y-89866500D01*
X85306015Y-89795071D01*
X85520301Y-89795071D01*
X85663158Y-89866500D01*
X74377443Y-92559357D02*
X73877443Y-92559357D01*
X73877443Y-93345071D02*
X73877443Y-91845071D01*
X74591729Y-91845071D01*
X75163157Y-93345071D02*
X75163157Y-92345071D01*
X75163157Y-91845071D02*
X75091728Y-91916500D01*
X75163157Y-91987929D01*
X75234585Y-91916500D01*
X75163157Y-91845071D01*
X75163157Y-91987929D01*
X76091729Y-93345071D02*
X75948871Y-93273643D01*
X75877443Y-93130786D01*
X75877443Y-91845071D01*
X76877443Y-93345071D02*
X76734585Y-93273643D01*
X76663157Y-93130786D01*
X76663157Y-91845071D01*
X79448871Y-93345071D02*
X78948871Y-92630786D01*
X78591728Y-93345071D02*
X78591728Y-91845071D01*
X79163156Y-91845071D01*
X79306014Y-91916500D01*
X79377442Y-91987929D01*
X79448871Y-92130786D01*
X79448871Y-92345071D01*
X79377442Y-92487929D01*
X79306014Y-92559357D01*
X79163156Y-92630786D01*
X78591728Y-92630786D01*
X80377442Y-91845071D02*
X80663156Y-91845071D01*
X80806014Y-91916500D01*
X80948871Y-92059357D01*
X81020299Y-92345071D01*
X81020299Y-92845071D01*
X80948871Y-93130786D01*
X80806014Y-93273643D01*
X80663156Y-93345071D01*
X80377442Y-93345071D01*
X80234585Y-93273643D01*
X80091728Y-93130786D01*
X80020299Y-92845071D01*
X80020299Y-92345071D01*
X80091728Y-92059357D01*
X80234585Y-91916500D01*
X80377442Y-91845071D01*
X81663157Y-93345071D02*
X81663157Y-91845071D01*
X82163157Y-92916500D01*
X82663157Y-91845071D01*
X82663157Y-93345071D01*
X84377443Y-92345071D02*
X84663157Y-93345071D01*
X84948871Y-92630786D01*
X85234586Y-93345071D01*
X85520300Y-92345071D01*
X86091729Y-93345071D02*
X86091729Y-92345071D01*
X86091729Y-91845071D02*
X86020300Y-91916500D01*
X86091729Y-91987929D01*
X86163157Y-91916500D01*
X86091729Y-91845071D01*
X86091729Y-91987929D01*
X86591729Y-92345071D02*
X87163158Y-92345071D01*
X86806015Y-91845071D02*
X86806015Y-93130786D01*
X86877443Y-93273643D01*
X87020301Y-93345071D01*
X87163158Y-93345071D01*
X87663158Y-93345071D02*
X87663158Y-91845071D01*
X88306015Y-93345071D02*
X88306015Y-92559357D01*
X88234586Y-92416500D01*
X88091729Y-92345071D01*
X87877444Y-92345071D01*
X87734586Y-92416500D01*
X87663158Y-92487929D01*
X90806015Y-91845071D02*
X90520301Y-91845071D01*
X90377444Y-91916500D01*
X90306015Y-91987929D01*
X90163158Y-92202214D01*
X90091729Y-92487929D01*
X90091729Y-93059357D01*
X90163158Y-93202214D01*
X90234586Y-93273643D01*
X90377444Y-93345071D01*
X90663158Y-93345071D01*
X90806015Y-93273643D01*
X90877444Y-93202214D01*
X90948872Y-93059357D01*
X90948872Y-92702214D01*
X90877444Y-92559357D01*
X90806015Y-92487929D01*
X90663158Y-92416500D01*
X90377444Y-92416500D01*
X90234586Y-92487929D01*
X90163158Y-92559357D01*
X90091729Y-92702214D01*
X92234586Y-92345071D02*
X92234586Y-93345071D01*
X91877443Y-91773643D02*
X91520300Y-92845071D01*
X92448872Y-92845071D01*
X94091728Y-93273643D02*
X94234585Y-93345071D01*
X94520300Y-93345071D01*
X94663157Y-93273643D01*
X94734585Y-93130786D01*
X94734585Y-93059357D01*
X94663157Y-92916500D01*
X94520300Y-92845071D01*
X94306014Y-92845071D01*
X94163157Y-92773643D01*
X94091728Y-92630786D01*
X94091728Y-92559357D01*
X94163157Y-92416500D01*
X94306014Y-92345071D01*
X94520300Y-92345071D01*
X94663157Y-92416500D01*
X95948871Y-93273643D02*
X95806014Y-93345071D01*
X95520300Y-93345071D01*
X95377443Y-93273643D01*
X95306014Y-93130786D01*
X95306014Y-92559357D01*
X95377443Y-92416500D01*
X95520300Y-92345071D01*
X95806014Y-92345071D01*
X95948871Y-92416500D01*
X96020300Y-92559357D01*
X96020300Y-92702214D01*
X95306014Y-92845071D01*
X96448871Y-92345071D02*
X97020300Y-92345071D01*
X96663157Y-91845071D02*
X96663157Y-93130786D01*
X96734585Y-93273643D01*
X96877443Y-93345071D01*
X97020300Y-93345071D01*
X97448871Y-93273643D02*
X97591728Y-93345071D01*
X97877443Y-93345071D01*
X98020300Y-93273643D01*
X98091728Y-93130786D01*
X98091728Y-93059357D01*
X98020300Y-92916500D01*
X97877443Y-92845071D01*
X97663157Y-92845071D01*
X97520300Y-92773643D01*
X97448871Y-92630786D01*
X97448871Y-92559357D01*
X97520300Y-92416500D01*
X97663157Y-92345071D01*
X97877443Y-92345071D01*
X98020300Y-92416500D01*
X100091729Y-93345071D02*
X99948871Y-93273643D01*
X99877443Y-93202214D01*
X99806014Y-93059357D01*
X99806014Y-92630786D01*
X99877443Y-92487929D01*
X99948871Y-92416500D01*
X100091729Y-92345071D01*
X100306014Y-92345071D01*
X100448871Y-92416500D01*
X100520300Y-92487929D01*
X100591729Y-92630786D01*
X100591729Y-93059357D01*
X100520300Y-93202214D01*
X100448871Y-93273643D01*
X100306014Y-93345071D01*
X100091729Y-93345071D01*
X101020300Y-92345071D02*
X101591729Y-92345071D01*
X101234586Y-93345071D02*
X101234586Y-92059357D01*
X101306014Y-91916500D01*
X101448872Y-91845071D01*
X101591729Y-91845071D01*
X74520300Y-94895071D02*
X74520300Y-95895071D01*
X74163157Y-94323643D02*
X73806014Y-95395071D01*
X74734586Y-95395071D01*
X75163157Y-95895071D02*
X75948871Y-94895071D01*
X75163157Y-94895071D02*
X75948871Y-95895071D01*
X76734586Y-95037929D02*
X76591728Y-94966500D01*
X76520300Y-94895071D01*
X76448871Y-94752214D01*
X76448871Y-94680786D01*
X76520300Y-94537929D01*
X76591728Y-94466500D01*
X76734586Y-94395071D01*
X77020300Y-94395071D01*
X77163157Y-94466500D01*
X77234586Y-94537929D01*
X77306014Y-94680786D01*
X77306014Y-94752214D01*
X77234586Y-94895071D01*
X77163157Y-94966500D01*
X77020300Y-95037929D01*
X76734586Y-95037929D01*
X76591728Y-95109357D01*
X76520300Y-95180786D01*
X76448871Y-95323643D01*
X76448871Y-95609357D01*
X76520300Y-95752214D01*
X76591728Y-95823643D01*
X76734586Y-95895071D01*
X77020300Y-95895071D01*
X77163157Y-95823643D01*
X77234586Y-95752214D01*
X77306014Y-95609357D01*
X77306014Y-95323643D01*
X77234586Y-95180786D01*
X77163157Y-95109357D01*
X77020300Y-95037929D01*
X77948871Y-95895071D02*
X77948871Y-94395071D01*
X78091728Y-95323643D02*
X78520299Y-95895071D01*
X78520299Y-94895071D02*
X77948871Y-95466500D01*
X80306014Y-95895071D02*
X80306014Y-94895071D01*
X80306014Y-95180786D02*
X80377442Y-95037929D01*
X80448871Y-94966500D01*
X80591728Y-94895071D01*
X80734585Y-94895071D01*
X81448871Y-95895071D02*
X81306013Y-95823643D01*
X81234585Y-95752214D01*
X81163156Y-95609357D01*
X81163156Y-95180786D01*
X81234585Y-95037929D01*
X81306013Y-94966500D01*
X81448871Y-94895071D01*
X81663156Y-94895071D01*
X81806013Y-94966500D01*
X81877442Y-95037929D01*
X81948871Y-95180786D01*
X81948871Y-95609357D01*
X81877442Y-95752214D01*
X81806013Y-95823643D01*
X81663156Y-95895071D01*
X81448871Y-95895071D01*
X82591728Y-95895071D02*
X82591728Y-94895071D01*
X82591728Y-95037929D02*
X82663156Y-94966500D01*
X82806014Y-94895071D01*
X83020299Y-94895071D01*
X83163156Y-94966500D01*
X83234585Y-95109357D01*
X83234585Y-95895071D01*
X83234585Y-95109357D02*
X83306014Y-94966500D01*
X83448871Y-94895071D01*
X83663156Y-94895071D01*
X83806014Y-94966500D01*
X83877442Y-95109357D01*
X83877442Y-95895071D01*
X85734585Y-95895071D02*
X85734585Y-94895071D01*
X85734585Y-94395071D02*
X85663156Y-94466500D01*
X85734585Y-94537929D01*
X85806013Y-94466500D01*
X85734585Y-94395071D01*
X85734585Y-94537929D01*
X86448871Y-95895071D02*
X86448871Y-94895071D01*
X86448871Y-95037929D02*
X86520299Y-94966500D01*
X86663157Y-94895071D01*
X86877442Y-94895071D01*
X87020299Y-94966500D01*
X87091728Y-95109357D01*
X87091728Y-95895071D01*
X87091728Y-95109357D02*
X87163157Y-94966500D01*
X87306014Y-94895071D01*
X87520299Y-94895071D01*
X87663157Y-94966500D01*
X87734585Y-95109357D01*
X87734585Y-95895071D01*
X89091728Y-95895071D02*
X89091728Y-95109357D01*
X89020299Y-94966500D01*
X88877442Y-94895071D01*
X88591728Y-94895071D01*
X88448871Y-94966500D01*
X89091728Y-95823643D02*
X88948871Y-95895071D01*
X88591728Y-95895071D01*
X88448871Y-95823643D01*
X88377442Y-95680786D01*
X88377442Y-95537929D01*
X88448871Y-95395071D01*
X88591728Y-95323643D01*
X88948871Y-95323643D01*
X89091728Y-95252214D01*
X90448871Y-94895071D02*
X90448871Y-96109357D01*
X90377442Y-96252214D01*
X90306014Y-96323643D01*
X90163157Y-96395071D01*
X89948871Y-96395071D01*
X89806014Y-96323643D01*
X90448871Y-95823643D02*
X90306014Y-95895071D01*
X90020300Y-95895071D01*
X89877442Y-95823643D01*
X89806014Y-95752214D01*
X89734585Y-95609357D01*
X89734585Y-95180786D01*
X89806014Y-95037929D01*
X89877442Y-94966500D01*
X90020300Y-94895071D01*
X90306014Y-94895071D01*
X90448871Y-94966500D01*
X91734585Y-95823643D02*
X91591728Y-95895071D01*
X91306014Y-95895071D01*
X91163157Y-95823643D01*
X91091728Y-95680786D01*
X91091728Y-95109357D01*
X91163157Y-94966500D01*
X91306014Y-94895071D01*
X91591728Y-94895071D01*
X91734585Y-94966500D01*
X91806014Y-95109357D01*
X91806014Y-95252214D01*
X91091728Y-95395071D01*
X92377442Y-95823643D02*
X92520299Y-95895071D01*
X92806014Y-95895071D01*
X92948871Y-95823643D01*
X93020299Y-95680786D01*
X93020299Y-95609357D01*
X92948871Y-95466500D01*
X92806014Y-95395071D01*
X92591728Y-95395071D01*
X92448871Y-95323643D01*
X92377442Y-95180786D01*
X92377442Y-95109357D01*
X92448871Y-94966500D01*
X92591728Y-94895071D01*
X92806014Y-94895071D01*
X92948871Y-94966500D01*
X73699643Y-54755571D02*
X73699643Y-53255571D01*
X74271071Y-53255571D01*
X74413929Y-53327000D01*
X74485357Y-53398429D01*
X74556786Y-53541286D01*
X74556786Y-53755571D01*
X74485357Y-53898429D01*
X74413929Y-53969857D01*
X74271071Y-54041286D01*
X73699643Y-54041286D01*
X75699643Y-53969857D02*
X75913929Y-54041286D01*
X75985357Y-54112714D01*
X76056786Y-54255571D01*
X76056786Y-54469857D01*
X75985357Y-54612714D01*
X75913929Y-54684143D01*
X75771071Y-54755571D01*
X75199643Y-54755571D01*
X75199643Y-53255571D01*
X75699643Y-53255571D01*
X75842500Y-53327000D01*
X75913929Y-53398429D01*
X75985357Y-53541286D01*
X75985357Y-53684143D01*
X75913929Y-53827000D01*
X75842500Y-53898429D01*
X75699643Y-53969857D01*
X75199643Y-53969857D01*
X76985357Y-53255571D02*
X77128214Y-53255571D01*
X77271071Y-53327000D01*
X77342500Y-53398429D01*
X77413929Y-53541286D01*
X77485357Y-53827000D01*
X77485357Y-54184143D01*
X77413929Y-54469857D01*
X77342500Y-54612714D01*
X77271071Y-54684143D01*
X77128214Y-54755571D01*
X76985357Y-54755571D01*
X76842500Y-54684143D01*
X76771071Y-54612714D01*
X76699643Y-54469857D01*
X76628214Y-54184143D01*
X76628214Y-53827000D01*
X76699643Y-53541286D01*
X76771071Y-53398429D01*
X76842500Y-53327000D01*
X76985357Y-53255571D01*
X78128214Y-54184143D02*
X79271071Y-54184143D01*
X79985357Y-54755571D02*
X79985357Y-53255571D01*
X80556785Y-53255571D01*
X80699643Y-53327000D01*
X80771071Y-53398429D01*
X80842500Y-53541286D01*
X80842500Y-53755571D01*
X80771071Y-53898429D01*
X80699643Y-53969857D01*
X80556785Y-54041286D01*
X79985357Y-54041286D01*
X81985357Y-53969857D02*
X82199643Y-54041286D01*
X82271071Y-54112714D01*
X82342500Y-54255571D01*
X82342500Y-54469857D01*
X82271071Y-54612714D01*
X82199643Y-54684143D01*
X82056785Y-54755571D01*
X81485357Y-54755571D01*
X81485357Y-53255571D01*
X81985357Y-53255571D01*
X82128214Y-53327000D01*
X82199643Y-53398429D01*
X82271071Y-53541286D01*
X82271071Y-53684143D01*
X82199643Y-53827000D01*
X82128214Y-53898429D01*
X81985357Y-53969857D01*
X81485357Y-53969857D01*
X83628214Y-53755571D02*
X83628214Y-54755571D01*
X83271071Y-53184143D02*
X82913928Y-54255571D01*
X83842500Y-54255571D01*
X85985356Y-55327000D02*
X85913928Y-55255571D01*
X85771071Y-55041286D01*
X85699642Y-54898429D01*
X85628213Y-54684143D01*
X85556785Y-54327000D01*
X85556785Y-54041286D01*
X85628213Y-53684143D01*
X85699642Y-53469857D01*
X85771071Y-53327000D01*
X85913928Y-53112714D01*
X85985356Y-53041286D01*
X87199642Y-54755571D02*
X87199642Y-53969857D01*
X87128213Y-53827000D01*
X86985356Y-53755571D01*
X86699642Y-53755571D01*
X86556785Y-53827000D01*
X87199642Y-54684143D02*
X87056785Y-54755571D01*
X86699642Y-54755571D01*
X86556785Y-54684143D01*
X86485356Y-54541286D01*
X86485356Y-54398429D01*
X86556785Y-54255571D01*
X86699642Y-54184143D01*
X87056785Y-54184143D01*
X87199642Y-54112714D01*
X88556785Y-54684143D02*
X88413928Y-54755571D01*
X88128214Y-54755571D01*
X87985356Y-54684143D01*
X87913928Y-54612714D01*
X87842499Y-54469857D01*
X87842499Y-54041286D01*
X87913928Y-53898429D01*
X87985356Y-53827000D01*
X88128214Y-53755571D01*
X88413928Y-53755571D01*
X88556785Y-53827000D01*
X88985356Y-53755571D02*
X89556785Y-53755571D01*
X89199642Y-53255571D02*
X89199642Y-54541286D01*
X89271070Y-54684143D01*
X89413928Y-54755571D01*
X89556785Y-54755571D01*
X90056785Y-54755571D02*
X90056785Y-53755571D01*
X90056785Y-53255571D02*
X89985356Y-53327000D01*
X90056785Y-53398429D01*
X90128213Y-53327000D01*
X90056785Y-53255571D01*
X90056785Y-53398429D01*
X90628214Y-53755571D02*
X90985357Y-54755571D01*
X91342499Y-53755571D01*
X92485356Y-54684143D02*
X92342499Y-54755571D01*
X92056785Y-54755571D01*
X91913928Y-54684143D01*
X91842499Y-54541286D01*
X91842499Y-53969857D01*
X91913928Y-53827000D01*
X92056785Y-53755571D01*
X92342499Y-53755571D01*
X92485356Y-53827000D01*
X92556785Y-53969857D01*
X92556785Y-54112714D01*
X91842499Y-54255571D01*
X94556785Y-54755571D02*
X94413927Y-54684143D01*
X94342499Y-54541286D01*
X94342499Y-53255571D01*
X95342499Y-54755571D02*
X95199641Y-54684143D01*
X95128213Y-54612714D01*
X95056784Y-54469857D01*
X95056784Y-54041286D01*
X95128213Y-53898429D01*
X95199641Y-53827000D01*
X95342499Y-53755571D01*
X95556784Y-53755571D01*
X95699641Y-53827000D01*
X95771070Y-53898429D01*
X95842499Y-54041286D01*
X95842499Y-54469857D01*
X95771070Y-54612714D01*
X95699641Y-54684143D01*
X95556784Y-54755571D01*
X95342499Y-54755571D01*
X96342499Y-53755571D02*
X96628213Y-54755571D01*
X96913927Y-54041286D01*
X97199642Y-54755571D01*
X97485356Y-53755571D01*
X97913928Y-55327000D02*
X97985356Y-55255571D01*
X98128213Y-55041286D01*
X98199642Y-54898429D01*
X98271071Y-54684143D01*
X98342499Y-54327000D01*
X98342499Y-54041286D01*
X98271071Y-53684143D01*
X98199642Y-53469857D01*
X98128213Y-53327000D01*
X97985356Y-53112714D01*
X97913928Y-53041286D01*
X74842500Y-56519857D02*
X75985357Y-56519857D01*
X75985357Y-56948429D02*
X74842500Y-56948429D01*
X77771071Y-57234143D02*
X77913928Y-57305571D01*
X78199643Y-57305571D01*
X78342500Y-57234143D01*
X78413928Y-57091286D01*
X78413928Y-57019857D01*
X78342500Y-56877000D01*
X78199643Y-56805571D01*
X77985357Y-56805571D01*
X77842500Y-56734143D01*
X77771071Y-56591286D01*
X77771071Y-56519857D01*
X77842500Y-56377000D01*
X77985357Y-56305571D01*
X78199643Y-56305571D01*
X78342500Y-56377000D01*
X79628214Y-57234143D02*
X79485357Y-57305571D01*
X79199643Y-57305571D01*
X79056786Y-57234143D01*
X78985357Y-57091286D01*
X78985357Y-56519857D01*
X79056786Y-56377000D01*
X79199643Y-56305571D01*
X79485357Y-56305571D01*
X79628214Y-56377000D01*
X79699643Y-56519857D01*
X79699643Y-56662714D01*
X78985357Y-56805571D01*
X80556786Y-57305571D02*
X80413928Y-57234143D01*
X80342500Y-57091286D01*
X80342500Y-55805571D01*
X81699642Y-57234143D02*
X81556785Y-57305571D01*
X81271071Y-57305571D01*
X81128214Y-57234143D01*
X81056785Y-57091286D01*
X81056785Y-56519857D01*
X81128214Y-56377000D01*
X81271071Y-56305571D01*
X81556785Y-56305571D01*
X81699642Y-56377000D01*
X81771071Y-56519857D01*
X81771071Y-56662714D01*
X81056785Y-56805571D01*
X83056785Y-57234143D02*
X82913928Y-57305571D01*
X82628214Y-57305571D01*
X82485356Y-57234143D01*
X82413928Y-57162714D01*
X82342499Y-57019857D01*
X82342499Y-56591286D01*
X82413928Y-56448429D01*
X82485356Y-56377000D01*
X82628214Y-56305571D01*
X82913928Y-56305571D01*
X83056785Y-56377000D01*
X83485356Y-56305571D02*
X84056785Y-56305571D01*
X83699642Y-55805571D02*
X83699642Y-57091286D01*
X83771070Y-57234143D01*
X83913928Y-57305571D01*
X84056785Y-57305571D01*
X86556785Y-57305571D02*
X86056785Y-56591286D01*
X85699642Y-57305571D02*
X85699642Y-55805571D01*
X86271070Y-55805571D01*
X86413928Y-55877000D01*
X86485356Y-55948429D01*
X86556785Y-56091286D01*
X86556785Y-56305571D01*
X86485356Y-56448429D01*
X86413928Y-56519857D01*
X86271070Y-56591286D01*
X85699642Y-56591286D01*
X87128213Y-56877000D02*
X87842499Y-56877000D01*
X86985356Y-57305571D02*
X87485356Y-55805571D01*
X87985356Y-57305571D01*
X88485356Y-57305571D02*
X88485356Y-55805571D01*
X88985356Y-56877000D01*
X89485356Y-55805571D01*
X89485356Y-57305571D01*
X91342499Y-57305571D02*
X91342499Y-55805571D01*
X91342499Y-56377000D02*
X91485356Y-56305571D01*
X91771070Y-56305571D01*
X91913927Y-56377000D01*
X91985356Y-56448429D01*
X92056785Y-56591286D01*
X92056785Y-57019857D01*
X91985356Y-57162714D01*
X91913927Y-57234143D01*
X91771070Y-57305571D01*
X91485356Y-57305571D01*
X91342499Y-57234143D01*
X92913928Y-57305571D02*
X92771070Y-57234143D01*
X92699642Y-57091286D01*
X92699642Y-55805571D01*
X93699642Y-57305571D02*
X93556784Y-57234143D01*
X93485356Y-57162714D01*
X93413927Y-57019857D01*
X93413927Y-56591286D01*
X93485356Y-56448429D01*
X93556784Y-56377000D01*
X93699642Y-56305571D01*
X93913927Y-56305571D01*
X94056784Y-56377000D01*
X94128213Y-56448429D01*
X94199642Y-56591286D01*
X94199642Y-57019857D01*
X94128213Y-57162714D01*
X94056784Y-57234143D01*
X93913927Y-57305571D01*
X93699642Y-57305571D01*
X95485356Y-57234143D02*
X95342499Y-57305571D01*
X95056785Y-57305571D01*
X94913927Y-57234143D01*
X94842499Y-57162714D01*
X94771070Y-57019857D01*
X94771070Y-56591286D01*
X94842499Y-56448429D01*
X94913927Y-56377000D01*
X95056785Y-56305571D01*
X95342499Y-56305571D01*
X95485356Y-56377000D01*
X96128213Y-57305571D02*
X96128213Y-55805571D01*
X96271070Y-56734143D02*
X96699641Y-57305571D01*
X96699641Y-56305571D02*
X96128213Y-56877000D01*
X97271070Y-57234143D02*
X97413927Y-57305571D01*
X97699642Y-57305571D01*
X97842499Y-57234143D01*
X97913927Y-57091286D01*
X97913927Y-57019857D01*
X97842499Y-56877000D01*
X97699642Y-56805571D01*
X97485356Y-56805571D01*
X97342499Y-56734143D01*
X97271070Y-56591286D01*
X97271070Y-56519857D01*
X97342499Y-56377000D01*
X97485356Y-56305571D01*
X97699642Y-56305571D01*
X97842499Y-56377000D01*
X79128214Y-59855571D02*
X78628214Y-59141286D01*
X78271071Y-59855571D02*
X78271071Y-58355571D01*
X78842499Y-58355571D01*
X78985357Y-58427000D01*
X79056785Y-58498429D01*
X79128214Y-58641286D01*
X79128214Y-58855571D01*
X79056785Y-58998429D01*
X78985357Y-59069857D01*
X78842499Y-59141286D01*
X78271071Y-59141286D01*
X79699642Y-59427000D02*
X80413928Y-59427000D01*
X79556785Y-59855571D02*
X80056785Y-58355571D01*
X80556785Y-59855571D01*
X81056785Y-59855571D02*
X81056785Y-58355571D01*
X81556785Y-59427000D01*
X82056785Y-58355571D01*
X82056785Y-59855571D01*
X83199642Y-60427000D02*
X83128214Y-60427000D01*
X82985357Y-60355571D01*
X82913928Y-60212714D01*
X82913928Y-59498429D01*
X82842499Y-59355571D01*
X82699642Y-59284143D01*
X82842499Y-59212714D01*
X82913928Y-59069857D01*
X82913928Y-58355571D01*
X82985357Y-58212714D01*
X83128214Y-58141286D01*
X83199642Y-58141286D01*
X84556785Y-59855571D02*
X83699642Y-59855571D01*
X84128214Y-59855571D02*
X84128214Y-58355571D01*
X83985357Y-58569857D01*
X83842499Y-58712714D01*
X83699642Y-58784143D01*
X85128213Y-58498429D02*
X85199642Y-58427000D01*
X85342499Y-58355571D01*
X85699642Y-58355571D01*
X85842499Y-58427000D01*
X85913928Y-58498429D01*
X85985356Y-58641286D01*
X85985356Y-58784143D01*
X85913928Y-58998429D01*
X85056785Y-59855571D01*
X85985356Y-59855571D01*
X86485356Y-58355571D02*
X87413927Y-58355571D01*
X86913927Y-58927000D01*
X87128213Y-58927000D01*
X87271070Y-58998429D01*
X87342499Y-59069857D01*
X87413927Y-59212714D01*
X87413927Y-59569857D01*
X87342499Y-59712714D01*
X87271070Y-59784143D01*
X87128213Y-59855571D01*
X86699641Y-59855571D01*
X86556784Y-59784143D01*
X86485356Y-59712714D01*
X87913927Y-60427000D02*
X87985355Y-60427000D01*
X88128212Y-60355571D01*
X88199641Y-60212714D01*
X88199641Y-59498429D01*
X88271070Y-59355571D01*
X88413927Y-59284143D01*
X88271070Y-59212714D01*
X88199641Y-59069857D01*
X88199641Y-58355571D01*
X88128212Y-58212714D01*
X87985355Y-58141286D01*
X87913927Y-58141286D01*
X89128212Y-59784143D02*
X89128212Y-59855571D01*
X89056784Y-59998429D01*
X88985355Y-60069857D01*
X90271070Y-59069857D02*
X90485356Y-59141286D01*
X90556784Y-59212714D01*
X90628213Y-59355571D01*
X90628213Y-59569857D01*
X90556784Y-59712714D01*
X90485356Y-59784143D01*
X90342498Y-59855571D01*
X89771070Y-59855571D01*
X89771070Y-58355571D01*
X90271070Y-58355571D01*
X90413927Y-58427000D01*
X90485356Y-58498429D01*
X90556784Y-58641286D01*
X90556784Y-58784143D01*
X90485356Y-58927000D01*
X90413927Y-58998429D01*
X90271070Y-59069857D01*
X89771070Y-59069857D01*
X91985356Y-59855571D02*
X91271070Y-59855571D01*
X91271070Y-58355571D01*
X92485356Y-59855571D02*
X92485356Y-58355571D01*
X93342499Y-59855571D02*
X92699642Y-58998429D01*
X93342499Y-58355571D02*
X92485356Y-59212714D01*
X94413927Y-60355571D02*
X94056784Y-60355571D01*
X94056784Y-58212714D01*
X94413927Y-58212714D01*
X95771070Y-59855571D02*
X94913927Y-59855571D01*
X95342499Y-59855571D02*
X95342499Y-58355571D01*
X95199642Y-58569857D01*
X95056784Y-58712714D01*
X94913927Y-58784143D01*
X96413927Y-59284143D02*
X97556784Y-59284143D01*
X98985356Y-58355571D02*
X98271070Y-58355571D01*
X98199641Y-59069857D01*
X98271070Y-58998429D01*
X98413927Y-58927000D01*
X98771070Y-58927000D01*
X98913927Y-58998429D01*
X98985356Y-59069857D01*
X99056784Y-59212714D01*
X99056784Y-59569857D01*
X98985356Y-59712714D01*
X98913927Y-59784143D01*
X98771070Y-59855571D01*
X98413927Y-59855571D01*
X98271070Y-59784143D01*
X98199641Y-59712714D01*
X99556784Y-60355571D02*
X99913927Y-60355571D01*
X99913927Y-58212714D01*
X99556784Y-58212714D01*
X73699643Y-62405571D02*
X73699643Y-60905571D01*
X74271071Y-60905571D01*
X74413929Y-60977000D01*
X74485357Y-61048429D01*
X74556786Y-61191286D01*
X74556786Y-61405571D01*
X74485357Y-61548429D01*
X74413929Y-61619857D01*
X74271071Y-61691286D01*
X73699643Y-61691286D01*
X75699643Y-61619857D02*
X75913929Y-61691286D01*
X75985357Y-61762714D01*
X76056786Y-61905571D01*
X76056786Y-62119857D01*
X75985357Y-62262714D01*
X75913929Y-62334143D01*
X75771071Y-62405571D01*
X75199643Y-62405571D01*
X75199643Y-60905571D01*
X75699643Y-60905571D01*
X75842500Y-60977000D01*
X75913929Y-61048429D01*
X75985357Y-61191286D01*
X75985357Y-61334143D01*
X75913929Y-61477000D01*
X75842500Y-61548429D01*
X75699643Y-61619857D01*
X75199643Y-61619857D01*
X77413929Y-60905571D02*
X76699643Y-60905571D01*
X76628214Y-61619857D01*
X76699643Y-61548429D01*
X76842500Y-61477000D01*
X77199643Y-61477000D01*
X77342500Y-61548429D01*
X77413929Y-61619857D01*
X77485357Y-61762714D01*
X77485357Y-62119857D01*
X77413929Y-62262714D01*
X77342500Y-62334143D01*
X77199643Y-62405571D01*
X76842500Y-62405571D01*
X76699643Y-62334143D01*
X76628214Y-62262714D01*
X78199642Y-62334143D02*
X78199642Y-62405571D01*
X78128214Y-62548429D01*
X78056785Y-62619857D01*
X78842500Y-62405571D02*
X78842500Y-60905571D01*
X79413928Y-60905571D01*
X79556786Y-60977000D01*
X79628214Y-61048429D01*
X79699643Y-61191286D01*
X79699643Y-61405571D01*
X79628214Y-61548429D01*
X79556786Y-61619857D01*
X79413928Y-61691286D01*
X78842500Y-61691286D01*
X81199643Y-62262714D02*
X81128214Y-62334143D01*
X80913928Y-62405571D01*
X80771071Y-62405571D01*
X80556786Y-62334143D01*
X80413928Y-62191286D01*
X80342500Y-62048429D01*
X80271071Y-61762714D01*
X80271071Y-61548429D01*
X80342500Y-61262714D01*
X80413928Y-61119857D01*
X80556786Y-60977000D01*
X80771071Y-60905571D01*
X80913928Y-60905571D01*
X81128214Y-60977000D01*
X81199643Y-61048429D01*
X82128214Y-60905571D02*
X82271071Y-60905571D01*
X82413928Y-60977000D01*
X82485357Y-61048429D01*
X82556786Y-61191286D01*
X82628214Y-61477000D01*
X82628214Y-61834143D01*
X82556786Y-62119857D01*
X82485357Y-62262714D01*
X82413928Y-62334143D01*
X82271071Y-62405571D01*
X82128214Y-62405571D01*
X81985357Y-62334143D01*
X81913928Y-62262714D01*
X81842500Y-62119857D01*
X81771071Y-61834143D01*
X81771071Y-61477000D01*
X81842500Y-61191286D01*
X81913928Y-61048429D01*
X81985357Y-60977000D01*
X82128214Y-60905571D01*
X83271071Y-61834143D02*
X84413928Y-61834143D01*
X85128214Y-62405571D02*
X85128214Y-60905571D01*
X85699642Y-60905571D01*
X85842500Y-60977000D01*
X85913928Y-61048429D01*
X85985357Y-61191286D01*
X85985357Y-61405571D01*
X85913928Y-61548429D01*
X85842500Y-61619857D01*
X85699642Y-61691286D01*
X85128214Y-61691286D01*
X87485357Y-62262714D02*
X87413928Y-62334143D01*
X87199642Y-62405571D01*
X87056785Y-62405571D01*
X86842500Y-62334143D01*
X86699642Y-62191286D01*
X86628214Y-62048429D01*
X86556785Y-61762714D01*
X86556785Y-61548429D01*
X86628214Y-61262714D01*
X86699642Y-61119857D01*
X86842500Y-60977000D01*
X87056785Y-60905571D01*
X87199642Y-60905571D01*
X87413928Y-60977000D01*
X87485357Y-61048429D01*
X88056785Y-61048429D02*
X88128214Y-60977000D01*
X88271071Y-60905571D01*
X88628214Y-60905571D01*
X88771071Y-60977000D01*
X88842500Y-61048429D01*
X88913928Y-61191286D01*
X88913928Y-61334143D01*
X88842500Y-61548429D01*
X87985357Y-62405571D01*
X88913928Y-62405571D01*
X91128213Y-62977000D02*
X91056785Y-62905571D01*
X90913928Y-62691286D01*
X90842499Y-62548429D01*
X90771070Y-62334143D01*
X90699642Y-61977000D01*
X90699642Y-61691286D01*
X90771070Y-61334143D01*
X90842499Y-61119857D01*
X90913928Y-60977000D01*
X91056785Y-60762714D01*
X91128213Y-60691286D01*
X92342499Y-62405571D02*
X92342499Y-61619857D01*
X92271070Y-61477000D01*
X92128213Y-61405571D01*
X91842499Y-61405571D01*
X91699642Y-61477000D01*
X92342499Y-62334143D02*
X92199642Y-62405571D01*
X91842499Y-62405571D01*
X91699642Y-62334143D01*
X91628213Y-62191286D01*
X91628213Y-62048429D01*
X91699642Y-61905571D01*
X91842499Y-61834143D01*
X92199642Y-61834143D01*
X92342499Y-61762714D01*
X93699642Y-62334143D02*
X93556785Y-62405571D01*
X93271071Y-62405571D01*
X93128213Y-62334143D01*
X93056785Y-62262714D01*
X92985356Y-62119857D01*
X92985356Y-61691286D01*
X93056785Y-61548429D01*
X93128213Y-61477000D01*
X93271071Y-61405571D01*
X93556785Y-61405571D01*
X93699642Y-61477000D01*
X94128213Y-61405571D02*
X94699642Y-61405571D01*
X94342499Y-60905571D02*
X94342499Y-62191286D01*
X94413927Y-62334143D01*
X94556785Y-62405571D01*
X94699642Y-62405571D01*
X95199642Y-62405571D02*
X95199642Y-61405571D01*
X95199642Y-60905571D02*
X95128213Y-60977000D01*
X95199642Y-61048429D01*
X95271070Y-60977000D01*
X95199642Y-60905571D01*
X95199642Y-61048429D01*
X95771071Y-61405571D02*
X96128214Y-62405571D01*
X96485356Y-61405571D01*
X97628213Y-62334143D02*
X97485356Y-62405571D01*
X97199642Y-62405571D01*
X97056785Y-62334143D01*
X96985356Y-62191286D01*
X96985356Y-61619857D01*
X97056785Y-61477000D01*
X97199642Y-61405571D01*
X97485356Y-61405571D01*
X97628213Y-61477000D01*
X97699642Y-61619857D01*
X97699642Y-61762714D01*
X96985356Y-61905571D01*
X99699642Y-62405571D02*
X99556784Y-62334143D01*
X99485356Y-62191286D01*
X99485356Y-60905571D01*
X100485356Y-62405571D02*
X100342498Y-62334143D01*
X100271070Y-62262714D01*
X100199641Y-62119857D01*
X100199641Y-61691286D01*
X100271070Y-61548429D01*
X100342498Y-61477000D01*
X100485356Y-61405571D01*
X100699641Y-61405571D01*
X100842498Y-61477000D01*
X100913927Y-61548429D01*
X100985356Y-61691286D01*
X100985356Y-62119857D01*
X100913927Y-62262714D01*
X100842498Y-62334143D01*
X100699641Y-62405571D01*
X100485356Y-62405571D01*
X101485356Y-61405571D02*
X101771070Y-62405571D01*
X102056784Y-61691286D01*
X102342499Y-62405571D01*
X102628213Y-61405571D01*
X103056785Y-62977000D02*
X103128213Y-62905571D01*
X103271070Y-62691286D01*
X103342499Y-62548429D01*
X103413928Y-62334143D01*
X103485356Y-61977000D01*
X103485356Y-61691286D01*
X103413928Y-61334143D01*
X103342499Y-61119857D01*
X103271070Y-60977000D01*
X103128213Y-60762714D01*
X103056785Y-60691286D01*
X74842500Y-64169857D02*
X75985357Y-64169857D01*
X75985357Y-64598429D02*
X74842500Y-64598429D01*
X77771071Y-64884143D02*
X77913928Y-64955571D01*
X78199643Y-64955571D01*
X78342500Y-64884143D01*
X78413928Y-64741286D01*
X78413928Y-64669857D01*
X78342500Y-64527000D01*
X78199643Y-64455571D01*
X77985357Y-64455571D01*
X77842500Y-64384143D01*
X77771071Y-64241286D01*
X77771071Y-64169857D01*
X77842500Y-64027000D01*
X77985357Y-63955571D01*
X78199643Y-63955571D01*
X78342500Y-64027000D01*
X79628214Y-64884143D02*
X79485357Y-64955571D01*
X79199643Y-64955571D01*
X79056786Y-64884143D01*
X78985357Y-64741286D01*
X78985357Y-64169857D01*
X79056786Y-64027000D01*
X79199643Y-63955571D01*
X79485357Y-63955571D01*
X79628214Y-64027000D01*
X79699643Y-64169857D01*
X79699643Y-64312714D01*
X78985357Y-64455571D01*
X80556786Y-64955571D02*
X80413928Y-64884143D01*
X80342500Y-64741286D01*
X80342500Y-63455571D01*
X81699642Y-64884143D02*
X81556785Y-64955571D01*
X81271071Y-64955571D01*
X81128214Y-64884143D01*
X81056785Y-64741286D01*
X81056785Y-64169857D01*
X81128214Y-64027000D01*
X81271071Y-63955571D01*
X81556785Y-63955571D01*
X81699642Y-64027000D01*
X81771071Y-64169857D01*
X81771071Y-64312714D01*
X81056785Y-64455571D01*
X83056785Y-64884143D02*
X82913928Y-64955571D01*
X82628214Y-64955571D01*
X82485356Y-64884143D01*
X82413928Y-64812714D01*
X82342499Y-64669857D01*
X82342499Y-64241286D01*
X82413928Y-64098429D01*
X82485356Y-64027000D01*
X82628214Y-63955571D01*
X82913928Y-63955571D01*
X83056785Y-64027000D01*
X83485356Y-63955571D02*
X84056785Y-63955571D01*
X83699642Y-63455571D02*
X83699642Y-64741286D01*
X83771070Y-64884143D01*
X83913928Y-64955571D01*
X84056785Y-64955571D01*
X86556785Y-64955571D02*
X86056785Y-64241286D01*
X85699642Y-64955571D02*
X85699642Y-63455571D01*
X86271070Y-63455571D01*
X86413928Y-63527000D01*
X86485356Y-63598429D01*
X86556785Y-63741286D01*
X86556785Y-63955571D01*
X86485356Y-64098429D01*
X86413928Y-64169857D01*
X86271070Y-64241286D01*
X85699642Y-64241286D01*
X87485356Y-63455571D02*
X87771070Y-63455571D01*
X87913928Y-63527000D01*
X88056785Y-63669857D01*
X88128213Y-63955571D01*
X88128213Y-64455571D01*
X88056785Y-64741286D01*
X87913928Y-64884143D01*
X87771070Y-64955571D01*
X87485356Y-64955571D01*
X87342499Y-64884143D01*
X87199642Y-64741286D01*
X87128213Y-64455571D01*
X87128213Y-63955571D01*
X87199642Y-63669857D01*
X87342499Y-63527000D01*
X87485356Y-63455571D01*
X88771071Y-64955571D02*
X88771071Y-63455571D01*
X89271071Y-64527000D01*
X89771071Y-63455571D01*
X89771071Y-64955571D01*
X91628214Y-64955571D02*
X91628214Y-63455571D01*
X91628214Y-64027000D02*
X91771071Y-63955571D01*
X92056785Y-63955571D01*
X92199642Y-64027000D01*
X92271071Y-64098429D01*
X92342500Y-64241286D01*
X92342500Y-64669857D01*
X92271071Y-64812714D01*
X92199642Y-64884143D01*
X92056785Y-64955571D01*
X91771071Y-64955571D01*
X91628214Y-64884143D01*
X93199643Y-64955571D02*
X93056785Y-64884143D01*
X92985357Y-64741286D01*
X92985357Y-63455571D01*
X93985357Y-64955571D02*
X93842499Y-64884143D01*
X93771071Y-64812714D01*
X93699642Y-64669857D01*
X93699642Y-64241286D01*
X93771071Y-64098429D01*
X93842499Y-64027000D01*
X93985357Y-63955571D01*
X94199642Y-63955571D01*
X94342499Y-64027000D01*
X94413928Y-64098429D01*
X94485357Y-64241286D01*
X94485357Y-64669857D01*
X94413928Y-64812714D01*
X94342499Y-64884143D01*
X94199642Y-64955571D01*
X93985357Y-64955571D01*
X95771071Y-64884143D02*
X95628214Y-64955571D01*
X95342500Y-64955571D01*
X95199642Y-64884143D01*
X95128214Y-64812714D01*
X95056785Y-64669857D01*
X95056785Y-64241286D01*
X95128214Y-64098429D01*
X95199642Y-64027000D01*
X95342500Y-63955571D01*
X95628214Y-63955571D01*
X95771071Y-64027000D01*
X96413928Y-64955571D02*
X96413928Y-63455571D01*
X96556785Y-64384143D02*
X96985356Y-64955571D01*
X96985356Y-63955571D02*
X96413928Y-64527000D01*
X97556785Y-64884143D02*
X97699642Y-64955571D01*
X97985357Y-64955571D01*
X98128214Y-64884143D01*
X98199642Y-64741286D01*
X98199642Y-64669857D01*
X98128214Y-64527000D01*
X97985357Y-64455571D01*
X97771071Y-64455571D01*
X97628214Y-64384143D01*
X97556785Y-64241286D01*
X97556785Y-64169857D01*
X97628214Y-64027000D01*
X97771071Y-63955571D01*
X97985357Y-63955571D01*
X98128214Y-64027000D01*
X78771071Y-66719857D02*
X78985357Y-66791286D01*
X79056785Y-66862714D01*
X79128214Y-67005571D01*
X79128214Y-67219857D01*
X79056785Y-67362714D01*
X78985357Y-67434143D01*
X78842499Y-67505571D01*
X78271071Y-67505571D01*
X78271071Y-66005571D01*
X78771071Y-66005571D01*
X78913928Y-66077000D01*
X78985357Y-66148429D01*
X79056785Y-66291286D01*
X79056785Y-66434143D01*
X78985357Y-66577000D01*
X78913928Y-66648429D01*
X78771071Y-66719857D01*
X78271071Y-66719857D01*
X80485357Y-67505571D02*
X79771071Y-67505571D01*
X79771071Y-66005571D01*
X80985357Y-67505571D02*
X80985357Y-66005571D01*
X81842500Y-67505571D02*
X81199643Y-66648429D01*
X81842500Y-66005571D02*
X80985357Y-66862714D01*
X82913928Y-68005571D02*
X82556785Y-68005571D01*
X82556785Y-65862714D01*
X82913928Y-65862714D01*
X84271071Y-67505571D02*
X83413928Y-67505571D01*
X83842500Y-67505571D02*
X83842500Y-66005571D01*
X83699643Y-66219857D01*
X83556785Y-66362714D01*
X83413928Y-66434143D01*
X84913928Y-66934143D02*
X86056785Y-66934143D01*
X87485357Y-66005571D02*
X86771071Y-66005571D01*
X86699642Y-66719857D01*
X86771071Y-66648429D01*
X86913928Y-66577000D01*
X87271071Y-66577000D01*
X87413928Y-66648429D01*
X87485357Y-66719857D01*
X87556785Y-66862714D01*
X87556785Y-67219857D01*
X87485357Y-67362714D01*
X87413928Y-67434143D01*
X87271071Y-67505571D01*
X86913928Y-67505571D01*
X86771071Y-67434143D01*
X86699642Y-67362714D01*
X88056785Y-68005571D02*
X88413928Y-68005571D01*
X88413928Y-65862714D01*
X88056785Y-65862714D01*
X64912527Y-34471871D02*
X65412527Y-35971871D01*
X65912527Y-34471871D01*
X66412527Y-35971871D02*
X66412527Y-34471871D01*
X67983956Y-35829014D02*
X67912527Y-35900443D01*
X67698241Y-35971871D01*
X67555384Y-35971871D01*
X67341099Y-35900443D01*
X67198241Y-35757586D01*
X67126813Y-35614729D01*
X67055384Y-35329014D01*
X67055384Y-35114729D01*
X67126813Y-34829014D01*
X67198241Y-34686157D01*
X67341099Y-34543300D01*
X67555384Y-34471871D01*
X67698241Y-34471871D01*
X67912527Y-34543300D01*
X67983956Y-34614729D01*
X68626813Y-35400443D02*
X69769670Y-35400443D01*
X70412527Y-34614729D02*
X70483956Y-34543300D01*
X70626813Y-34471871D01*
X70983956Y-34471871D01*
X71126813Y-34543300D01*
X71198242Y-34614729D01*
X71269670Y-34757586D01*
X71269670Y-34900443D01*
X71198242Y-35114729D01*
X70341099Y-35971871D01*
X71269670Y-35971871D01*
X72198241Y-34471871D02*
X72341098Y-34471871D01*
X72483955Y-34543300D01*
X72555384Y-34614729D01*
X72626813Y-34757586D01*
X72698241Y-35043300D01*
X72698241Y-35400443D01*
X72626813Y-35686157D01*
X72555384Y-35829014D01*
X72483955Y-35900443D01*
X72341098Y-35971871D01*
X72198241Y-35971871D01*
X72055384Y-35900443D01*
X71983955Y-35829014D01*
X71912527Y-35686157D01*
X71841098Y-35400443D01*
X71841098Y-35043300D01*
X71912527Y-34757586D01*
X71983955Y-34614729D01*
X72055384Y-34543300D01*
X72198241Y-34471871D01*
X74483955Y-35971871D02*
X74483955Y-34971871D01*
X74483955Y-35114729D02*
X74555383Y-35043300D01*
X74698241Y-34971871D01*
X74912526Y-34971871D01*
X75055383Y-35043300D01*
X75126812Y-35186157D01*
X75126812Y-35971871D01*
X75126812Y-35186157D02*
X75198241Y-35043300D01*
X75341098Y-34971871D01*
X75555383Y-34971871D01*
X75698241Y-35043300D01*
X75769669Y-35186157D01*
X75769669Y-35971871D01*
X77126812Y-34971871D02*
X77126812Y-35971871D01*
X76483955Y-34971871D02*
X76483955Y-35757586D01*
X76555383Y-35900443D01*
X76698241Y-35971871D01*
X76912526Y-35971871D01*
X77055383Y-35900443D01*
X77126812Y-35829014D01*
X78055384Y-35971871D02*
X77912526Y-35900443D01*
X77841098Y-35757586D01*
X77841098Y-34471871D01*
X78412526Y-34971871D02*
X78983955Y-34971871D01*
X78626812Y-34471871D02*
X78626812Y-35757586D01*
X78698240Y-35900443D01*
X78841098Y-35971871D01*
X78983955Y-35971871D01*
X79483955Y-35971871D02*
X79483955Y-34971871D01*
X79483955Y-34471871D02*
X79412526Y-34543300D01*
X79483955Y-34614729D01*
X79555383Y-34543300D01*
X79483955Y-34471871D01*
X79483955Y-34614729D01*
X80198241Y-35400443D02*
X81341098Y-35400443D01*
X82698241Y-35900443D02*
X82555384Y-35971871D01*
X82269670Y-35971871D01*
X82126812Y-35900443D01*
X82055384Y-35829014D01*
X81983955Y-35686157D01*
X81983955Y-35257586D01*
X82055384Y-35114729D01*
X82126812Y-35043300D01*
X82269670Y-34971871D01*
X82555384Y-34971871D01*
X82698241Y-35043300D01*
X83983955Y-35971871D02*
X83983955Y-35186157D01*
X83912526Y-35043300D01*
X83769669Y-34971871D01*
X83483955Y-34971871D01*
X83341098Y-35043300D01*
X83983955Y-35900443D02*
X83841098Y-35971871D01*
X83483955Y-35971871D01*
X83341098Y-35900443D01*
X83269669Y-35757586D01*
X83269669Y-35614729D01*
X83341098Y-35471871D01*
X83483955Y-35400443D01*
X83841098Y-35400443D01*
X83983955Y-35329014D01*
X84698241Y-35971871D02*
X84698241Y-34971871D01*
X84698241Y-35257586D02*
X84769669Y-35114729D01*
X84841098Y-35043300D01*
X84983955Y-34971871D01*
X85126812Y-34971871D01*
X85412526Y-34971871D02*
X85983955Y-34971871D01*
X85626812Y-34471871D02*
X85626812Y-35757586D01*
X85698240Y-35900443D01*
X85841098Y-35971871D01*
X85983955Y-35971871D01*
X86483955Y-35971871D02*
X86483955Y-34971871D01*
X86483955Y-35257586D02*
X86555383Y-35114729D01*
X86626812Y-35043300D01*
X86769669Y-34971871D01*
X86912526Y-34971871D01*
X87412526Y-35971871D02*
X87412526Y-34971871D01*
X87412526Y-34471871D02*
X87341097Y-34543300D01*
X87412526Y-34614729D01*
X87483954Y-34543300D01*
X87412526Y-34471871D01*
X87412526Y-34614729D01*
X88769669Y-35971871D02*
X88769669Y-34471871D01*
X88769669Y-35900443D02*
X88626812Y-35971871D01*
X88341098Y-35971871D01*
X88198240Y-35900443D01*
X88126812Y-35829014D01*
X88055383Y-35686157D01*
X88055383Y-35257586D01*
X88126812Y-35114729D01*
X88198240Y-35043300D01*
X88341098Y-34971871D01*
X88626812Y-34971871D01*
X88769669Y-35043300D01*
X90126812Y-34971871D02*
X90126812Y-36186157D01*
X90055383Y-36329014D01*
X89983955Y-36400443D01*
X89841098Y-36471871D01*
X89626812Y-36471871D01*
X89483955Y-36400443D01*
X90126812Y-35900443D02*
X89983955Y-35971871D01*
X89698241Y-35971871D01*
X89555383Y-35900443D01*
X89483955Y-35829014D01*
X89412526Y-35686157D01*
X89412526Y-35257586D01*
X89483955Y-35114729D01*
X89555383Y-35043300D01*
X89698241Y-34971871D01*
X89983955Y-34971871D01*
X90126812Y-35043300D01*
X91412526Y-35900443D02*
X91269669Y-35971871D01*
X90983955Y-35971871D01*
X90841098Y-35900443D01*
X90769669Y-35757586D01*
X90769669Y-35186157D01*
X90841098Y-35043300D01*
X90983955Y-34971871D01*
X91269669Y-34971871D01*
X91412526Y-35043300D01*
X91483955Y-35186157D01*
X91483955Y-35329014D01*
X90769669Y-35471871D01*
X93269669Y-35400443D02*
X94412526Y-35400443D01*
X97126812Y-35971871D02*
X96626812Y-35257586D01*
X96269669Y-35971871D02*
X96269669Y-34471871D01*
X96841097Y-34471871D01*
X96983955Y-34543300D01*
X97055383Y-34614729D01*
X97126812Y-34757586D01*
X97126812Y-34971871D01*
X97055383Y-35114729D01*
X96983955Y-35186157D01*
X96841097Y-35257586D01*
X96269669Y-35257586D01*
X97698240Y-35543300D02*
X98412526Y-35543300D01*
X97555383Y-35971871D02*
X98055383Y-34471871D01*
X98555383Y-35971871D01*
X99055383Y-35971871D02*
X99055383Y-34471871D01*
X99555383Y-35543300D01*
X100055383Y-34471871D01*
X100055383Y-35971871D01*
X101912526Y-35400443D02*
X103055383Y-35400443D01*
X102483954Y-35971871D02*
X102483954Y-34829014D01*
X105769669Y-35971871D02*
X105269669Y-35257586D01*
X104912526Y-35971871D02*
X104912526Y-34471871D01*
X105483954Y-34471871D01*
X105626812Y-34543300D01*
X105698240Y-34614729D01*
X105769669Y-34757586D01*
X105769669Y-34971871D01*
X105698240Y-35114729D01*
X105626812Y-35186157D01*
X105483954Y-35257586D01*
X104912526Y-35257586D01*
X106698240Y-34471871D02*
X106983954Y-34471871D01*
X107126812Y-34543300D01*
X107269669Y-34686157D01*
X107341097Y-34971871D01*
X107341097Y-35471871D01*
X107269669Y-35757586D01*
X107126812Y-35900443D01*
X106983954Y-35971871D01*
X106698240Y-35971871D01*
X106555383Y-35900443D01*
X106412526Y-35757586D01*
X106341097Y-35471871D01*
X106341097Y-34971871D01*
X106412526Y-34686157D01*
X106555383Y-34543300D01*
X106698240Y-34471871D01*
X107983955Y-35971871D02*
X107983955Y-34471871D01*
X108483955Y-35543300D01*
X108983955Y-34471871D01*
X108983955Y-35971871D01*
X109769669Y-35900443D02*
X109769669Y-35971871D01*
X109698241Y-36114729D01*
X109626812Y-36186157D01*
X111555384Y-35971871D02*
X111555384Y-34471871D01*
X111555384Y-35043300D02*
X111698241Y-34971871D01*
X111983955Y-34971871D01*
X112126812Y-35043300D01*
X112198241Y-35114729D01*
X112269670Y-35257586D01*
X112269670Y-35686157D01*
X112198241Y-35829014D01*
X112126812Y-35900443D01*
X111983955Y-35971871D01*
X111698241Y-35971871D01*
X111555384Y-35900443D01*
X112769670Y-34971871D02*
X113126813Y-35971871D01*
X113483955Y-34971871D02*
X113126813Y-35971871D01*
X112983955Y-36329014D01*
X112912527Y-36400443D01*
X112769670Y-36471871D01*
X115198241Y-35971871D02*
X115198241Y-34471871D01*
X115198241Y-35186157D02*
X116055384Y-35186157D01*
X116055384Y-35971871D02*
X116055384Y-34471871D01*
X117412527Y-35971871D02*
X117412527Y-35186157D01*
X117341098Y-35043300D01*
X117198241Y-34971871D01*
X116912527Y-34971871D01*
X116769670Y-35043300D01*
X117412527Y-35900443D02*
X117269670Y-35971871D01*
X116912527Y-35971871D01*
X116769670Y-35900443D01*
X116698241Y-35757586D01*
X116698241Y-35614729D01*
X116769670Y-35471871D01*
X116912527Y-35400443D01*
X117269670Y-35400443D01*
X117412527Y-35329014D01*
X118126813Y-34971871D02*
X118126813Y-35971871D01*
X118126813Y-35114729D02*
X118198241Y-35043300D01*
X118341099Y-34971871D01*
X118555384Y-34971871D01*
X118698241Y-35043300D01*
X118769670Y-35186157D01*
X118769670Y-35971871D01*
X119412527Y-35900443D02*
X119555384Y-35971871D01*
X119841099Y-35971871D01*
X119983956Y-35900443D01*
X120055384Y-35757586D01*
X120055384Y-35686157D01*
X119983956Y-35543300D01*
X119841099Y-35471871D01*
X119626813Y-35471871D01*
X119483956Y-35400443D01*
X119412527Y-35257586D01*
X119412527Y-35186157D01*
X119483956Y-35043300D01*
X119626813Y-34971871D01*
X119841099Y-34971871D01*
X119983956Y-35043300D01*
X122555385Y-35971871D02*
X121841099Y-35971871D01*
X121841099Y-34471871D01*
X123055385Y-35971871D02*
X123055385Y-34971871D01*
X123055385Y-34471871D02*
X122983956Y-34543300D01*
X123055385Y-34614729D01*
X123126813Y-34543300D01*
X123055385Y-34471871D01*
X123055385Y-34614729D01*
X123698242Y-35900443D02*
X123841099Y-35971871D01*
X124126814Y-35971871D01*
X124269671Y-35900443D01*
X124341099Y-35757586D01*
X124341099Y-35686157D01*
X124269671Y-35543300D01*
X124126814Y-35471871D01*
X123912528Y-35471871D01*
X123769671Y-35400443D01*
X123698242Y-35257586D01*
X123698242Y-35186157D01*
X123769671Y-35043300D01*
X123912528Y-34971871D01*
X124126814Y-34971871D01*
X124269671Y-35043300D01*
X124912528Y-35900443D02*
X125055385Y-35971871D01*
X125341100Y-35971871D01*
X125483957Y-35900443D01*
X125555385Y-35757586D01*
X125555385Y-35686157D01*
X125483957Y-35543300D01*
X125341100Y-35471871D01*
X125126814Y-35471871D01*
X124983957Y-35400443D01*
X124912528Y-35257586D01*
X124912528Y-35186157D01*
X124983957Y-35043300D01*
X125126814Y-34971871D01*
X125341100Y-34971871D01*
X125483957Y-35043300D01*
X127341100Y-35400443D02*
X128483957Y-35400443D01*
X130341100Y-35971871D02*
X130341100Y-34471871D01*
X130341100Y-35186157D02*
X131198243Y-35186157D01*
X131198243Y-35971871D02*
X131198243Y-34471871D01*
X132555386Y-35971871D02*
X132555386Y-35186157D01*
X132483957Y-35043300D01*
X132341100Y-34971871D01*
X132055386Y-34971871D01*
X131912529Y-35043300D01*
X132555386Y-35900443D02*
X132412529Y-35971871D01*
X132055386Y-35971871D01*
X131912529Y-35900443D01*
X131841100Y-35757586D01*
X131841100Y-35614729D01*
X131912529Y-35471871D01*
X132055386Y-35400443D01*
X132412529Y-35400443D01*
X132555386Y-35329014D01*
X133269672Y-34971871D02*
X133269672Y-35971871D01*
X133269672Y-35114729D02*
X133341100Y-35043300D01*
X133483958Y-34971871D01*
X133698243Y-34971871D01*
X133841100Y-35043300D01*
X133912529Y-35186157D01*
X133912529Y-35971871D01*
X134555386Y-35900443D02*
X134698243Y-35971871D01*
X134983958Y-35971871D01*
X135126815Y-35900443D01*
X135198243Y-35757586D01*
X135198243Y-35686157D01*
X135126815Y-35543300D01*
X134983958Y-35471871D01*
X134769672Y-35471871D01*
X134626815Y-35400443D01*
X134555386Y-35257586D01*
X134555386Y-35186157D01*
X134626815Y-35043300D01*
X134769672Y-34971871D01*
X134983958Y-34971871D01*
X135126815Y-35043300D01*
X136769672Y-35257586D02*
X136698244Y-35186157D01*
X136555387Y-35114729D01*
X136412529Y-35114729D01*
X136269672Y-35186157D01*
X136198244Y-35257586D01*
X136126815Y-35400443D01*
X136126815Y-35543300D01*
X136198244Y-35686157D01*
X136269672Y-35757586D01*
X136412529Y-35829014D01*
X136555387Y-35829014D01*
X136698244Y-35757586D01*
X136769672Y-35686157D01*
X136769672Y-35114729D02*
X136769672Y-35686157D01*
X136841101Y-35757586D01*
X136912529Y-35757586D01*
X137055387Y-35686157D01*
X137126815Y-35543300D01*
X137126815Y-35186157D01*
X136983958Y-34971871D01*
X136769672Y-34829014D01*
X136483958Y-34757586D01*
X136198244Y-34829014D01*
X135983958Y-34971871D01*
X135841101Y-35186157D01*
X135769672Y-35471871D01*
X135841101Y-35757586D01*
X135983958Y-35971871D01*
X136198244Y-36114729D01*
X136483958Y-36186157D01*
X136769672Y-36114729D01*
X136983958Y-35971871D01*
X138483958Y-35971871D02*
X137769672Y-35971871D01*
X137769672Y-34471871D01*
X138983958Y-35971871D02*
X138983958Y-34971871D01*
X138983958Y-34471871D02*
X138912529Y-34543300D01*
X138983958Y-34614729D01*
X139055386Y-34543300D01*
X138983958Y-34471871D01*
X138983958Y-34614729D01*
X139626815Y-35900443D02*
X139769672Y-35971871D01*
X140055387Y-35971871D01*
X140198244Y-35900443D01*
X140269672Y-35757586D01*
X140269672Y-35686157D01*
X140198244Y-35543300D01*
X140055387Y-35471871D01*
X139841101Y-35471871D01*
X139698244Y-35400443D01*
X139626815Y-35257586D01*
X139626815Y-35186157D01*
X139698244Y-35043300D01*
X139841101Y-34971871D01*
X140055387Y-34971871D01*
X140198244Y-35043300D01*
X140841101Y-35900443D02*
X140983958Y-35971871D01*
X141269673Y-35971871D01*
X141412530Y-35900443D01*
X141483958Y-35757586D01*
X141483958Y-35686157D01*
X141412530Y-35543300D01*
X141269673Y-35471871D01*
X141055387Y-35471871D01*
X140912530Y-35400443D01*
X140841101Y-35257586D01*
X140841101Y-35186157D01*
X140912530Y-35043300D01*
X141055387Y-34971871D01*
X141269673Y-34971871D01*
X141412530Y-35043300D01*
X142126816Y-35829014D02*
X142198244Y-35900443D01*
X142126816Y-35971871D01*
X142055387Y-35900443D01*
X142126816Y-35829014D01*
X142126816Y-35971871D01*
X142841102Y-34971871D02*
X142841102Y-36471871D01*
X142841102Y-35043300D02*
X142983959Y-34971871D01*
X143269673Y-34971871D01*
X143412530Y-35043300D01*
X143483959Y-35114729D01*
X143555388Y-35257586D01*
X143555388Y-35686157D01*
X143483959Y-35829014D01*
X143412530Y-35900443D01*
X143269673Y-35971871D01*
X142983959Y-35971871D01*
X142841102Y-35900443D01*
X144198245Y-34971871D02*
X144198245Y-36471871D01*
X144198245Y-35043300D02*
X144341102Y-34971871D01*
X144626816Y-34971871D01*
X144769673Y-35043300D01*
X144841102Y-35114729D01*
X144912531Y-35257586D01*
X144912531Y-35686157D01*
X144841102Y-35829014D01*
X144769673Y-35900443D01*
X144626816Y-35971871D01*
X144341102Y-35971871D01*
X144198245Y-35900443D01*
X145555388Y-35829014D02*
X145626816Y-35900443D01*
X145555388Y-35971871D01*
X145483959Y-35900443D01*
X145555388Y-35829014D01*
X145555388Y-35971871D01*
X146198245Y-35900443D02*
X146341102Y-35971871D01*
X146626817Y-35971871D01*
X146769674Y-35900443D01*
X146841102Y-35757586D01*
X146841102Y-35686157D01*
X146769674Y-35543300D01*
X146626817Y-35471871D01*
X146412531Y-35471871D01*
X146269674Y-35400443D01*
X146198245Y-35257586D01*
X146198245Y-35186157D01*
X146269674Y-35043300D01*
X146412531Y-34971871D01*
X146626817Y-34971871D01*
X146769674Y-35043300D01*
X148055388Y-35900443D02*
X147912531Y-35971871D01*
X147626817Y-35971871D01*
X147483960Y-35900443D01*
X147412531Y-35757586D01*
X147412531Y-35186157D01*
X147483960Y-35043300D01*
X147626817Y-34971871D01*
X147912531Y-34971871D01*
X148055388Y-35043300D01*
X148126817Y-35186157D01*
X148126817Y-35329014D01*
X147412531Y-35471871D01*
D12*
X107750300Y-52365400D02*
G75*
G02X107750300Y-54365400I0J-1000000D01*
G01*
X107750300Y-54365400D02*
X107750300Y-59825400D01*
X107750300Y-59825400D02*
X161210300Y-59825400D01*
X161210300Y-59825400D02*
X161210300Y-46905400D01*
X161210300Y-46905400D02*
X107750300Y-46905400D01*
X107750300Y-46905400D02*
X107750300Y-52365400D01*
X107690300Y-62315400D02*
X161270300Y-62315400D01*
X161270300Y-62315400D02*
X161270300Y-44415400D01*
X161270300Y-44415400D02*
X107690300Y-44415400D01*
X107690300Y-44415400D02*
X107690300Y-62315400D01*
X55718000Y-53078900D02*
X55718000Y-53778900D01*
X54518000Y-53778900D02*
X54518000Y-53078900D01*
X52568400Y-45941500D02*
X52568400Y-46641500D01*
X51368400Y-46641500D02*
X51368400Y-45941500D01*
X64970100Y-46679600D02*
X64970100Y-45979600D01*
X66170100Y-45979600D02*
X66170100Y-46679600D01*
X81835180Y-74197400D02*
X81835180Y-74597400D01*
X77255180Y-73427400D02*
X77255180Y-74597400D01*
X77255180Y-78007400D02*
X77255180Y-76837400D01*
X81835180Y-77237400D02*
X81835180Y-76837400D01*
X81065180Y-73427400D02*
X77255180Y-73427400D01*
X81065180Y-73427400D02*
X81835180Y-74197400D01*
X81065180Y-78007400D02*
X77255180Y-78007400D01*
X81065180Y-78007400D02*
X81835180Y-77237400D01*
X162620400Y-53956700D02*
X162620400Y-53256700D01*
X163820400Y-53256700D02*
X163820400Y-53956700D01*
X119709640Y-79643720D02*
X119709640Y-78943720D01*
X120909640Y-78943720D02*
X120909640Y-79643720D01*
X103804160Y-55417200D02*
X103804160Y-54717200D01*
X105004160Y-54717200D02*
X105004160Y-55417200D01*
X48739700Y-51273200D02*
X48739700Y-53273200D01*
X48739700Y-53273200D02*
X52589700Y-53273200D01*
X48739700Y-51273200D02*
X52589700Y-51273200D01*
X80705000Y-47392900D02*
X80705000Y-44732900D01*
X73025000Y-47392900D02*
X80705000Y-47392900D01*
X73025000Y-44732900D02*
X80705000Y-44732900D01*
X73025000Y-47392900D02*
X73025000Y-44732900D01*
X71755000Y-47392900D02*
X70425000Y-47392900D01*
X70425000Y-47392900D02*
X70425000Y-46062900D01*
X51439700Y-55975800D02*
X50439700Y-55975800D01*
X50439700Y-54615800D02*
X51439700Y-54615800D01*
X49724000Y-89937900D02*
X52384000Y-89937900D01*
X49724000Y-87337900D02*
X49724000Y-89937900D01*
X52384000Y-87337900D02*
X52384000Y-89937900D01*
X49724000Y-87337900D02*
X52384000Y-87337900D01*
X49724000Y-86067900D02*
X49724000Y-84737900D01*
X49724000Y-84737900D02*
X51054000Y-84737900D01*
X49851000Y-81428900D02*
X52511000Y-81428900D01*
X49851000Y-78828900D02*
X49851000Y-81428900D01*
X52511000Y-78828900D02*
X52511000Y-81428900D01*
X49851000Y-78828900D02*
X52511000Y-78828900D01*
X49851000Y-77558900D02*
X49851000Y-76228900D01*
X49851000Y-76228900D02*
X51181000Y-76228900D01*
X49978000Y-73681900D02*
X52638000Y-73681900D01*
X49978000Y-71081900D02*
X49978000Y-73681900D01*
X52638000Y-71081900D02*
X52638000Y-73681900D01*
X49978000Y-71081900D02*
X52638000Y-71081900D01*
X49978000Y-69811900D02*
X49978000Y-68481900D01*
X49978000Y-68481900D02*
X51308000Y-68481900D01*
X61948600Y-48854600D02*
X55548600Y-48854600D01*
X61948600Y-43804600D02*
X55548600Y-43804600D01*
X61948600Y-43804600D02*
G75*
G02X61948600Y-48854600I0J-2525000D01*
G01*
X55548600Y-43804600D02*
G75*
G03X55548600Y-48854600I0J-2525000D01*
G01*
X64380620Y-54588100D02*
G75*
G02X62380620Y-54588100I-1000000J0D01*
G01*
X62380620Y-54588100D02*
X60730620Y-54588100D01*
X60730620Y-54588100D02*
X60730620Y-90268100D01*
X60730620Y-90268100D02*
X66030620Y-90268100D01*
X66030620Y-90268100D02*
X66030620Y-54588100D01*
X66030620Y-54588100D02*
X64380620Y-54588100D01*
X151101100Y-99903600D02*
X151501100Y-99903600D01*
D13*
X124346800Y-82565240D02*
X124571800Y-82565240D01*
X124349340Y-73665080D02*
X124674340Y-73665080D01*
X144545220Y-73588880D02*
X144220220Y-73588880D01*
X144545220Y-84297520D02*
X144220220Y-84297520D01*
X124349340Y-82565240D02*
X124349340Y-73667620D01*
X144545220Y-84297520D02*
X144545220Y-73588880D01*
X124571800Y-82565240D02*
X124571800Y-83640240D01*
X106202681Y-54127305D02*
X107012205Y-54127305D01*
X107107443Y-54079686D01*
X107155062Y-54032067D01*
X107202681Y-53936829D01*
X107202681Y-53746352D01*
X107155062Y-53651114D01*
X107107443Y-53603495D01*
X107012205Y-53555876D01*
X106202681Y-53555876D01*
X106202681Y-53174924D02*
X106202681Y-52555876D01*
X106583633Y-52889210D01*
X106583633Y-52746352D01*
X106631252Y-52651114D01*
X106678871Y-52603495D01*
X106774110Y-52555876D01*
X107012205Y-52555876D01*
X107107443Y-52603495D01*
X107155062Y-52651114D01*
X107202681Y-52746352D01*
X107202681Y-53032067D01*
X107155062Y-53127305D01*
X107107443Y-53174924D01*
X53975143Y-53595566D02*
X54022762Y-53643185D01*
X54070381Y-53786042D01*
X54070381Y-53881280D01*
X54022762Y-54024138D01*
X53927524Y-54119376D01*
X53832286Y-54166995D01*
X53641810Y-54214614D01*
X53498952Y-54214614D01*
X53308476Y-54166995D01*
X53213238Y-54119376D01*
X53118000Y-54024138D01*
X53070381Y-53881280D01*
X53070381Y-53786042D01*
X53118000Y-53643185D01*
X53165619Y-53595566D01*
X54070381Y-52643185D02*
X54070381Y-53214614D01*
X54070381Y-52928900D02*
X53070381Y-52928900D01*
X53213238Y-53024138D01*
X53308476Y-53119376D01*
X53356095Y-53214614D01*
X50825543Y-46458166D02*
X50873162Y-46505785D01*
X50920781Y-46648642D01*
X50920781Y-46743880D01*
X50873162Y-46886738D01*
X50777924Y-46981976D01*
X50682686Y-47029595D01*
X50492210Y-47077214D01*
X50349352Y-47077214D01*
X50158876Y-47029595D01*
X50063638Y-46981976D01*
X49968400Y-46886738D01*
X49920781Y-46743880D01*
X49920781Y-46648642D01*
X49968400Y-46505785D01*
X50016019Y-46458166D01*
X50016019Y-46077214D02*
X49968400Y-46029595D01*
X49920781Y-45934357D01*
X49920781Y-45696261D01*
X49968400Y-45601023D01*
X50016019Y-45553404D01*
X50111257Y-45505785D01*
X50206495Y-45505785D01*
X50349352Y-45553404D01*
X50920781Y-46124833D01*
X50920781Y-45505785D01*
X67427243Y-46496266D02*
X67474862Y-46543885D01*
X67522481Y-46686742D01*
X67522481Y-46781980D01*
X67474862Y-46924838D01*
X67379624Y-47020076D01*
X67284386Y-47067695D01*
X67093910Y-47115314D01*
X66951052Y-47115314D01*
X66760576Y-47067695D01*
X66665338Y-47020076D01*
X66570100Y-46924838D01*
X66522481Y-46781980D01*
X66522481Y-46686742D01*
X66570100Y-46543885D01*
X66617719Y-46496266D01*
X66522481Y-46162933D02*
X66522481Y-45543885D01*
X66903433Y-45877219D01*
X66903433Y-45734361D01*
X66951052Y-45639123D01*
X66998671Y-45591504D01*
X67093910Y-45543885D01*
X67332005Y-45543885D01*
X67427243Y-45591504D01*
X67474862Y-45639123D01*
X67522481Y-45734361D01*
X67522481Y-46020076D01*
X67474862Y-46115314D01*
X67427243Y-46162933D01*
X79378514Y-72534543D02*
X79330895Y-72582162D01*
X79188038Y-72629781D01*
X79092800Y-72629781D01*
X78949942Y-72582162D01*
X78854704Y-72486924D01*
X78807085Y-72391686D01*
X78759466Y-72201210D01*
X78759466Y-72058352D01*
X78807085Y-71867876D01*
X78854704Y-71772638D01*
X78949942Y-71677400D01*
X79092800Y-71629781D01*
X79188038Y-71629781D01*
X79330895Y-71677400D01*
X79378514Y-71725019D01*
X80235657Y-71963114D02*
X80235657Y-72629781D01*
X79997561Y-71582162D02*
X79759466Y-72296448D01*
X80378514Y-72296448D01*
X81944228Y-73778829D02*
X82706133Y-73778829D01*
X82325181Y-74159781D02*
X82325181Y-73397876D01*
X165077543Y-53773366D02*
X165125162Y-53820985D01*
X165172781Y-53963842D01*
X165172781Y-54059080D01*
X165125162Y-54201938D01*
X165029924Y-54297176D01*
X164934686Y-54344795D01*
X164744210Y-54392414D01*
X164601352Y-54392414D01*
X164410876Y-54344795D01*
X164315638Y-54297176D01*
X164220400Y-54201938D01*
X164172781Y-54059080D01*
X164172781Y-53963842D01*
X164220400Y-53820985D01*
X164268019Y-53773366D01*
X164172781Y-52868604D02*
X164172781Y-53344795D01*
X164648971Y-53392414D01*
X164601352Y-53344795D01*
X164553733Y-53249557D01*
X164553733Y-53011461D01*
X164601352Y-52916223D01*
X164648971Y-52868604D01*
X164744210Y-52820985D01*
X164982305Y-52820985D01*
X165077543Y-52868604D01*
X165125162Y-52916223D01*
X165172781Y-53011461D01*
X165172781Y-53249557D01*
X165125162Y-53344795D01*
X165077543Y-53392414D01*
X122166783Y-79460386D02*
X122214402Y-79508005D01*
X122262021Y-79650862D01*
X122262021Y-79746100D01*
X122214402Y-79888958D01*
X122119164Y-79984196D01*
X122023926Y-80031815D01*
X121833450Y-80079434D01*
X121690592Y-80079434D01*
X121500116Y-80031815D01*
X121404878Y-79984196D01*
X121309640Y-79888958D01*
X121262021Y-79746100D01*
X121262021Y-79650862D01*
X121309640Y-79508005D01*
X121357259Y-79460386D01*
X121262021Y-78603243D02*
X121262021Y-78793720D01*
X121309640Y-78888958D01*
X121357259Y-78936577D01*
X121500116Y-79031815D01*
X121690592Y-79079434D01*
X122071545Y-79079434D01*
X122166783Y-79031815D01*
X122214402Y-78984196D01*
X122262021Y-78888958D01*
X122262021Y-78698481D01*
X122214402Y-78603243D01*
X122166783Y-78555624D01*
X122071545Y-78508005D01*
X121833450Y-78508005D01*
X121738211Y-78555624D01*
X121690592Y-78603243D01*
X121642973Y-78698481D01*
X121642973Y-78888958D01*
X121690592Y-78984196D01*
X121738211Y-79031815D01*
X121833450Y-79079434D01*
X106261303Y-55710057D02*
X106308922Y-55757676D01*
X106356541Y-55900533D01*
X106356541Y-55995771D01*
X106308922Y-56138629D01*
X106213684Y-56233867D01*
X106118446Y-56281486D01*
X105927970Y-56329105D01*
X105785112Y-56329105D01*
X105594636Y-56281486D01*
X105499398Y-56233867D01*
X105404160Y-56138629D01*
X105356541Y-55995771D01*
X105356541Y-55900533D01*
X105404160Y-55757676D01*
X105451779Y-55710057D01*
X106356541Y-54757676D02*
X106356541Y-55329105D01*
X106356541Y-55043391D02*
X105356541Y-55043391D01*
X105499398Y-55138629D01*
X105594636Y-55233867D01*
X105642255Y-55329105D01*
X105356541Y-54138629D02*
X105356541Y-54043390D01*
X105404160Y-53948152D01*
X105451779Y-53900533D01*
X105547017Y-53852914D01*
X105737493Y-53805295D01*
X105975589Y-53805295D01*
X106166065Y-53852914D01*
X106261303Y-53900533D01*
X106308922Y-53948152D01*
X106356541Y-54043390D01*
X106356541Y-54138629D01*
X106308922Y-54233867D01*
X106261303Y-54281486D01*
X106166065Y-54329105D01*
X105975589Y-54376724D01*
X105737493Y-54376724D01*
X105547017Y-54329105D01*
X105451779Y-54281486D01*
X105404160Y-54233867D01*
X105356541Y-54138629D01*
X50074605Y-50820581D02*
X50074605Y-49820581D01*
X50312700Y-49820581D01*
X50455558Y-49868200D01*
X50550796Y-49963438D01*
X50598415Y-50058676D01*
X50646034Y-50249152D01*
X50646034Y-50392010D01*
X50598415Y-50582486D01*
X50550796Y-50677724D01*
X50455558Y-50772962D01*
X50312700Y-50820581D01*
X50074605Y-50820581D01*
X51598415Y-50820581D02*
X51026986Y-50820581D01*
X51312700Y-50820581D02*
X51312700Y-49820581D01*
X51217462Y-49963438D01*
X51122224Y-50058676D01*
X51026986Y-50106295D01*
X68877381Y-46396233D02*
X69591667Y-46396233D01*
X69734524Y-46443853D01*
X69829762Y-46539091D01*
X69877381Y-46681948D01*
X69877381Y-46777186D01*
X68972619Y-45967662D02*
X68925000Y-45920043D01*
X68877381Y-45824805D01*
X68877381Y-45586709D01*
X68925000Y-45491471D01*
X68972619Y-45443852D01*
X69067857Y-45396233D01*
X69163095Y-45396233D01*
X69305952Y-45443852D01*
X69877381Y-46015281D01*
X69877381Y-45396233D01*
X50773034Y-54298181D02*
X50439700Y-53821990D01*
X50201605Y-54298181D02*
X50201605Y-53298181D01*
X50582558Y-53298181D01*
X50677796Y-53345800D01*
X50725415Y-53393419D01*
X50773034Y-53488657D01*
X50773034Y-53631514D01*
X50725415Y-53726752D01*
X50677796Y-53774371D01*
X50582558Y-53821990D01*
X50201605Y-53821990D01*
X51725415Y-54298181D02*
X51153986Y-54298181D01*
X51439700Y-54298181D02*
X51439700Y-53298181D01*
X51344462Y-53441038D01*
X51249224Y-53536276D01*
X51153986Y-53583895D01*
X49720667Y-84142662D02*
X49863524Y-84190281D01*
X50101620Y-84190281D01*
X50196858Y-84142662D01*
X50244477Y-84095043D01*
X50292096Y-83999805D01*
X50292096Y-83904567D01*
X50244477Y-83809329D01*
X50196858Y-83761710D01*
X50101620Y-83714090D01*
X49911143Y-83666471D01*
X49815905Y-83618852D01*
X49768286Y-83571233D01*
X49720667Y-83475995D01*
X49720667Y-83380757D01*
X49768286Y-83285519D01*
X49815905Y-83237900D01*
X49911143Y-83190281D01*
X50149239Y-83190281D01*
X50292096Y-83237900D01*
X50625429Y-83190281D02*
X50863524Y-84190281D01*
X51054001Y-83475995D01*
X51244477Y-84190281D01*
X51482572Y-83190281D01*
X52387334Y-84190281D02*
X51815905Y-84190281D01*
X52101619Y-84190281D02*
X52101619Y-83190281D01*
X52006381Y-83333138D01*
X51911143Y-83428376D01*
X51815905Y-83475995D01*
X49847667Y-75633662D02*
X49990524Y-75681281D01*
X50228620Y-75681281D01*
X50323858Y-75633662D01*
X50371477Y-75586043D01*
X50419096Y-75490805D01*
X50419096Y-75395567D01*
X50371477Y-75300329D01*
X50323858Y-75252710D01*
X50228620Y-75205090D01*
X50038143Y-75157471D01*
X49942905Y-75109852D01*
X49895286Y-75062233D01*
X49847667Y-74966995D01*
X49847667Y-74871757D01*
X49895286Y-74776519D01*
X49942905Y-74728900D01*
X50038143Y-74681281D01*
X50276239Y-74681281D01*
X50419096Y-74728900D01*
X50752429Y-74681281D02*
X50990524Y-75681281D01*
X51181001Y-74966995D01*
X51371477Y-75681281D01*
X51609572Y-74681281D01*
X51942905Y-74776519D02*
X51990524Y-74728900D01*
X52085762Y-74681281D01*
X52323858Y-74681281D01*
X52419096Y-74728900D01*
X52466715Y-74776519D01*
X52514334Y-74871757D01*
X52514334Y-74966995D01*
X52466715Y-75109852D01*
X51895286Y-75681281D01*
X52514334Y-75681281D01*
X49974667Y-67886662D02*
X50117524Y-67934281D01*
X50355620Y-67934281D01*
X50450858Y-67886662D01*
X50498477Y-67839043D01*
X50546096Y-67743805D01*
X50546096Y-67648567D01*
X50498477Y-67553329D01*
X50450858Y-67505710D01*
X50355620Y-67458090D01*
X50165143Y-67410471D01*
X50069905Y-67362852D01*
X50022286Y-67315233D01*
X49974667Y-67219995D01*
X49974667Y-67124757D01*
X50022286Y-67029519D01*
X50069905Y-66981900D01*
X50165143Y-66934281D01*
X50403239Y-66934281D01*
X50546096Y-66981900D01*
X50879429Y-66934281D02*
X51117524Y-67934281D01*
X51308001Y-67219995D01*
X51498477Y-67934281D01*
X51736572Y-66934281D01*
X52022286Y-66934281D02*
X52641334Y-66934281D01*
X52308000Y-67315233D01*
X52450858Y-67315233D01*
X52546096Y-67362852D01*
X52593715Y-67410471D01*
X52641334Y-67505710D01*
X52641334Y-67743805D01*
X52593715Y-67839043D01*
X52546096Y-67886662D01*
X52450858Y-67934281D01*
X52165143Y-67934281D01*
X52069905Y-67886662D01*
X52022286Y-67839043D01*
X58272409Y-49830790D02*
X58272409Y-50306981D01*
X57939076Y-49306981D02*
X58272409Y-49830790D01*
X58605743Y-49306981D01*
X59462886Y-50306981D02*
X58891457Y-50306981D01*
X59177171Y-50306981D02*
X59177171Y-49306981D01*
X59081933Y-49449838D01*
X58986695Y-49545076D01*
X58891457Y-49592695D01*
X62618715Y-53040481D02*
X62618715Y-53850005D01*
X62666334Y-53945243D01*
X62713953Y-53992862D01*
X62809191Y-54040481D01*
X62999668Y-54040481D01*
X63094906Y-53992862D01*
X63142525Y-53945243D01*
X63190144Y-53850005D01*
X63190144Y-53040481D01*
X64190144Y-54040481D02*
X63618715Y-54040481D01*
X63904429Y-54040481D02*
X63904429Y-53040481D01*
X63809191Y-53183338D01*
X63713953Y-53278576D01*
X63618715Y-53326195D01*
X87207767Y-97465981D02*
X87207767Y-98180267D01*
X87160147Y-98323124D01*
X87064909Y-98418362D01*
X86922052Y-98465981D01*
X86826814Y-98465981D01*
X88207767Y-98465981D02*
X87636338Y-98465981D01*
X87922052Y-98465981D02*
X87922052Y-97465981D01*
X87826814Y-97608838D01*
X87731576Y-97704076D01*
X87636338Y-97751695D01*
X127408081Y-79705105D02*
X128217605Y-79705105D01*
X128312843Y-79657486D01*
X128360462Y-79609867D01*
X128408081Y-79514629D01*
X128408081Y-79324152D01*
X128360462Y-79228914D01*
X128312843Y-79181295D01*
X128217605Y-79133676D01*
X127408081Y-79133676D01*
X127503319Y-78705105D02*
X127455700Y-78657486D01*
X127408081Y-78562248D01*
X127408081Y-78324152D01*
X127455700Y-78228914D01*
X127503319Y-78181295D01*
X127598557Y-78133676D01*
X127693795Y-78133676D01*
X127836652Y-78181295D01*
X128408081Y-78752724D01*
X128408081Y-78133676D01*
M02*
