%FSLAX45Y45*%
G04 Gerber Fmt 4.5, Leading zero omitted, Abs format (unit mm)*
G04 Created by KiCad (PCBNEW 4.0.7) date 07/31/18 15:23:33*
%MOMM*%
%LPD*%
G01*
G04 APERTURE LIST*
%ADD10C,0.127000*%
%ADD11C,0.150000*%
%ADD12C,0.200000*%
%ADD13C,0.300000*%
G04 APERTURE END LIST*
D10*
D11*
X15247620Y-3471480D02*
X15247620Y-4018000D01*
X17054000Y-4018000D02*
X15247620Y-4018000D01*
X6160770Y-4018000D02*
X6160770Y-3471480D01*
X6160770Y-4018000D02*
X4400000Y-4018000D01*
X15147620Y-10952988D02*
G75*
G03X15247620Y-10852988I0J100000D01*
G01*
X6160770Y-10852988D02*
G75*
G03X6260770Y-10952988I100000J0D01*
G01*
X6160770Y-10852988D02*
X6160770Y-9988550D01*
X7487412Y-10952988D02*
X6260770Y-10952988D01*
X7487412Y-10021824D02*
X7487412Y-10952988D01*
X7583424Y-10021824D02*
X7487412Y-10021824D01*
X7583424Y-10952988D02*
X7583424Y-10021824D01*
X14206728Y-10952988D02*
X7583424Y-10952988D01*
X14206728Y-10021824D02*
X14206728Y-10952988D01*
X14305788Y-10021824D02*
X14206728Y-10021824D01*
X14305788Y-10952988D02*
X14305788Y-10021824D01*
X15147620Y-10952988D02*
X14305788Y-10952988D01*
X15247620Y-9988550D02*
X15247620Y-10852988D01*
X15247620Y-9988550D02*
X17054000Y-9988550D01*
X6160770Y-9988550D02*
X4400000Y-9988550D01*
X4400000Y-4018000D02*
X4400000Y-9988550D01*
X15247620Y-3471480D02*
X6160770Y-3471480D01*
X17054000Y-9988550D02*
X17054000Y-4018000D01*
D12*
X10551000Y-6882988D02*
X10851000Y-7182988D01*
X10851000Y-6882988D02*
X10551000Y-7182988D01*
D13*
X4663929Y-11426202D02*
X4663929Y-11126202D01*
X4735357Y-11126202D01*
X4778214Y-11140488D01*
X4806786Y-11169060D01*
X4821071Y-11197631D01*
X4835357Y-11254774D01*
X4835357Y-11297631D01*
X4821071Y-11354774D01*
X4806786Y-11383345D01*
X4778214Y-11411917D01*
X4735357Y-11426202D01*
X4663929Y-11426202D01*
X4963929Y-11426202D02*
X4963929Y-11226202D01*
X4963929Y-11283345D02*
X4978214Y-11254774D01*
X4992500Y-11240488D01*
X5021071Y-11226202D01*
X5049643Y-11226202D01*
X5149643Y-11426202D02*
X5149643Y-11226202D01*
X5149643Y-11126202D02*
X5135357Y-11140488D01*
X5149643Y-11154774D01*
X5163929Y-11140488D01*
X5149643Y-11126202D01*
X5149643Y-11154774D01*
X5335357Y-11426202D02*
X5306786Y-11411917D01*
X5292500Y-11383345D01*
X5292500Y-11126202D01*
X5492500Y-11426202D02*
X5463929Y-11411917D01*
X5449643Y-11383345D01*
X5449643Y-11126202D01*
X5835357Y-11426202D02*
X5835357Y-11126202D01*
X5935357Y-11340488D01*
X6035357Y-11126202D01*
X6035357Y-11426202D01*
X6306786Y-11426202D02*
X6306786Y-11269059D01*
X6292500Y-11240488D01*
X6263928Y-11226202D01*
X6206786Y-11226202D01*
X6178214Y-11240488D01*
X6306786Y-11411917D02*
X6278214Y-11426202D01*
X6206786Y-11426202D01*
X6178214Y-11411917D01*
X6163928Y-11383345D01*
X6163928Y-11354774D01*
X6178214Y-11326202D01*
X6206786Y-11311917D01*
X6278214Y-11311917D01*
X6306786Y-11297631D01*
X6449643Y-11226202D02*
X6449643Y-11526202D01*
X6449643Y-11240488D02*
X6478214Y-11226202D01*
X6535357Y-11226202D01*
X6563928Y-11240488D01*
X6578214Y-11254774D01*
X6592500Y-11283345D01*
X6592500Y-11369059D01*
X6578214Y-11397631D01*
X6563928Y-11411917D01*
X6535357Y-11426202D01*
X6478214Y-11426202D01*
X6449643Y-11411917D01*
X6721071Y-11397631D02*
X6735357Y-11411917D01*
X6721071Y-11426202D01*
X6706786Y-11411917D01*
X6721071Y-11397631D01*
X6721071Y-11426202D01*
X6721071Y-11240488D02*
X6735357Y-11254774D01*
X6721071Y-11269059D01*
X6706786Y-11254774D01*
X6721071Y-11240488D01*
X6721071Y-11269059D01*
X4092500Y-11770488D02*
X4392500Y-12070488D01*
X4392500Y-11770488D02*
X4092500Y-12070488D01*
X4635357Y-11756202D02*
X4821071Y-11756202D01*
X4721071Y-11870488D01*
X4763929Y-11870488D01*
X4792500Y-11884774D01*
X4806786Y-11899059D01*
X4821071Y-11927631D01*
X4821071Y-11999059D01*
X4806786Y-12027631D01*
X4792500Y-12041917D01*
X4763929Y-12056202D01*
X4678214Y-12056202D01*
X4649643Y-12041917D01*
X4635357Y-12027631D01*
X4949643Y-12027631D02*
X4963929Y-12041917D01*
X4949643Y-12056202D01*
X4935357Y-12041917D01*
X4949643Y-12027631D01*
X4949643Y-12056202D01*
X5149643Y-11756202D02*
X5178214Y-11756202D01*
X5206786Y-11770488D01*
X5221071Y-11784774D01*
X5235357Y-11813345D01*
X5249643Y-11870488D01*
X5249643Y-11941917D01*
X5235357Y-11999059D01*
X5221071Y-12027631D01*
X5206786Y-12041917D01*
X5178214Y-12056202D01*
X5149643Y-12056202D01*
X5121071Y-12041917D01*
X5106786Y-12027631D01*
X5092500Y-11999059D01*
X5078214Y-11941917D01*
X5078214Y-11870488D01*
X5092500Y-11813345D01*
X5106786Y-11784774D01*
X5121071Y-11770488D01*
X5149643Y-11756202D01*
X5435357Y-11756202D02*
X5463929Y-11756202D01*
X5492500Y-11770488D01*
X5506786Y-11784774D01*
X5521071Y-11813345D01*
X5535357Y-11870488D01*
X5535357Y-11941917D01*
X5521071Y-11999059D01*
X5506786Y-12027631D01*
X5492500Y-12041917D01*
X5463929Y-12056202D01*
X5435357Y-12056202D01*
X5406786Y-12041917D01*
X5392500Y-12027631D01*
X5378214Y-11999059D01*
X5363929Y-11941917D01*
X5363929Y-11870488D01*
X5378214Y-11813345D01*
X5392500Y-11784774D01*
X5406786Y-11770488D01*
X5435357Y-11756202D01*
X5663928Y-12056202D02*
X5663928Y-11856202D01*
X5663928Y-11884774D02*
X5678214Y-11870488D01*
X5706786Y-11856202D01*
X5749643Y-11856202D01*
X5778214Y-11870488D01*
X5792500Y-11899059D01*
X5792500Y-12056202D01*
X5792500Y-11899059D02*
X5806786Y-11870488D01*
X5835357Y-11856202D01*
X5878214Y-11856202D01*
X5906786Y-11870488D01*
X5921071Y-11899059D01*
X5921071Y-12056202D01*
X6063928Y-12056202D02*
X6063928Y-11856202D01*
X6063928Y-11884774D02*
X6078214Y-11870488D01*
X6106786Y-11856202D01*
X6149643Y-11856202D01*
X6178214Y-11870488D01*
X6192500Y-11899059D01*
X6192500Y-12056202D01*
X6192500Y-11899059D02*
X6206786Y-11870488D01*
X6235357Y-11856202D01*
X6278214Y-11856202D01*
X6306786Y-11870488D01*
X6321071Y-11899059D01*
X6321071Y-12056202D01*
X6906786Y-11741917D02*
X6649643Y-12127631D01*
X7292500Y-11756202D02*
X7321071Y-11756202D01*
X7349643Y-11770488D01*
X7363928Y-11784774D01*
X7378214Y-11813345D01*
X7392500Y-11870488D01*
X7392500Y-11941917D01*
X7378214Y-11999059D01*
X7363928Y-12027631D01*
X7349643Y-12041917D01*
X7321071Y-12056202D01*
X7292500Y-12056202D01*
X7263928Y-12041917D01*
X7249643Y-12027631D01*
X7235357Y-11999059D01*
X7221071Y-11941917D01*
X7221071Y-11870488D01*
X7235357Y-11813345D01*
X7249643Y-11784774D01*
X7263928Y-11770488D01*
X7292500Y-11756202D01*
X7521071Y-12027631D02*
X7535357Y-12041917D01*
X7521071Y-12056202D01*
X7506786Y-12041917D01*
X7521071Y-12027631D01*
X7521071Y-12056202D01*
X7821071Y-12056202D02*
X7649643Y-12056202D01*
X7735357Y-12056202D02*
X7735357Y-11756202D01*
X7706785Y-11799059D01*
X7678214Y-11827631D01*
X7649643Y-11841917D01*
X8106785Y-12056202D02*
X7935357Y-12056202D01*
X8021071Y-12056202D02*
X8021071Y-11756202D01*
X7992500Y-11799059D01*
X7963928Y-11827631D01*
X7935357Y-11841917D01*
X8278214Y-11884774D02*
X8249643Y-11870488D01*
X8235357Y-11856202D01*
X8221071Y-11827631D01*
X8221071Y-11813345D01*
X8235357Y-11784774D01*
X8249643Y-11770488D01*
X8278214Y-11756202D01*
X8335357Y-11756202D01*
X8363928Y-11770488D01*
X8378214Y-11784774D01*
X8392500Y-11813345D01*
X8392500Y-11827631D01*
X8378214Y-11856202D01*
X8363928Y-11870488D01*
X8335357Y-11884774D01*
X8278214Y-11884774D01*
X8249643Y-11899059D01*
X8235357Y-11913345D01*
X8221071Y-11941917D01*
X8221071Y-11999059D01*
X8235357Y-12027631D01*
X8249643Y-12041917D01*
X8278214Y-12056202D01*
X8335357Y-12056202D01*
X8363928Y-12041917D01*
X8378214Y-12027631D01*
X8392500Y-11999059D01*
X8392500Y-11941917D01*
X8378214Y-11913345D01*
X8363928Y-11899059D01*
X8335357Y-11884774D01*
X8506786Y-11756202D02*
X8506786Y-11813345D01*
X8621071Y-11756202D02*
X8621071Y-11813345D01*
X9063928Y-12170488D02*
X9049643Y-12156202D01*
X9021071Y-12113345D01*
X9006786Y-12084774D01*
X8992500Y-12041917D01*
X8978214Y-11970488D01*
X8978214Y-11913345D01*
X8992500Y-11841917D01*
X9006786Y-11799059D01*
X9021071Y-11770488D01*
X9049643Y-11727631D01*
X9063928Y-11713345D01*
X9335357Y-12056202D02*
X9163928Y-12056202D01*
X9249643Y-12056202D02*
X9249643Y-11756202D01*
X9221071Y-11799059D01*
X9192500Y-11827631D01*
X9163928Y-11841917D01*
X9692500Y-12056202D02*
X9692500Y-11756202D01*
X9821071Y-12056202D02*
X9821071Y-11899059D01*
X9806786Y-11870488D01*
X9778214Y-11856202D01*
X9735357Y-11856202D01*
X9706786Y-11870488D01*
X9692500Y-11884774D01*
X10006786Y-12056202D02*
X9978214Y-12041917D01*
X9963928Y-12027631D01*
X9949643Y-11999059D01*
X9949643Y-11913345D01*
X9963928Y-11884774D01*
X9978214Y-11870488D01*
X10006786Y-11856202D01*
X10049643Y-11856202D01*
X10078214Y-11870488D01*
X10092500Y-11884774D01*
X10106786Y-11913345D01*
X10106786Y-11999059D01*
X10092500Y-12027631D01*
X10078214Y-12041917D01*
X10049643Y-12056202D01*
X10006786Y-12056202D01*
X10278214Y-12056202D02*
X10249643Y-12041917D01*
X10235357Y-12013345D01*
X10235357Y-11756202D01*
X10506786Y-12041917D02*
X10478214Y-12056202D01*
X10421071Y-12056202D01*
X10392500Y-12041917D01*
X10378214Y-12013345D01*
X10378214Y-11899059D01*
X10392500Y-11870488D01*
X10421071Y-11856202D01*
X10478214Y-11856202D01*
X10506786Y-11870488D01*
X10521071Y-11899059D01*
X10521071Y-11927631D01*
X10378214Y-11956202D01*
X10621071Y-12170488D02*
X10635357Y-12156202D01*
X10663929Y-12113345D01*
X10678214Y-12084774D01*
X10692500Y-12041917D01*
X10706786Y-11970488D01*
X10706786Y-11913345D01*
X10692500Y-11841917D01*
X10678214Y-11799059D01*
X10663929Y-11770488D01*
X10635357Y-11727631D01*
X10621071Y-11713345D01*
X11163929Y-12170488D02*
X11149643Y-12156202D01*
X11121071Y-12113345D01*
X11106786Y-12084774D01*
X11092500Y-12041917D01*
X11078214Y-11970488D01*
X11078214Y-11913345D01*
X11092500Y-11841917D01*
X11106786Y-11799059D01*
X11121071Y-11770488D01*
X11149643Y-11727631D01*
X11163929Y-11713345D01*
X11278214Y-11856202D02*
X11278214Y-12056202D01*
X11278214Y-11884774D02*
X11292500Y-11870488D01*
X11321071Y-11856202D01*
X11363928Y-11856202D01*
X11392500Y-11870488D01*
X11406786Y-11899059D01*
X11406786Y-12056202D01*
X11592500Y-12056202D02*
X11563928Y-12041917D01*
X11549643Y-12027631D01*
X11535357Y-11999059D01*
X11535357Y-11913345D01*
X11549643Y-11884774D01*
X11563928Y-11870488D01*
X11592500Y-11856202D01*
X11635357Y-11856202D01*
X11663928Y-11870488D01*
X11678214Y-11884774D01*
X11692500Y-11913345D01*
X11692500Y-11999059D01*
X11678214Y-12027631D01*
X11663928Y-12041917D01*
X11635357Y-12056202D01*
X11592500Y-12056202D01*
X11778214Y-11856202D02*
X11892500Y-11856202D01*
X11821071Y-11756202D02*
X11821071Y-12013345D01*
X11835357Y-12041917D01*
X11863928Y-12056202D01*
X11892500Y-12056202D01*
X12221071Y-11856202D02*
X12221071Y-12156202D01*
X12221071Y-11870488D02*
X12249643Y-11856202D01*
X12306786Y-11856202D01*
X12335357Y-11870488D01*
X12349643Y-11884774D01*
X12363928Y-11913345D01*
X12363928Y-11999059D01*
X12349643Y-12027631D01*
X12335357Y-12041917D01*
X12306786Y-12056202D01*
X12249643Y-12056202D01*
X12221071Y-12041917D01*
X12535357Y-12056202D02*
X12506786Y-12041917D01*
X12492500Y-12013345D01*
X12492500Y-11756202D01*
X12778214Y-12056202D02*
X12778214Y-11899059D01*
X12763929Y-11870488D01*
X12735357Y-11856202D01*
X12678214Y-11856202D01*
X12649643Y-11870488D01*
X12778214Y-12041917D02*
X12749643Y-12056202D01*
X12678214Y-12056202D01*
X12649643Y-12041917D01*
X12635357Y-12013345D01*
X12635357Y-11984774D01*
X12649643Y-11956202D01*
X12678214Y-11941917D01*
X12749643Y-11941917D01*
X12778214Y-11927631D01*
X12878214Y-11856202D02*
X12992500Y-11856202D01*
X12921071Y-11756202D02*
X12921071Y-12013345D01*
X12935357Y-12041917D01*
X12963929Y-12056202D01*
X12992500Y-12056202D01*
X13206786Y-12041917D02*
X13178214Y-12056202D01*
X13121071Y-12056202D01*
X13092500Y-12041917D01*
X13078214Y-12013345D01*
X13078214Y-11899059D01*
X13092500Y-11870488D01*
X13121071Y-11856202D01*
X13178214Y-11856202D01*
X13206786Y-11870488D01*
X13221071Y-11899059D01*
X13221071Y-11927631D01*
X13078214Y-11956202D01*
X13478214Y-12056202D02*
X13478214Y-11756202D01*
X13478214Y-12041917D02*
X13449643Y-12056202D01*
X13392500Y-12056202D01*
X13363929Y-12041917D01*
X13349643Y-12027631D01*
X13335357Y-11999059D01*
X13335357Y-11913345D01*
X13349643Y-11884774D01*
X13363929Y-11870488D01*
X13392500Y-11856202D01*
X13449643Y-11856202D01*
X13478214Y-11870488D01*
X13592500Y-12170488D02*
X13606786Y-12156202D01*
X13635357Y-12113345D01*
X13649643Y-12084774D01*
X13663929Y-12041917D01*
X13678214Y-11970488D01*
X13678214Y-11913345D01*
X13663929Y-11841917D01*
X13649643Y-11799059D01*
X13635357Y-11770488D01*
X13606786Y-11727631D01*
X13592500Y-11713345D01*
M02*
