G04 #@! TF.FileFunction,Legend,Bot*
%FSLAX46Y46*%
G04 Gerber Fmt 4.6, Leading zero omitted, Abs format (unit mm)*
G04 Created by KiCad (PCBNEW 4.0.7) date 07/31/18 15:23:29*
%MOMM*%
%LPD*%
G01*
G04 APERTURE LIST*
%ADD10C,0.100000*%
%ADD11C,0.200000*%
%ADD12C,0.300000*%
%ADD13C,0.120000*%
%ADD14C,0.150000*%
G04 APERTURE END LIST*
D10*
D11*
X79968395Y-65740000D02*
G75*
G03X79968395Y-65740000I-248395J0D01*
G01*
X80297099Y-53840000D02*
G75*
G03X80297099Y-53840000I-257099J0D01*
G01*
X93730227Y-42610000D02*
G75*
G03X93730227Y-42610000I-220227J0D01*
G01*
X103114391Y-79290000D02*
G75*
G03X103114391Y-79290000I-184391J0D01*
G01*
X103990227Y-69210000D02*
G75*
G03X103990227Y-69210000I-220227J0D01*
G01*
X103352485Y-59090000D02*
G75*
G03X103352485Y-59090000I-202485J0D01*
G01*
D12*
X88914284Y-55858571D02*
X87914284Y-55858571D01*
X88557141Y-57358571D01*
X86699999Y-56358571D02*
X86699999Y-57358571D01*
X87057142Y-55787143D02*
X87414285Y-56858571D01*
X86485713Y-56858571D01*
X85199999Y-57358571D02*
X85914285Y-57358571D01*
X85914285Y-55858571D01*
X84771428Y-57287143D02*
X84557142Y-57358571D01*
X84199999Y-57358571D01*
X84057142Y-57287143D01*
X83985713Y-57215714D01*
X83914285Y-57072857D01*
X83914285Y-56930000D01*
X83985713Y-56787143D01*
X84057142Y-56715714D01*
X84199999Y-56644286D01*
X84485713Y-56572857D01*
X84628571Y-56501429D01*
X84699999Y-56430000D01*
X84771428Y-56287143D01*
X84771428Y-56144286D01*
X84699999Y-56001429D01*
X84628571Y-55930000D01*
X84485713Y-55858571D01*
X84128571Y-55858571D01*
X83914285Y-55930000D01*
X83414285Y-55858571D02*
X82485714Y-55858571D01*
X82985714Y-56430000D01*
X82771428Y-56430000D01*
X82628571Y-56501429D01*
X82557142Y-56572857D01*
X82485714Y-56715714D01*
X82485714Y-57072857D01*
X82557142Y-57215714D01*
X82628571Y-57287143D01*
X82771428Y-57358571D01*
X83200000Y-57358571D01*
X83342857Y-57287143D01*
X83414285Y-57215714D01*
X81914286Y-56001429D02*
X81842857Y-55930000D01*
X81700000Y-55858571D01*
X81342857Y-55858571D01*
X81200000Y-55930000D01*
X81128571Y-56001429D01*
X81057143Y-56144286D01*
X81057143Y-56287143D01*
X81128571Y-56501429D01*
X81985714Y-57358571D01*
X81057143Y-57358571D01*
X88504284Y-67618571D02*
X87504284Y-67618571D01*
X88147141Y-69118571D01*
X86289999Y-68118571D02*
X86289999Y-69118571D01*
X86647142Y-67547143D02*
X87004285Y-68618571D01*
X86075713Y-68618571D01*
X84789999Y-69118571D02*
X85504285Y-69118571D01*
X85504285Y-67618571D01*
X84361428Y-69047143D02*
X84147142Y-69118571D01*
X83789999Y-69118571D01*
X83647142Y-69047143D01*
X83575713Y-68975714D01*
X83504285Y-68832857D01*
X83504285Y-68690000D01*
X83575713Y-68547143D01*
X83647142Y-68475714D01*
X83789999Y-68404286D01*
X84075713Y-68332857D01*
X84218571Y-68261429D01*
X84289999Y-68190000D01*
X84361428Y-68047143D01*
X84361428Y-67904286D01*
X84289999Y-67761429D01*
X84218571Y-67690000D01*
X84075713Y-67618571D01*
X83718571Y-67618571D01*
X83504285Y-67690000D01*
X82932857Y-67761429D02*
X82861428Y-67690000D01*
X82718571Y-67618571D01*
X82361428Y-67618571D01*
X82218571Y-67690000D01*
X82147142Y-67761429D01*
X82075714Y-67904286D01*
X82075714Y-68047143D01*
X82147142Y-68261429D01*
X83004285Y-69118571D01*
X82075714Y-69118571D01*
X80647143Y-69118571D02*
X81504286Y-69118571D01*
X81075714Y-69118571D02*
X81075714Y-67618571D01*
X81218571Y-67832857D01*
X81361429Y-67975714D01*
X81504286Y-68047143D01*
X102004284Y-75748571D02*
X101004284Y-75748571D01*
X101647141Y-77248571D01*
X99789999Y-76248571D02*
X99789999Y-77248571D01*
X100147142Y-75677143D02*
X100504285Y-76748571D01*
X99575713Y-76748571D01*
X98289999Y-77248571D02*
X99004285Y-77248571D01*
X99004285Y-75748571D01*
X97861428Y-77177143D02*
X97647142Y-77248571D01*
X97289999Y-77248571D01*
X97147142Y-77177143D01*
X97075713Y-77105714D01*
X97004285Y-76962857D01*
X97004285Y-76820000D01*
X97075713Y-76677143D01*
X97147142Y-76605714D01*
X97289999Y-76534286D01*
X97575713Y-76462857D01*
X97718571Y-76391429D01*
X97789999Y-76320000D01*
X97861428Y-76177143D01*
X97861428Y-76034286D01*
X97789999Y-75891429D01*
X97718571Y-75820000D01*
X97575713Y-75748571D01*
X97218571Y-75748571D01*
X97004285Y-75820000D01*
X96504285Y-75748571D02*
X95575714Y-75748571D01*
X96075714Y-76320000D01*
X95861428Y-76320000D01*
X95718571Y-76391429D01*
X95647142Y-76462857D01*
X95575714Y-76605714D01*
X95575714Y-76962857D01*
X95647142Y-77105714D01*
X95718571Y-77177143D01*
X95861428Y-77248571D01*
X96290000Y-77248571D01*
X96432857Y-77177143D01*
X96504285Y-77105714D01*
X95004286Y-75891429D02*
X94932857Y-75820000D01*
X94790000Y-75748571D01*
X94432857Y-75748571D01*
X94290000Y-75820000D01*
X94218571Y-75891429D01*
X94147143Y-76034286D01*
X94147143Y-76177143D01*
X94218571Y-76391429D01*
X95075714Y-77248571D01*
X94147143Y-77248571D01*
X102858570Y-65758571D02*
X101858570Y-65758571D01*
X102501427Y-67258571D01*
X100644285Y-66258571D02*
X100644285Y-67258571D01*
X101001428Y-65687143D02*
X101358571Y-66758571D01*
X100429999Y-66758571D01*
X99144285Y-67258571D02*
X99858571Y-67258571D01*
X99858571Y-65758571D01*
X98715714Y-67187143D02*
X98501428Y-67258571D01*
X98144285Y-67258571D01*
X98001428Y-67187143D01*
X97929999Y-67115714D01*
X97858571Y-66972857D01*
X97858571Y-66830000D01*
X97929999Y-66687143D01*
X98001428Y-66615714D01*
X98144285Y-66544286D01*
X98429999Y-66472857D01*
X98572857Y-66401429D01*
X98644285Y-66330000D01*
X98715714Y-66187143D01*
X98715714Y-66044286D01*
X98644285Y-65901429D01*
X98572857Y-65830000D01*
X98429999Y-65758571D01*
X98072857Y-65758571D01*
X97858571Y-65830000D01*
X96430000Y-67258571D02*
X97287143Y-67258571D01*
X96858571Y-67258571D02*
X96858571Y-65758571D01*
X97001428Y-65972857D01*
X97144286Y-66115714D01*
X97287143Y-66187143D01*
X95144286Y-66258571D02*
X95144286Y-67258571D01*
X95501429Y-65687143D02*
X95858572Y-66758571D01*
X94930000Y-66758571D01*
X94144286Y-66401429D02*
X94287144Y-66330000D01*
X94358572Y-66258571D01*
X94430001Y-66115714D01*
X94430001Y-66044286D01*
X94358572Y-65901429D01*
X94287144Y-65830000D01*
X94144286Y-65758571D01*
X93858572Y-65758571D01*
X93715715Y-65830000D01*
X93644286Y-65901429D01*
X93572858Y-66044286D01*
X93572858Y-66115714D01*
X93644286Y-66258571D01*
X93715715Y-66330000D01*
X93858572Y-66401429D01*
X94144286Y-66401429D01*
X94287144Y-66472857D01*
X94358572Y-66544286D01*
X94430001Y-66687143D01*
X94430001Y-66972857D01*
X94358572Y-67115714D01*
X94287144Y-67187143D01*
X94144286Y-67258571D01*
X93858572Y-67258571D01*
X93715715Y-67187143D01*
X93644286Y-67115714D01*
X93572858Y-66972857D01*
X93572858Y-66687143D01*
X93644286Y-66544286D01*
X93715715Y-66472857D01*
X93858572Y-66401429D01*
X102144284Y-55638571D02*
X101144284Y-55638571D01*
X101787141Y-57138571D01*
X99929999Y-56138571D02*
X99929999Y-57138571D01*
X100287142Y-55567143D02*
X100644285Y-56638571D01*
X99715713Y-56638571D01*
X98429999Y-57138571D02*
X99144285Y-57138571D01*
X99144285Y-55638571D01*
X98001428Y-57067143D02*
X97787142Y-57138571D01*
X97429999Y-57138571D01*
X97287142Y-57067143D01*
X97215713Y-56995714D01*
X97144285Y-56852857D01*
X97144285Y-56710000D01*
X97215713Y-56567143D01*
X97287142Y-56495714D01*
X97429999Y-56424286D01*
X97715713Y-56352857D01*
X97858571Y-56281429D01*
X97929999Y-56210000D01*
X98001428Y-56067143D01*
X98001428Y-55924286D01*
X97929999Y-55781429D01*
X97858571Y-55710000D01*
X97715713Y-55638571D01*
X97358571Y-55638571D01*
X97144285Y-55710000D01*
X96644285Y-55638571D02*
X95715714Y-55638571D01*
X96215714Y-56210000D01*
X96001428Y-56210000D01*
X95858571Y-56281429D01*
X95787142Y-56352857D01*
X95715714Y-56495714D01*
X95715714Y-56852857D01*
X95787142Y-56995714D01*
X95858571Y-57067143D01*
X96001428Y-57138571D01*
X96430000Y-57138571D01*
X96572857Y-57067143D01*
X96644285Y-56995714D01*
X95144286Y-55781429D02*
X95072857Y-55710000D01*
X94930000Y-55638571D01*
X94572857Y-55638571D01*
X94430000Y-55710000D01*
X94358571Y-55781429D01*
X94287143Y-55924286D01*
X94287143Y-56067143D01*
X94358571Y-56281429D01*
X95215714Y-57138571D01*
X94287143Y-57138571D01*
X102244284Y-44498571D02*
X101244284Y-44498571D01*
X101887141Y-45998571D01*
X100029999Y-44998571D02*
X100029999Y-45998571D01*
X100387142Y-44427143D02*
X100744285Y-45498571D01*
X99815713Y-45498571D01*
X98529999Y-45998571D02*
X99244285Y-45998571D01*
X99244285Y-44498571D01*
X98101428Y-45927143D02*
X97887142Y-45998571D01*
X97529999Y-45998571D01*
X97387142Y-45927143D01*
X97315713Y-45855714D01*
X97244285Y-45712857D01*
X97244285Y-45570000D01*
X97315713Y-45427143D01*
X97387142Y-45355714D01*
X97529999Y-45284286D01*
X97815713Y-45212857D01*
X97958571Y-45141429D01*
X98029999Y-45070000D01*
X98101428Y-44927143D01*
X98101428Y-44784286D01*
X98029999Y-44641429D01*
X97958571Y-44570000D01*
X97815713Y-44498571D01*
X97458571Y-44498571D01*
X97244285Y-44570000D01*
X96672857Y-44641429D02*
X96601428Y-44570000D01*
X96458571Y-44498571D01*
X96101428Y-44498571D01*
X95958571Y-44570000D01*
X95887142Y-44641429D01*
X95815714Y-44784286D01*
X95815714Y-44927143D01*
X95887142Y-45141429D01*
X96744285Y-45998571D01*
X95815714Y-45998571D01*
X94387143Y-45998571D02*
X95244286Y-45998571D01*
X94815714Y-45998571D02*
X94815714Y-44498571D01*
X94958571Y-44712857D01*
X95101429Y-44855714D01*
X95244286Y-44927143D01*
D13*
X79898800Y-60446400D02*
X79898800Y-59746400D01*
X78698800Y-59746400D02*
X78698800Y-60446400D01*
X77967280Y-67711840D02*
X77967280Y-68411840D01*
X79167280Y-68411840D02*
X79167280Y-67711840D01*
X90389000Y-46578000D02*
X90389000Y-45878000D01*
X89189000Y-45878000D02*
X89189000Y-46578000D01*
X85577300Y-73919800D02*
X84577300Y-73919800D01*
X84577300Y-75279800D02*
X85577300Y-75279800D01*
X89109000Y-42349800D02*
X89109000Y-43349800D01*
X90469000Y-43349800D02*
X90469000Y-42349800D01*
D14*
X93873400Y-43228440D02*
X93898400Y-43228440D01*
X93873400Y-47378440D02*
X93988400Y-47378440D01*
X102773400Y-47378440D02*
X102658400Y-47378440D01*
X102773400Y-43228440D02*
X102658400Y-43228440D01*
X93873400Y-43228440D02*
X93873400Y-47378440D01*
X102773400Y-43228440D02*
X102773400Y-47378440D01*
X93898400Y-43228440D02*
X93898400Y-41853440D01*
X80132000Y-66390700D02*
X80157000Y-66390700D01*
X80132000Y-70540700D02*
X80247000Y-70540700D01*
X89032000Y-70540700D02*
X88917000Y-70540700D01*
X89032000Y-66390700D02*
X88917000Y-66390700D01*
X80132000Y-66390700D02*
X80132000Y-70540700D01*
X89032000Y-66390700D02*
X89032000Y-70540700D01*
X80157000Y-66390700D02*
X80157000Y-65015700D01*
X102519400Y-78546780D02*
X102494400Y-78546780D01*
X102519400Y-74396780D02*
X102404400Y-74396780D01*
X93619400Y-74396780D02*
X93734400Y-74396780D01*
X93619400Y-78546780D02*
X93734400Y-78546780D01*
X102519400Y-78546780D02*
X102519400Y-74396780D01*
X93619400Y-78546780D02*
X93619400Y-74396780D01*
X102494400Y-78546780D02*
X102494400Y-79921780D01*
D13*
X92354960Y-67014840D02*
X92354960Y-66314840D01*
X91154960Y-66314840D02*
X91154960Y-67014840D01*
D14*
X103312040Y-68572200D02*
X103287040Y-68572200D01*
X103312040Y-64422200D02*
X103207040Y-64422200D01*
X93162040Y-64422200D02*
X93267040Y-64422200D01*
X93162040Y-68572200D02*
X93267040Y-68572200D01*
X103312040Y-68572200D02*
X103312040Y-64422200D01*
X93162040Y-68572200D02*
X93162040Y-64422200D01*
X103287040Y-68572200D02*
X103287040Y-69947200D01*
X80528240Y-54414600D02*
X80553240Y-54414600D01*
X80528240Y-58564600D02*
X80643240Y-58564600D01*
X89428240Y-58564600D02*
X89313240Y-58564600D01*
X89428240Y-54414600D02*
X89313240Y-54414600D01*
X80528240Y-54414600D02*
X80528240Y-58564600D01*
X89428240Y-54414600D02*
X89428240Y-58564600D01*
X80553240Y-54414600D02*
X80553240Y-53039600D01*
X102748000Y-58424900D02*
X102723000Y-58424900D01*
X102748000Y-54274900D02*
X102633000Y-54274900D01*
X93848000Y-54274900D02*
X93963000Y-54274900D01*
X93848000Y-58424900D02*
X93963000Y-58424900D01*
X102748000Y-58424900D02*
X102748000Y-54274900D01*
X93848000Y-58424900D02*
X93848000Y-54274900D01*
X102723000Y-58424900D02*
X102723000Y-59799900D01*
X78155943Y-59929734D02*
X78203562Y-59882115D01*
X78251181Y-59739258D01*
X78251181Y-59644020D01*
X78203562Y-59501162D01*
X78108324Y-59405924D01*
X78013086Y-59358305D01*
X77822610Y-59310686D01*
X77679752Y-59310686D01*
X77489276Y-59358305D01*
X77394038Y-59405924D01*
X77298800Y-59501162D01*
X77251181Y-59644020D01*
X77251181Y-59739258D01*
X77298800Y-59882115D01*
X77346419Y-59929734D01*
X77251181Y-60263067D02*
X77251181Y-60929734D01*
X78251181Y-60501162D01*
X77667143Y-67893334D02*
X77714762Y-67845715D01*
X77762381Y-67702858D01*
X77762381Y-67607620D01*
X77714762Y-67464762D01*
X77619524Y-67369524D01*
X77524286Y-67321905D01*
X77333810Y-67274286D01*
X77190952Y-67274286D01*
X77000476Y-67321905D01*
X76905238Y-67369524D01*
X76810000Y-67464762D01*
X76762381Y-67607620D01*
X76762381Y-67702858D01*
X76810000Y-67845715D01*
X76857619Y-67893334D01*
X77190952Y-68464762D02*
X77143333Y-68369524D01*
X77095714Y-68321905D01*
X77000476Y-68274286D01*
X76952857Y-68274286D01*
X76857619Y-68321905D01*
X76810000Y-68369524D01*
X76762381Y-68464762D01*
X76762381Y-68655239D01*
X76810000Y-68750477D01*
X76857619Y-68798096D01*
X76952857Y-68845715D01*
X77000476Y-68845715D01*
X77095714Y-68798096D01*
X77143333Y-68750477D01*
X77190952Y-68655239D01*
X77190952Y-68464762D01*
X77238571Y-68369524D01*
X77286190Y-68321905D01*
X77381429Y-68274286D01*
X77571905Y-68274286D01*
X77667143Y-68321905D01*
X77714762Y-68369524D01*
X77762381Y-68464762D01*
X77762381Y-68655239D01*
X77714762Y-68750477D01*
X77667143Y-68798096D01*
X77571905Y-68845715D01*
X77381429Y-68845715D01*
X77286190Y-68798096D01*
X77238571Y-68750477D01*
X77190952Y-68655239D01*
X88646143Y-46061334D02*
X88693762Y-46013715D01*
X88741381Y-45870858D01*
X88741381Y-45775620D01*
X88693762Y-45632762D01*
X88598524Y-45537524D01*
X88503286Y-45489905D01*
X88312810Y-45442286D01*
X88169952Y-45442286D01*
X87979476Y-45489905D01*
X87884238Y-45537524D01*
X87789000Y-45632762D01*
X87741381Y-45775620D01*
X87741381Y-45870858D01*
X87789000Y-46013715D01*
X87836619Y-46061334D01*
X88741381Y-46537524D02*
X88741381Y-46728000D01*
X88693762Y-46823239D01*
X88646143Y-46870858D01*
X88503286Y-46966096D01*
X88312810Y-47013715D01*
X87931857Y-47013715D01*
X87836619Y-46966096D01*
X87789000Y-46918477D01*
X87741381Y-46823239D01*
X87741381Y-46632762D01*
X87789000Y-46537524D01*
X87836619Y-46489905D01*
X87931857Y-46442286D01*
X88169952Y-46442286D01*
X88265190Y-46489905D01*
X88312810Y-46537524D01*
X88360429Y-46632762D01*
X88360429Y-46823239D01*
X88312810Y-46918477D01*
X88265190Y-46966096D01*
X88169952Y-47013715D01*
X85243966Y-76502181D02*
X85577300Y-76025990D01*
X85815395Y-76502181D02*
X85815395Y-75502181D01*
X85434442Y-75502181D01*
X85339204Y-75549800D01*
X85291585Y-75597419D01*
X85243966Y-75692657D01*
X85243966Y-75835514D01*
X85291585Y-75930752D01*
X85339204Y-75978371D01*
X85434442Y-76025990D01*
X85815395Y-76025990D01*
X84863014Y-75597419D02*
X84815395Y-75549800D01*
X84720157Y-75502181D01*
X84482061Y-75502181D01*
X84386823Y-75549800D01*
X84339204Y-75597419D01*
X84291585Y-75692657D01*
X84291585Y-75787895D01*
X84339204Y-75930752D01*
X84910633Y-76502181D01*
X84291585Y-76502181D01*
X91691381Y-42683134D02*
X91215190Y-42349800D01*
X91691381Y-42111705D02*
X90691381Y-42111705D01*
X90691381Y-42492658D01*
X90739000Y-42587896D01*
X90786619Y-42635515D01*
X90881857Y-42683134D01*
X91024714Y-42683134D01*
X91119952Y-42635515D01*
X91167571Y-42587896D01*
X91215190Y-42492658D01*
X91215190Y-42111705D01*
X90691381Y-43016467D02*
X90691381Y-43635515D01*
X91072333Y-43302181D01*
X91072333Y-43445039D01*
X91119952Y-43540277D01*
X91167571Y-43587896D01*
X91262810Y-43635515D01*
X91500905Y-43635515D01*
X91596143Y-43587896D01*
X91643762Y-43540277D01*
X91691381Y-43445039D01*
X91691381Y-43159324D01*
X91643762Y-43064086D01*
X91596143Y-43016467D01*
X92400781Y-44541535D02*
X93210305Y-44541535D01*
X93305543Y-44589154D01*
X93353162Y-44636773D01*
X93400781Y-44732011D01*
X93400781Y-44922488D01*
X93353162Y-45017726D01*
X93305543Y-45065345D01*
X93210305Y-45112964D01*
X92400781Y-45112964D01*
X92400781Y-46065345D02*
X92400781Y-45589154D01*
X92876971Y-45541535D01*
X92829352Y-45589154D01*
X92781733Y-45684392D01*
X92781733Y-45922488D01*
X92829352Y-46017726D01*
X92876971Y-46065345D01*
X92972210Y-46112964D01*
X93210305Y-46112964D01*
X93305543Y-46065345D01*
X93353162Y-46017726D01*
X93400781Y-45922488D01*
X93400781Y-45684392D01*
X93353162Y-45589154D01*
X93305543Y-45541535D01*
X89592381Y-69498095D02*
X90401905Y-69498095D01*
X90497143Y-69545714D01*
X90544762Y-69593333D01*
X90592381Y-69688571D01*
X90592381Y-69879048D01*
X90544762Y-69974286D01*
X90497143Y-70021905D01*
X90401905Y-70069524D01*
X89592381Y-70069524D01*
X89592381Y-70974286D02*
X89592381Y-70783809D01*
X89640000Y-70688571D01*
X89687619Y-70640952D01*
X89830476Y-70545714D01*
X90020952Y-70498095D01*
X90401905Y-70498095D01*
X90497143Y-70545714D01*
X90544762Y-70593333D01*
X90592381Y-70688571D01*
X90592381Y-70879048D01*
X90544762Y-70974286D01*
X90497143Y-71021905D01*
X90401905Y-71069524D01*
X90163810Y-71069524D01*
X90068571Y-71021905D01*
X90020952Y-70974286D01*
X89973333Y-70879048D01*
X89973333Y-70688571D01*
X90020952Y-70593333D01*
X90068571Y-70545714D01*
X90163810Y-70498095D01*
X102896781Y-75709875D02*
X103706305Y-75709875D01*
X103801543Y-75757494D01*
X103849162Y-75805113D01*
X103896781Y-75900351D01*
X103896781Y-76090828D01*
X103849162Y-76186066D01*
X103801543Y-76233685D01*
X103706305Y-76281304D01*
X102896781Y-76281304D01*
X102896781Y-76662256D02*
X102896781Y-77328923D01*
X103896781Y-76900351D01*
X90612103Y-66021983D02*
X90659722Y-65974364D01*
X90707341Y-65831507D01*
X90707341Y-65736269D01*
X90659722Y-65593411D01*
X90564484Y-65498173D01*
X90469246Y-65450554D01*
X90278770Y-65402935D01*
X90135912Y-65402935D01*
X89945436Y-65450554D01*
X89850198Y-65498173D01*
X89754960Y-65593411D01*
X89707341Y-65736269D01*
X89707341Y-65831507D01*
X89754960Y-65974364D01*
X89802579Y-66021983D01*
X90707341Y-66974364D02*
X90707341Y-66402935D01*
X90707341Y-66688649D02*
X89707341Y-66688649D01*
X89850198Y-66593411D01*
X89945436Y-66498173D01*
X89993055Y-66402935D01*
X90707341Y-67926745D02*
X90707341Y-67355316D01*
X90707341Y-67641030D02*
X89707341Y-67641030D01*
X89850198Y-67545792D01*
X89945436Y-67450554D01*
X89993055Y-67355316D01*
X103689421Y-65735295D02*
X104498945Y-65735295D01*
X104594183Y-65782914D01*
X104641802Y-65830533D01*
X104689421Y-65925771D01*
X104689421Y-66116248D01*
X104641802Y-66211486D01*
X104594183Y-66259105D01*
X104498945Y-66306724D01*
X103689421Y-66306724D01*
X104022754Y-67211486D02*
X104689421Y-67211486D01*
X103641802Y-66973390D02*
X104356088Y-66735295D01*
X104356088Y-67354343D01*
X79055621Y-55727695D02*
X79865145Y-55727695D01*
X79960383Y-55775314D01*
X80008002Y-55822933D01*
X80055621Y-55918171D01*
X80055621Y-56108648D01*
X80008002Y-56203886D01*
X79960383Y-56251505D01*
X79865145Y-56299124D01*
X79055621Y-56299124D01*
X79484192Y-56918171D02*
X79436573Y-56822933D01*
X79388954Y-56775314D01*
X79293716Y-56727695D01*
X79246097Y-56727695D01*
X79150859Y-56775314D01*
X79103240Y-56822933D01*
X79055621Y-56918171D01*
X79055621Y-57108648D01*
X79103240Y-57203886D01*
X79150859Y-57251505D01*
X79246097Y-57299124D01*
X79293716Y-57299124D01*
X79388954Y-57251505D01*
X79436573Y-57203886D01*
X79484192Y-57108648D01*
X79484192Y-56918171D01*
X79531811Y-56822933D01*
X79579430Y-56775314D01*
X79674669Y-56727695D01*
X79865145Y-56727695D01*
X79960383Y-56775314D01*
X80008002Y-56822933D01*
X80055621Y-56918171D01*
X80055621Y-57108648D01*
X80008002Y-57203886D01*
X79960383Y-57251505D01*
X79865145Y-57299124D01*
X79674669Y-57299124D01*
X79579430Y-57251505D01*
X79531811Y-57203886D01*
X79484192Y-57108648D01*
X103125381Y-55587995D02*
X103934905Y-55587995D01*
X104030143Y-55635614D01*
X104077762Y-55683233D01*
X104125381Y-55778471D01*
X104125381Y-55968948D01*
X104077762Y-56064186D01*
X104030143Y-56111805D01*
X103934905Y-56159424D01*
X103125381Y-56159424D01*
X104125381Y-56683233D02*
X104125381Y-56873709D01*
X104077762Y-56968948D01*
X104030143Y-57016567D01*
X103887286Y-57111805D01*
X103696810Y-57159424D01*
X103315857Y-57159424D01*
X103220619Y-57111805D01*
X103173000Y-57064186D01*
X103125381Y-56968948D01*
X103125381Y-56778471D01*
X103173000Y-56683233D01*
X103220619Y-56635614D01*
X103315857Y-56587995D01*
X103553952Y-56587995D01*
X103649190Y-56635614D01*
X103696810Y-56683233D01*
X103744429Y-56778471D01*
X103744429Y-56968948D01*
X103696810Y-57064186D01*
X103649190Y-57111805D01*
X103553952Y-57159424D01*
M02*
