G04 #@! TF.FileFunction,Paste,Top*
%FSLAX46Y46*%
G04 Gerber Fmt 4.6, Leading zero omitted, Abs format (unit mm)*
G04 Created by KiCad (PCBNEW 4.0.7) date 07/31/18 13:25:54*
%MOMM*%
%LPD*%
G01*
G04 APERTURE LIST*
%ADD10C,0.100000*%
%ADD11R,0.750000X0.800000*%
%ADD12R,2.600000X1.600000*%
%ADD13R,1.100000X1.100000*%
%ADD14R,0.500000X0.900000*%
%ADD15R,0.400000X1.200000*%
G04 APERTURE END LIST*
D10*
D11*
X55118000Y-52678900D03*
X55118000Y-54178900D03*
X51968400Y-45541500D03*
X51968400Y-47041500D03*
X65570100Y-47079600D03*
X65570100Y-45579600D03*
D12*
X81345180Y-75717400D03*
X77745180Y-75717400D03*
D11*
X163220400Y-54356700D03*
X163220400Y-52856700D03*
X120309640Y-80043720D03*
X120309640Y-78543720D03*
X104404160Y-55817200D03*
X104404160Y-54317200D03*
D13*
X49539700Y-52273200D03*
X52339700Y-52273200D03*
D14*
X50189700Y-55295800D03*
X51689700Y-55295800D03*
D15*
X124835700Y-85343200D03*
X126105700Y-85343200D03*
X127375700Y-85343200D03*
X128645700Y-85343200D03*
X129915700Y-85343200D03*
X131185700Y-85343200D03*
X132455700Y-85343200D03*
X133725700Y-85343200D03*
X134995700Y-85343200D03*
X136265700Y-85343200D03*
X137535700Y-85343200D03*
X138805700Y-85343200D03*
X140075700Y-85343200D03*
X141345700Y-85343200D03*
X142615700Y-85343200D03*
X143885700Y-85343200D03*
X143885700Y-72543200D03*
X142615700Y-72543200D03*
X141345700Y-72543200D03*
X140075700Y-72543200D03*
X138805700Y-72543200D03*
X137535700Y-72543200D03*
X136265700Y-72543200D03*
X134995700Y-72543200D03*
X133725700Y-72543200D03*
X132455700Y-72543200D03*
X131185700Y-72543200D03*
X129915700Y-72543200D03*
X128645700Y-72543200D03*
X127375700Y-72543200D03*
X126105700Y-72543200D03*
X124835700Y-72543200D03*
M02*
