G04 #@! TF.FileFunction,Other,Fab,Top*
%FSLAX46Y46*%
G04 Gerber Fmt 4.6, Leading zero omitted, Abs format (unit mm)*
G04 Created by KiCad (PCBNEW 4.0.7) date 07/31/18 16:17:15*
%MOMM*%
%LPD*%
G01*
G04 APERTURE LIST*
%ADD10C,0.100000*%
%ADD11C,0.150000*%
%ADD12C,0.075000*%
G04 APERTURE END LIST*
D10*
X107810300Y-59730400D02*
X107810300Y-46000400D01*
X107810300Y-46000400D02*
X161150300Y-46000400D01*
X161150300Y-46000400D02*
X161150300Y-60730400D01*
X161150300Y-60730400D02*
X108810300Y-60730400D01*
X108810300Y-60730400D02*
X107810300Y-59730400D01*
X107750300Y-62255400D02*
X161210300Y-62255400D01*
X161210300Y-62255400D02*
X161210300Y-44475400D01*
X161210300Y-44475400D02*
X107750300Y-44475400D01*
X107750300Y-44475400D02*
X107750300Y-62255400D01*
X54718000Y-54228900D02*
X54718000Y-52628900D01*
X54718000Y-52628900D02*
X55518000Y-52628900D01*
X55518000Y-52628900D02*
X55518000Y-54228900D01*
X55518000Y-54228900D02*
X54718000Y-54228900D01*
X51568400Y-47091500D02*
X51568400Y-45491500D01*
X51568400Y-45491500D02*
X52368400Y-45491500D01*
X52368400Y-45491500D02*
X52368400Y-47091500D01*
X52368400Y-47091500D02*
X51568400Y-47091500D01*
X65970100Y-45529600D02*
X65970100Y-47129600D01*
X65970100Y-47129600D02*
X65170100Y-47129600D01*
X65170100Y-47129600D02*
X65170100Y-45529600D01*
X65170100Y-45529600D02*
X65970100Y-45529600D01*
X81545180Y-75717400D02*
G75*
G03X81545180Y-75717400I-2000000J0D01*
G01*
X77415180Y-73587400D02*
X77415180Y-77847400D01*
X81005180Y-73587400D02*
X77415180Y-73587400D01*
X81675180Y-74257400D02*
X81005180Y-73587400D01*
X81675180Y-77177400D02*
X81675180Y-74257400D01*
X81005180Y-77847400D02*
X81675180Y-77177400D01*
X77415180Y-77847400D02*
X81005180Y-77847400D01*
X163620400Y-52806700D02*
X163620400Y-54406700D01*
X163620400Y-54406700D02*
X162820400Y-54406700D01*
X162820400Y-54406700D02*
X162820400Y-52806700D01*
X162820400Y-52806700D02*
X163620400Y-52806700D01*
X120709640Y-78493720D02*
X120709640Y-80093720D01*
X120709640Y-80093720D02*
X119909640Y-80093720D01*
X119909640Y-80093720D02*
X119909640Y-78493720D01*
X119909640Y-78493720D02*
X120709640Y-78493720D01*
X104804160Y-54267200D02*
X104804160Y-55867200D01*
X104804160Y-55867200D02*
X104004160Y-55867200D01*
X104004160Y-55867200D02*
X104004160Y-54267200D01*
X104004160Y-54267200D02*
X104804160Y-54267200D01*
X51189700Y-52273200D02*
X51689700Y-52273200D01*
X51189700Y-52673200D02*
X50589700Y-52273200D01*
X51189700Y-51873200D02*
X51189700Y-52673200D01*
X50589700Y-52273200D02*
X51189700Y-51873200D01*
X50589700Y-52273200D02*
X50589700Y-52823200D01*
X50589700Y-52273200D02*
X50589700Y-51723200D01*
X50189700Y-52273200D02*
X50589700Y-52273200D01*
X49539700Y-53173200D02*
X49539700Y-51373200D01*
X52339700Y-53173200D02*
X49539700Y-53173200D01*
X52339700Y-51373200D02*
X52339700Y-53173200D01*
X49539700Y-51373200D02*
X52339700Y-51373200D01*
X70485000Y-46697900D02*
X70485000Y-44792900D01*
X70485000Y-44792900D02*
X80645000Y-44792900D01*
X80645000Y-44792900D02*
X80645000Y-47332900D01*
X80645000Y-47332900D02*
X71120000Y-47332900D01*
X71120000Y-47332900D02*
X70485000Y-46697900D01*
X50139700Y-55695800D02*
X50139700Y-54895800D01*
X51739700Y-55695800D02*
X50139700Y-55695800D01*
X51739700Y-54895800D02*
X51739700Y-55695800D01*
X50139700Y-54895800D02*
X51739700Y-54895800D01*
X61948600Y-48654600D02*
X55548600Y-48654600D01*
X61948600Y-44004600D02*
X55548600Y-44004600D01*
X61748600Y-48329600D02*
X55748600Y-48329600D01*
X61748600Y-44329600D02*
X55748600Y-44329600D01*
X61948600Y-44004600D02*
G75*
G02X61948600Y-48654600I0J-2325000D01*
G01*
X55548600Y-44004600D02*
G75*
G03X55548600Y-48654600I0J-2325000D01*
G01*
X61748600Y-44329600D02*
G75*
G02X61748600Y-48329600I0J-2000000D01*
G01*
X55748600Y-44329600D02*
G75*
G03X55748600Y-48329600I0J-2000000D01*
G01*
X61205620Y-54648100D02*
X66555620Y-54648100D01*
X66555620Y-54648100D02*
X66555620Y-90208100D01*
X66555620Y-90208100D02*
X60205620Y-90208100D01*
X60205620Y-90208100D02*
X60205620Y-55648100D01*
X60205620Y-55648100D02*
X61205620Y-54648100D01*
D11*
X75861100Y-109523600D02*
X75861100Y-100203600D01*
X75861100Y-100203600D02*
X74861100Y-100203600D01*
X74861100Y-100203600D02*
X74861100Y-109523600D01*
X74861100Y-109523600D02*
X62661100Y-109523600D01*
X142061100Y-109523600D02*
X75861100Y-109523600D01*
X143061100Y-109523600D02*
X143061100Y-100203600D01*
X143061100Y-100203600D02*
X142061100Y-100203600D01*
X142061100Y-100203600D02*
X142061100Y-109523600D01*
X61661100Y-108523600D02*
G75*
G03X62661100Y-109523600I1000000J0D01*
G01*
X151461100Y-109523600D02*
G75*
G03X152461100Y-108523600I0J1000000D01*
G01*
D10*
X151461100Y-109523600D02*
X143061100Y-109523600D01*
X61661100Y-108523600D02*
X61661100Y-99923600D01*
X61661100Y-99923600D02*
X152461100Y-99923600D01*
X152461100Y-99923600D02*
X152461100Y-108523600D01*
D11*
X124075700Y-83658200D02*
X124075700Y-73228200D01*
X124075700Y-73228200D02*
X144935700Y-73228200D01*
X144935700Y-73228200D02*
X144935700Y-84658200D01*
X144935700Y-84658200D02*
X125075700Y-84658200D01*
X125075700Y-84658200D02*
X124075700Y-83658200D01*
D10*
X136080000Y-39280000D02*
X136080000Y-35470000D01*
X136080000Y-35470000D02*
X143700000Y-35470000D01*
X143700000Y-35470000D02*
X143700000Y-40550000D01*
X143700000Y-40550000D02*
X137350000Y-40550000D01*
X137350000Y-40550000D02*
X136080000Y-39280000D01*
D11*
X137358381Y-56287586D02*
X136358381Y-56287586D01*
X137072667Y-55954252D01*
X136358381Y-55620919D01*
X137358381Y-55620919D01*
X136453619Y-55192348D02*
X136406000Y-55144729D01*
X136358381Y-55049491D01*
X136358381Y-54811395D01*
X136406000Y-54716157D01*
X136453619Y-54668538D01*
X136548857Y-54620919D01*
X136644095Y-54620919D01*
X136786952Y-54668538D01*
X137358381Y-55239967D01*
X137358381Y-54620919D01*
X136358381Y-54287586D02*
X136358381Y-53620919D01*
X137358381Y-54049491D01*
X137263143Y-52668538D02*
X137310762Y-52716157D01*
X137358381Y-52859014D01*
X137358381Y-52954252D01*
X137310762Y-53097110D01*
X137215524Y-53192348D01*
X137120286Y-53239967D01*
X136929810Y-53287586D01*
X136786952Y-53287586D01*
X136596476Y-53239967D01*
X136501238Y-53192348D01*
X136406000Y-53097110D01*
X136358381Y-52954252D01*
X136358381Y-52859014D01*
X136406000Y-52716157D01*
X136453619Y-52668538D01*
X137358381Y-51716157D02*
X137358381Y-52287586D01*
X137358381Y-52001872D02*
X136358381Y-52001872D01*
X136501238Y-52097110D01*
X136596476Y-52192348D01*
X136644095Y-52287586D01*
X136358381Y-50859014D02*
X136358381Y-51049491D01*
X136406000Y-51144729D01*
X136453619Y-51192348D01*
X136596476Y-51287586D01*
X136786952Y-51335205D01*
X137167905Y-51335205D01*
X137263143Y-51287586D01*
X137310762Y-51239967D01*
X137358381Y-51144729D01*
X137358381Y-50954252D01*
X137310762Y-50859014D01*
X137263143Y-50811395D01*
X137167905Y-50763776D01*
X136929810Y-50763776D01*
X136834571Y-50811395D01*
X136786952Y-50859014D01*
X136739333Y-50954252D01*
X136739333Y-51144729D01*
X136786952Y-51239967D01*
X136834571Y-51287586D01*
X136929810Y-51335205D01*
X136358381Y-50144729D02*
X136358381Y-50049490D01*
X136406000Y-49954252D01*
X136453619Y-49906633D01*
X136548857Y-49859014D01*
X136739333Y-49811395D01*
X136977429Y-49811395D01*
X137167905Y-49859014D01*
X137263143Y-49906633D01*
X137310762Y-49954252D01*
X137358381Y-50049490D01*
X137358381Y-50144729D01*
X137310762Y-50239967D01*
X137263143Y-50287586D01*
X137167905Y-50335205D01*
X136977429Y-50382824D01*
X136739333Y-50382824D01*
X136548857Y-50335205D01*
X136453619Y-50287586D01*
X136406000Y-50239967D01*
X136358381Y-50144729D01*
X133932681Y-54127305D02*
X134742205Y-54127305D01*
X134837443Y-54079686D01*
X134885062Y-54032067D01*
X134932681Y-53936829D01*
X134932681Y-53746352D01*
X134885062Y-53651114D01*
X134837443Y-53603495D01*
X134742205Y-53555876D01*
X133932681Y-53555876D01*
X133932681Y-53174924D02*
X133932681Y-52555876D01*
X134313633Y-52889210D01*
X134313633Y-52746352D01*
X134361252Y-52651114D01*
X134408871Y-52603495D01*
X134504110Y-52555876D01*
X134742205Y-52555876D01*
X134837443Y-52603495D01*
X134885062Y-52651114D01*
X134932681Y-52746352D01*
X134932681Y-53032067D01*
X134885062Y-53127305D01*
X134837443Y-53174924D01*
X57070381Y-54833662D02*
X57070381Y-55405091D01*
X57070381Y-55119377D02*
X56070381Y-55119377D01*
X56213238Y-55214615D01*
X56308476Y-55309853D01*
X56356095Y-55405091D01*
X56070381Y-54214615D02*
X56070381Y-54119376D01*
X56118000Y-54024138D01*
X56165619Y-53976519D01*
X56260857Y-53928900D01*
X56451333Y-53881281D01*
X56689429Y-53881281D01*
X56879905Y-53928900D01*
X56975143Y-53976519D01*
X57022762Y-54024138D01*
X57070381Y-54119376D01*
X57070381Y-54214615D01*
X57022762Y-54309853D01*
X56975143Y-54357472D01*
X56879905Y-54405091D01*
X56689429Y-54452710D01*
X56451333Y-54452710D01*
X56260857Y-54405091D01*
X56165619Y-54357472D01*
X56118000Y-54309853D01*
X56070381Y-54214615D01*
X56070381Y-53262234D02*
X56070381Y-53166995D01*
X56118000Y-53071757D01*
X56165619Y-53024138D01*
X56260857Y-52976519D01*
X56451333Y-52928900D01*
X56689429Y-52928900D01*
X56879905Y-52976519D01*
X56975143Y-53024138D01*
X57022762Y-53071757D01*
X57070381Y-53166995D01*
X57070381Y-53262234D01*
X57022762Y-53357472D01*
X56975143Y-53405091D01*
X56879905Y-53452710D01*
X56689429Y-53500329D01*
X56451333Y-53500329D01*
X56260857Y-53452710D01*
X56165619Y-53405091D01*
X56118000Y-53357472D01*
X56070381Y-53262234D01*
X56403714Y-52500329D02*
X57070381Y-52500329D01*
X56498952Y-52500329D02*
X56451333Y-52452710D01*
X56403714Y-52357472D01*
X56403714Y-52214614D01*
X56451333Y-52119376D01*
X56546571Y-52071757D01*
X57070381Y-52071757D01*
X56403714Y-51738424D02*
X56403714Y-51357472D01*
X57070381Y-51595567D02*
X56213238Y-51595567D01*
X56118000Y-51547948D01*
X56070381Y-51452710D01*
X56070381Y-51357472D01*
D12*
X55225143Y-53478900D02*
X55239429Y-53493186D01*
X55253714Y-53536043D01*
X55253714Y-53564614D01*
X55239429Y-53607471D01*
X55210857Y-53636043D01*
X55182286Y-53650328D01*
X55125143Y-53664614D01*
X55082286Y-53664614D01*
X55025143Y-53650328D01*
X54996571Y-53636043D01*
X54968000Y-53607471D01*
X54953714Y-53564614D01*
X54953714Y-53536043D01*
X54968000Y-53493186D01*
X54982286Y-53478900D01*
X55253714Y-53193186D02*
X55253714Y-53364614D01*
X55253714Y-53278900D02*
X54953714Y-53278900D01*
X54996571Y-53307471D01*
X55025143Y-53336043D01*
X55039429Y-53364614D01*
D11*
X53016019Y-47791500D02*
X52968400Y-47743881D01*
X52920781Y-47648643D01*
X52920781Y-47410547D01*
X52968400Y-47315309D01*
X53016019Y-47267690D01*
X53111257Y-47220071D01*
X53206495Y-47220071D01*
X53349352Y-47267690D01*
X53920781Y-47839119D01*
X53920781Y-47220071D01*
X53016019Y-46839119D02*
X52968400Y-46791500D01*
X52920781Y-46696262D01*
X52920781Y-46458166D01*
X52968400Y-46362928D01*
X53016019Y-46315309D01*
X53111257Y-46267690D01*
X53206495Y-46267690D01*
X53349352Y-46315309D01*
X53920781Y-46886738D01*
X53920781Y-46267690D01*
X53254114Y-45839119D02*
X54254114Y-45839119D01*
X53301733Y-45839119D02*
X53254114Y-45743881D01*
X53254114Y-45553404D01*
X53301733Y-45458166D01*
X53349352Y-45410547D01*
X53444590Y-45362928D01*
X53730305Y-45362928D01*
X53825543Y-45410547D01*
X53873162Y-45458166D01*
X53920781Y-45553404D01*
X53920781Y-45743881D01*
X53873162Y-45839119D01*
X53254114Y-45077214D02*
X53254114Y-44696262D01*
X53920781Y-44934357D02*
X53063638Y-44934357D01*
X52968400Y-44886738D01*
X52920781Y-44791500D01*
X52920781Y-44696262D01*
D12*
X52075543Y-46341500D02*
X52089829Y-46355786D01*
X52104114Y-46398643D01*
X52104114Y-46427214D01*
X52089829Y-46470071D01*
X52061257Y-46498643D01*
X52032686Y-46512928D01*
X51975543Y-46527214D01*
X51932686Y-46527214D01*
X51875543Y-46512928D01*
X51846971Y-46498643D01*
X51818400Y-46470071D01*
X51804114Y-46427214D01*
X51804114Y-46398643D01*
X51818400Y-46355786D01*
X51832686Y-46341500D01*
X51832686Y-46227214D02*
X51818400Y-46212928D01*
X51804114Y-46184357D01*
X51804114Y-46112928D01*
X51818400Y-46084357D01*
X51832686Y-46070071D01*
X51861257Y-46055786D01*
X51889829Y-46055786D01*
X51932686Y-46070071D01*
X52104114Y-46241500D01*
X52104114Y-46055786D01*
D11*
X63617719Y-47829600D02*
X63570100Y-47781981D01*
X63522481Y-47686743D01*
X63522481Y-47448647D01*
X63570100Y-47353409D01*
X63617719Y-47305790D01*
X63712957Y-47258171D01*
X63808195Y-47258171D01*
X63951052Y-47305790D01*
X64522481Y-47877219D01*
X64522481Y-47258171D01*
X63617719Y-46877219D02*
X63570100Y-46829600D01*
X63522481Y-46734362D01*
X63522481Y-46496266D01*
X63570100Y-46401028D01*
X63617719Y-46353409D01*
X63712957Y-46305790D01*
X63808195Y-46305790D01*
X63951052Y-46353409D01*
X64522481Y-46924838D01*
X64522481Y-46305790D01*
X63855814Y-45877219D02*
X64855814Y-45877219D01*
X63903433Y-45877219D02*
X63855814Y-45781981D01*
X63855814Y-45591504D01*
X63903433Y-45496266D01*
X63951052Y-45448647D01*
X64046290Y-45401028D01*
X64332005Y-45401028D01*
X64427243Y-45448647D01*
X64474862Y-45496266D01*
X64522481Y-45591504D01*
X64522481Y-45781981D01*
X64474862Y-45877219D01*
X63855814Y-45115314D02*
X63855814Y-44734362D01*
X64522481Y-44972457D02*
X63665338Y-44972457D01*
X63570100Y-44924838D01*
X63522481Y-44829600D01*
X63522481Y-44734362D01*
D12*
X65677243Y-46379600D02*
X65691529Y-46393886D01*
X65705814Y-46436743D01*
X65705814Y-46465314D01*
X65691529Y-46508171D01*
X65662957Y-46536743D01*
X65634386Y-46551028D01*
X65577243Y-46565314D01*
X65534386Y-46565314D01*
X65477243Y-46551028D01*
X65448671Y-46536743D01*
X65420100Y-46508171D01*
X65405814Y-46465314D01*
X65405814Y-46436743D01*
X65420100Y-46393886D01*
X65434386Y-46379600D01*
X65405814Y-46279600D02*
X65405814Y-46093886D01*
X65520100Y-46193886D01*
X65520100Y-46151028D01*
X65534386Y-46122457D01*
X65548671Y-46108171D01*
X65577243Y-46093886D01*
X65648671Y-46093886D01*
X65677243Y-46108171D01*
X65691529Y-46122457D01*
X65705814Y-46151028D01*
X65705814Y-46236743D01*
X65691529Y-46265314D01*
X65677243Y-46279600D01*
D11*
X78616609Y-79709781D02*
X78045180Y-79709781D01*
X78330894Y-79709781D02*
X78330894Y-78709781D01*
X78235656Y-78852638D01*
X78140418Y-78947876D01*
X78045180Y-78995495D01*
X79235656Y-78709781D02*
X79330895Y-78709781D01*
X79426133Y-78757400D01*
X79473752Y-78805019D01*
X79521371Y-78900257D01*
X79568990Y-79090733D01*
X79568990Y-79328829D01*
X79521371Y-79519305D01*
X79473752Y-79614543D01*
X79426133Y-79662162D01*
X79330895Y-79709781D01*
X79235656Y-79709781D01*
X79140418Y-79662162D01*
X79092799Y-79614543D01*
X79045180Y-79519305D01*
X78997561Y-79328829D01*
X78997561Y-79090733D01*
X79045180Y-78900257D01*
X79092799Y-78805019D01*
X79140418Y-78757400D01*
X79235656Y-78709781D01*
X80426133Y-79043114D02*
X80426133Y-79709781D01*
X79997561Y-79043114D02*
X79997561Y-79566924D01*
X80045180Y-79662162D01*
X80140418Y-79709781D01*
X80283276Y-79709781D01*
X80378514Y-79662162D01*
X80426133Y-79614543D01*
X80759466Y-79043114D02*
X81140418Y-79043114D01*
X80902323Y-79709781D02*
X80902323Y-78852638D01*
X80949942Y-78757400D01*
X81045180Y-78709781D01*
X81140418Y-78709781D01*
X80284228Y-75848829D02*
X81046133Y-75848829D01*
X80665181Y-76229781D02*
X80665181Y-75467876D01*
X79378514Y-72534543D02*
X79330895Y-72582162D01*
X79188038Y-72629781D01*
X79092800Y-72629781D01*
X78949942Y-72582162D01*
X78854704Y-72486924D01*
X78807085Y-72391686D01*
X78759466Y-72201210D01*
X78759466Y-72058352D01*
X78807085Y-71867876D01*
X78854704Y-71772638D01*
X78949942Y-71677400D01*
X79092800Y-71629781D01*
X79188038Y-71629781D01*
X79330895Y-71677400D01*
X79378514Y-71725019D01*
X80235657Y-71963114D02*
X80235657Y-72629781D01*
X79997561Y-71582162D02*
X79759466Y-72296448D01*
X80378514Y-72296448D01*
X161172781Y-55106700D02*
X161172781Y-55011461D01*
X161220400Y-54916223D01*
X161268019Y-54868604D01*
X161363257Y-54820985D01*
X161553733Y-54773366D01*
X161791829Y-54773366D01*
X161982305Y-54820985D01*
X162077543Y-54868604D01*
X162125162Y-54916223D01*
X162172781Y-55011461D01*
X162172781Y-55106700D01*
X162125162Y-55201938D01*
X162077543Y-55249557D01*
X161982305Y-55297176D01*
X161791829Y-55344795D01*
X161553733Y-55344795D01*
X161363257Y-55297176D01*
X161268019Y-55249557D01*
X161220400Y-55201938D01*
X161172781Y-55106700D01*
X162077543Y-54344795D02*
X162125162Y-54297176D01*
X162172781Y-54344795D01*
X162125162Y-54392414D01*
X162077543Y-54344795D01*
X162172781Y-54344795D01*
X162172781Y-53344795D02*
X162172781Y-53916224D01*
X162172781Y-53630510D02*
X161172781Y-53630510D01*
X161315638Y-53725748D01*
X161410876Y-53820986D01*
X161458495Y-53916224D01*
X161506114Y-52487652D02*
X162172781Y-52487652D01*
X161506114Y-52916224D02*
X162029924Y-52916224D01*
X162125162Y-52868605D01*
X162172781Y-52773367D01*
X162172781Y-52630509D01*
X162125162Y-52535271D01*
X162077543Y-52487652D01*
X161506114Y-52154319D02*
X161506114Y-51773367D01*
X162172781Y-52011462D02*
X161315638Y-52011462D01*
X161220400Y-51963843D01*
X161172781Y-51868605D01*
X161172781Y-51773367D01*
D12*
X163327543Y-53656700D02*
X163341829Y-53670986D01*
X163356114Y-53713843D01*
X163356114Y-53742414D01*
X163341829Y-53785271D01*
X163313257Y-53813843D01*
X163284686Y-53828128D01*
X163227543Y-53842414D01*
X163184686Y-53842414D01*
X163127543Y-53828128D01*
X163098971Y-53813843D01*
X163070400Y-53785271D01*
X163056114Y-53742414D01*
X163056114Y-53713843D01*
X163070400Y-53670986D01*
X163084686Y-53656700D01*
X163056114Y-53385271D02*
X163056114Y-53528128D01*
X163198971Y-53542414D01*
X163184686Y-53528128D01*
X163170400Y-53499557D01*
X163170400Y-53428128D01*
X163184686Y-53399557D01*
X163198971Y-53385271D01*
X163227543Y-53370986D01*
X163298971Y-53370986D01*
X163327543Y-53385271D01*
X163341829Y-53399557D01*
X163356114Y-53428128D01*
X163356114Y-53499557D01*
X163341829Y-53528128D01*
X163327543Y-53542414D01*
D11*
X118262021Y-80793720D02*
X118262021Y-80698481D01*
X118309640Y-80603243D01*
X118357259Y-80555624D01*
X118452497Y-80508005D01*
X118642973Y-80460386D01*
X118881069Y-80460386D01*
X119071545Y-80508005D01*
X119166783Y-80555624D01*
X119214402Y-80603243D01*
X119262021Y-80698481D01*
X119262021Y-80793720D01*
X119214402Y-80888958D01*
X119166783Y-80936577D01*
X119071545Y-80984196D01*
X118881069Y-81031815D01*
X118642973Y-81031815D01*
X118452497Y-80984196D01*
X118357259Y-80936577D01*
X118309640Y-80888958D01*
X118262021Y-80793720D01*
X119166783Y-80031815D02*
X119214402Y-79984196D01*
X119262021Y-80031815D01*
X119214402Y-80079434D01*
X119166783Y-80031815D01*
X119262021Y-80031815D01*
X119262021Y-79031815D02*
X119262021Y-79603244D01*
X119262021Y-79317530D02*
X118262021Y-79317530D01*
X118404878Y-79412768D01*
X118500116Y-79508006D01*
X118547735Y-79603244D01*
X118595354Y-78174672D02*
X119262021Y-78174672D01*
X118595354Y-78603244D02*
X119119164Y-78603244D01*
X119214402Y-78555625D01*
X119262021Y-78460387D01*
X119262021Y-78317529D01*
X119214402Y-78222291D01*
X119166783Y-78174672D01*
X118595354Y-77841339D02*
X118595354Y-77460387D01*
X119262021Y-77698482D02*
X118404878Y-77698482D01*
X118309640Y-77650863D01*
X118262021Y-77555625D01*
X118262021Y-77460387D01*
D12*
X120416783Y-79343720D02*
X120431069Y-79358006D01*
X120445354Y-79400863D01*
X120445354Y-79429434D01*
X120431069Y-79472291D01*
X120402497Y-79500863D01*
X120373926Y-79515148D01*
X120316783Y-79529434D01*
X120273926Y-79529434D01*
X120216783Y-79515148D01*
X120188211Y-79500863D01*
X120159640Y-79472291D01*
X120145354Y-79429434D01*
X120145354Y-79400863D01*
X120159640Y-79358006D01*
X120173926Y-79343720D01*
X120145354Y-79086577D02*
X120145354Y-79143720D01*
X120159640Y-79172291D01*
X120173926Y-79186577D01*
X120216783Y-79215148D01*
X120273926Y-79229434D01*
X120388211Y-79229434D01*
X120416783Y-79215148D01*
X120431069Y-79200863D01*
X120445354Y-79172291D01*
X120445354Y-79115148D01*
X120431069Y-79086577D01*
X120416783Y-79072291D01*
X120388211Y-79058006D01*
X120316783Y-79058006D01*
X120288211Y-79072291D01*
X120273926Y-79086577D01*
X120259640Y-79115148D01*
X120259640Y-79172291D01*
X120273926Y-79200863D01*
X120288211Y-79215148D01*
X120316783Y-79229434D01*
D11*
X102356541Y-56567200D02*
X102356541Y-56471961D01*
X102404160Y-56376723D01*
X102451779Y-56329104D01*
X102547017Y-56281485D01*
X102737493Y-56233866D01*
X102975589Y-56233866D01*
X103166065Y-56281485D01*
X103261303Y-56329104D01*
X103308922Y-56376723D01*
X103356541Y-56471961D01*
X103356541Y-56567200D01*
X103308922Y-56662438D01*
X103261303Y-56710057D01*
X103166065Y-56757676D01*
X102975589Y-56805295D01*
X102737493Y-56805295D01*
X102547017Y-56757676D01*
X102451779Y-56710057D01*
X102404160Y-56662438D01*
X102356541Y-56567200D01*
X103261303Y-55805295D02*
X103308922Y-55757676D01*
X103356541Y-55805295D01*
X103308922Y-55852914D01*
X103261303Y-55805295D01*
X103356541Y-55805295D01*
X103356541Y-54805295D02*
X103356541Y-55376724D01*
X103356541Y-55091010D02*
X102356541Y-55091010D01*
X102499398Y-55186248D01*
X102594636Y-55281486D01*
X102642255Y-55376724D01*
X102689874Y-53948152D02*
X103356541Y-53948152D01*
X102689874Y-54376724D02*
X103213684Y-54376724D01*
X103308922Y-54329105D01*
X103356541Y-54233867D01*
X103356541Y-54091009D01*
X103308922Y-53995771D01*
X103261303Y-53948152D01*
X102689874Y-53614819D02*
X102689874Y-53233867D01*
X103356541Y-53471962D02*
X102499398Y-53471962D01*
X102404160Y-53424343D01*
X102356541Y-53329105D01*
X102356541Y-53233867D01*
D12*
X104511303Y-55260057D02*
X104525589Y-55274343D01*
X104539874Y-55317200D01*
X104539874Y-55345771D01*
X104525589Y-55388628D01*
X104497017Y-55417200D01*
X104468446Y-55431485D01*
X104411303Y-55445771D01*
X104368446Y-55445771D01*
X104311303Y-55431485D01*
X104282731Y-55417200D01*
X104254160Y-55388628D01*
X104239874Y-55345771D01*
X104239874Y-55317200D01*
X104254160Y-55274343D01*
X104268446Y-55260057D01*
X104539874Y-54974343D02*
X104539874Y-55145771D01*
X104539874Y-55060057D02*
X104239874Y-55060057D01*
X104282731Y-55088628D01*
X104311303Y-55117200D01*
X104325589Y-55145771D01*
X104239874Y-54788629D02*
X104239874Y-54760057D01*
X104254160Y-54731486D01*
X104268446Y-54717200D01*
X104297017Y-54702914D01*
X104354160Y-54688629D01*
X104425589Y-54688629D01*
X104482731Y-54702914D01*
X104511303Y-54717200D01*
X104525589Y-54731486D01*
X104539874Y-54760057D01*
X104539874Y-54788629D01*
X104525589Y-54817200D01*
X104511303Y-54831486D01*
X104482731Y-54845771D01*
X104425589Y-54860057D01*
X104354160Y-54860057D01*
X104297017Y-54845771D01*
X104268446Y-54831486D01*
X104254160Y-54817200D01*
X104239874Y-54788629D01*
D11*
X48796843Y-54825581D02*
X48225414Y-54825581D01*
X48511128Y-54825581D02*
X48511128Y-53825581D01*
X48415890Y-53968438D01*
X48320652Y-54063676D01*
X48225414Y-54111295D01*
X49225414Y-54825581D02*
X49225414Y-53825581D01*
X49796843Y-54825581D01*
X49796843Y-53825581D01*
X50701605Y-54158914D02*
X50701605Y-54825581D01*
X50463509Y-53777962D02*
X50225414Y-54492248D01*
X50844462Y-54492248D01*
X51749224Y-54825581D02*
X51177795Y-54825581D01*
X51463509Y-54825581D02*
X51463509Y-53825581D01*
X51368271Y-53968438D01*
X51273033Y-54063676D01*
X51177795Y-54111295D01*
X52606367Y-54158914D02*
X52606367Y-54825581D01*
X52368271Y-53777962D02*
X52130176Y-54492248D01*
X52749224Y-54492248D01*
X53273033Y-54254152D02*
X53177795Y-54206533D01*
X53130176Y-54158914D01*
X53082557Y-54063676D01*
X53082557Y-54016057D01*
X53130176Y-53920819D01*
X53177795Y-53873200D01*
X53273033Y-53825581D01*
X53463510Y-53825581D01*
X53558748Y-53873200D01*
X53606367Y-53920819D01*
X53653986Y-54016057D01*
X53653986Y-54063676D01*
X53606367Y-54158914D01*
X53558748Y-54206533D01*
X53463510Y-54254152D01*
X53273033Y-54254152D01*
X53177795Y-54301771D01*
X53130176Y-54349390D01*
X53082557Y-54444629D01*
X53082557Y-54635105D01*
X53130176Y-54730343D01*
X53177795Y-54777962D01*
X53273033Y-54825581D01*
X53463510Y-54825581D01*
X53558748Y-54777962D01*
X53606367Y-54730343D01*
X53653986Y-54635105D01*
X53653986Y-54444629D01*
X53606367Y-54349390D01*
X53558748Y-54301771D01*
X53463510Y-54254152D01*
X50074605Y-50820581D02*
X50074605Y-49820581D01*
X50312700Y-49820581D01*
X50455558Y-49868200D01*
X50550796Y-49963438D01*
X50598415Y-50058676D01*
X50646034Y-50249152D01*
X50646034Y-50392010D01*
X50598415Y-50582486D01*
X50550796Y-50677724D01*
X50455558Y-50772962D01*
X50312700Y-50820581D01*
X50074605Y-50820581D01*
X51598415Y-50820581D02*
X51026986Y-50820581D01*
X51312700Y-50820581D02*
X51312700Y-49820581D01*
X51217462Y-49963438D01*
X51122224Y-50058676D01*
X51026986Y-50106295D01*
X71339581Y-49258481D02*
X71339581Y-48258481D01*
X71768152Y-48353719D02*
X71815771Y-48306100D01*
X71911009Y-48258481D01*
X72149105Y-48258481D01*
X72244343Y-48306100D01*
X72291962Y-48353719D01*
X72339581Y-48448957D01*
X72339581Y-48544195D01*
X72291962Y-48687052D01*
X71720533Y-49258481D01*
X72339581Y-49258481D01*
X73339581Y-49163243D02*
X73291962Y-49210862D01*
X73149105Y-49258481D01*
X73053867Y-49258481D01*
X72911009Y-49210862D01*
X72815771Y-49115624D01*
X72768152Y-49020386D01*
X72720533Y-48829910D01*
X72720533Y-48687052D01*
X72768152Y-48496576D01*
X72815771Y-48401338D01*
X72911009Y-48306100D01*
X73053867Y-48258481D01*
X73149105Y-48258481D01*
X73291962Y-48306100D01*
X73339581Y-48353719D01*
X74530057Y-49258481D02*
X74530057Y-48258481D01*
X74768152Y-48258481D01*
X74911010Y-48306100D01*
X75006248Y-48401338D01*
X75053867Y-48496576D01*
X75101486Y-48687052D01*
X75101486Y-48829910D01*
X75053867Y-49020386D01*
X75006248Y-49115624D01*
X74911010Y-49210862D01*
X74768152Y-49258481D01*
X74530057Y-49258481D01*
X75530057Y-49258481D02*
X75530057Y-48591814D01*
X75530057Y-48258481D02*
X75482438Y-48306100D01*
X75530057Y-48353719D01*
X75577676Y-48306100D01*
X75530057Y-48258481D01*
X75530057Y-48353719D01*
X75958628Y-49210862D02*
X76053866Y-49258481D01*
X76244342Y-49258481D01*
X76339581Y-49210862D01*
X76387200Y-49115624D01*
X76387200Y-49068005D01*
X76339581Y-48972767D01*
X76244342Y-48925148D01*
X76101485Y-48925148D01*
X76006247Y-48877529D01*
X75958628Y-48782290D01*
X75958628Y-48734671D01*
X76006247Y-48639433D01*
X76101485Y-48591814D01*
X76244342Y-48591814D01*
X76339581Y-48639433D01*
X76815771Y-48591814D02*
X76815771Y-49591814D01*
X76815771Y-48639433D02*
X76911009Y-48591814D01*
X77101486Y-48591814D01*
X77196724Y-48639433D01*
X77244343Y-48687052D01*
X77291962Y-48782290D01*
X77291962Y-49068005D01*
X77244343Y-49163243D01*
X77196724Y-49210862D01*
X77101486Y-49258481D01*
X76911009Y-49258481D01*
X76815771Y-49210862D01*
X77863390Y-49258481D02*
X77768152Y-49210862D01*
X77720533Y-49115624D01*
X77720533Y-48258481D01*
X78672915Y-49258481D02*
X78672915Y-48734671D01*
X78625296Y-48639433D01*
X78530058Y-48591814D01*
X78339581Y-48591814D01*
X78244343Y-48639433D01*
X78672915Y-49210862D02*
X78577677Y-49258481D01*
X78339581Y-49258481D01*
X78244343Y-49210862D01*
X78196724Y-49115624D01*
X78196724Y-49020386D01*
X78244343Y-48925148D01*
X78339581Y-48877529D01*
X78577677Y-48877529D01*
X78672915Y-48829910D01*
X79053867Y-48591814D02*
X79291962Y-49258481D01*
X79530058Y-48591814D02*
X79291962Y-49258481D01*
X79196724Y-49496576D01*
X79149105Y-49544195D01*
X79053867Y-49591814D01*
X75231667Y-45515281D02*
X75231667Y-46229567D01*
X75184047Y-46372424D01*
X75088809Y-46467662D01*
X74945952Y-46515281D01*
X74850714Y-46515281D01*
X75660238Y-45610519D02*
X75707857Y-45562900D01*
X75803095Y-45515281D01*
X76041191Y-45515281D01*
X76136429Y-45562900D01*
X76184048Y-45610519D01*
X76231667Y-45705757D01*
X76231667Y-45800995D01*
X76184048Y-45943852D01*
X75612619Y-46515281D01*
X76231667Y-46515281D01*
X50344462Y-57248181D02*
X49773033Y-57248181D01*
X50058747Y-57248181D02*
X50058747Y-56248181D01*
X49963509Y-56391038D01*
X49868271Y-56486276D01*
X49773033Y-56533895D01*
X50963509Y-56248181D02*
X51058748Y-56248181D01*
X51153986Y-56295800D01*
X51201605Y-56343419D01*
X51249224Y-56438657D01*
X51296843Y-56629133D01*
X51296843Y-56867229D01*
X51249224Y-57057705D01*
X51201605Y-57152943D01*
X51153986Y-57200562D01*
X51058748Y-57248181D01*
X50963509Y-57248181D01*
X50868271Y-57200562D01*
X50820652Y-57152943D01*
X50773033Y-57057705D01*
X50725414Y-56867229D01*
X50725414Y-56629133D01*
X50773033Y-56438657D01*
X50820652Y-56343419D01*
X50868271Y-56295800D01*
X50963509Y-56248181D01*
X51725414Y-57248181D02*
X51725414Y-56248181D01*
X51820652Y-56867229D02*
X52106367Y-57248181D01*
X52106367Y-56581514D02*
X51725414Y-56962467D01*
D12*
X50873034Y-55476752D02*
X50739700Y-55286276D01*
X50644462Y-55476752D02*
X50644462Y-55076752D01*
X50796843Y-55076752D01*
X50834938Y-55095800D01*
X50853986Y-55114848D01*
X50873034Y-55152943D01*
X50873034Y-55210086D01*
X50853986Y-55248181D01*
X50834938Y-55267229D01*
X50796843Y-55286276D01*
X50644462Y-55286276D01*
X51253986Y-55476752D02*
X51025414Y-55476752D01*
X51139700Y-55476752D02*
X51139700Y-55076752D01*
X51101605Y-55133895D01*
X51063510Y-55171990D01*
X51025414Y-55191038D01*
D11*
X57058124Y-43256981D02*
X56486695Y-43256981D01*
X56772409Y-43256981D02*
X56772409Y-42256981D01*
X56677171Y-42399838D01*
X56581933Y-42495076D01*
X56486695Y-42542695D01*
X57915267Y-42256981D02*
X57724790Y-42256981D01*
X57629552Y-42304600D01*
X57581933Y-42352219D01*
X57486695Y-42495076D01*
X57439076Y-42685552D01*
X57439076Y-43066505D01*
X57486695Y-43161743D01*
X57534314Y-43209362D01*
X57629552Y-43256981D01*
X57820029Y-43256981D01*
X57915267Y-43209362D01*
X57962886Y-43161743D01*
X58010505Y-43066505D01*
X58010505Y-42828410D01*
X57962886Y-42733171D01*
X57915267Y-42685552D01*
X57820029Y-42637933D01*
X57629552Y-42637933D01*
X57534314Y-42685552D01*
X57486695Y-42733171D01*
X57439076Y-42828410D01*
X58439076Y-43256981D02*
X58439076Y-42256981D01*
X58772410Y-42971267D01*
X59105743Y-42256981D01*
X59105743Y-43256981D01*
X59581933Y-43256981D02*
X59581933Y-42256981D01*
X59581933Y-42733171D02*
X60153362Y-42733171D01*
X60153362Y-43256981D02*
X60153362Y-42256981D01*
X60534314Y-42590314D02*
X61058124Y-42590314D01*
X60534314Y-43256981D01*
X61058124Y-43256981D01*
X58272409Y-46305790D02*
X58272409Y-46781981D01*
X57939076Y-45781981D02*
X58272409Y-46305790D01*
X58605743Y-45781981D01*
X59462886Y-46781981D02*
X58891457Y-46781981D01*
X59177171Y-46781981D02*
X59177171Y-45781981D01*
X59081933Y-45924838D01*
X58986695Y-46020076D01*
X58891457Y-46067695D01*
X57237763Y-91434767D02*
X57713954Y-91434767D01*
X57142525Y-91720481D02*
X57475858Y-90720481D01*
X57809192Y-91720481D01*
X57999668Y-90720481D02*
X58571097Y-90720481D01*
X58285382Y-91720481D02*
X58285382Y-90720481D01*
X58904430Y-91720481D02*
X58904430Y-90720481D01*
X59237764Y-91434767D01*
X59571097Y-90720481D01*
X59571097Y-91720481D01*
X60047287Y-91196671D02*
X60380621Y-91196671D01*
X60523478Y-91720481D02*
X60047287Y-91720481D01*
X60047287Y-90720481D01*
X60523478Y-90720481D01*
X61475859Y-90768100D02*
X61380621Y-90720481D01*
X61237764Y-90720481D01*
X61094906Y-90768100D01*
X60999668Y-90863338D01*
X60952049Y-90958576D01*
X60904430Y-91149052D01*
X60904430Y-91291910D01*
X60952049Y-91482386D01*
X60999668Y-91577624D01*
X61094906Y-91672862D01*
X61237764Y-91720481D01*
X61333002Y-91720481D01*
X61475859Y-91672862D01*
X61523478Y-91625243D01*
X61523478Y-91291910D01*
X61333002Y-91291910D01*
X61904430Y-91434767D02*
X62380621Y-91434767D01*
X61809192Y-91720481D02*
X62142525Y-90720481D01*
X62475859Y-91720481D01*
X62713954Y-90720481D02*
X63333002Y-90720481D01*
X62999668Y-91101433D01*
X63142526Y-91101433D01*
X63237764Y-91149052D01*
X63285383Y-91196671D01*
X63333002Y-91291910D01*
X63333002Y-91530005D01*
X63285383Y-91625243D01*
X63237764Y-91672862D01*
X63142526Y-91720481D01*
X62856811Y-91720481D01*
X62761573Y-91672862D01*
X62713954Y-91625243D01*
X63713954Y-90815719D02*
X63761573Y-90768100D01*
X63856811Y-90720481D01*
X64094907Y-90720481D01*
X64190145Y-90768100D01*
X64237764Y-90815719D01*
X64285383Y-90910957D01*
X64285383Y-91006195D01*
X64237764Y-91149052D01*
X63666335Y-91720481D01*
X64285383Y-91720481D01*
X64856811Y-91149052D02*
X64761573Y-91101433D01*
X64713954Y-91053814D01*
X64666335Y-90958576D01*
X64666335Y-90910957D01*
X64713954Y-90815719D01*
X64761573Y-90768100D01*
X64856811Y-90720481D01*
X65047288Y-90720481D01*
X65142526Y-90768100D01*
X65190145Y-90815719D01*
X65237764Y-90910957D01*
X65237764Y-90958576D01*
X65190145Y-91053814D01*
X65142526Y-91101433D01*
X65047288Y-91149052D01*
X64856811Y-91149052D01*
X64761573Y-91196671D01*
X64713954Y-91244290D01*
X64666335Y-91339529D01*
X64666335Y-91530005D01*
X64713954Y-91625243D01*
X64761573Y-91672862D01*
X64856811Y-91720481D01*
X65047288Y-91720481D01*
X65142526Y-91672862D01*
X65190145Y-91625243D01*
X65237764Y-91530005D01*
X65237764Y-91339529D01*
X65190145Y-91244290D01*
X65142526Y-91196671D01*
X65047288Y-91149052D01*
X65666335Y-91720481D02*
X65666335Y-90720481D01*
X66047288Y-90720481D01*
X66142526Y-90768100D01*
X66190145Y-90815719D01*
X66237764Y-90910957D01*
X66237764Y-91053814D01*
X66190145Y-91149052D01*
X66142526Y-91196671D01*
X66047288Y-91244290D01*
X65666335Y-91244290D01*
X66666335Y-91339529D02*
X67428240Y-91339529D01*
X67904430Y-91720481D02*
X67904430Y-90720481D01*
X68285383Y-90720481D01*
X68380621Y-90768100D01*
X68428240Y-90815719D01*
X68475859Y-90910957D01*
X68475859Y-91053814D01*
X68428240Y-91149052D01*
X68380621Y-91196671D01*
X68285383Y-91244290D01*
X67904430Y-91244290D01*
X68904430Y-90720481D02*
X68904430Y-91530005D01*
X68952049Y-91625243D01*
X68999668Y-91672862D01*
X69094906Y-91720481D01*
X69285383Y-91720481D01*
X69380621Y-91672862D01*
X69428240Y-91625243D01*
X69475859Y-91530005D01*
X69475859Y-90720481D01*
X62618715Y-71880481D02*
X62618715Y-72690005D01*
X62666334Y-72785243D01*
X62713953Y-72832862D01*
X62809191Y-72880481D01*
X62999668Y-72880481D01*
X63094906Y-72832862D01*
X63142525Y-72785243D01*
X63190144Y-72690005D01*
X63190144Y-71880481D01*
X64190144Y-72880481D02*
X63618715Y-72880481D01*
X63904429Y-72880481D02*
X63904429Y-71880481D01*
X63809191Y-72023338D01*
X63713953Y-72118576D01*
X63618715Y-72166195D01*
X57876814Y-97465981D02*
X58210147Y-98465981D01*
X58543481Y-97465981D01*
X58876814Y-98465981D02*
X58876814Y-97465981D01*
X59924433Y-98370743D02*
X59876814Y-98418362D01*
X59733957Y-98465981D01*
X59638719Y-98465981D01*
X59495861Y-98418362D01*
X59400623Y-98323124D01*
X59353004Y-98227886D01*
X59305385Y-98037410D01*
X59305385Y-97894552D01*
X59353004Y-97704076D01*
X59400623Y-97608838D01*
X59495861Y-97513600D01*
X59638719Y-97465981D01*
X59733957Y-97465981D01*
X59876814Y-97513600D01*
X59924433Y-97561219D01*
X60353004Y-98085029D02*
X61114909Y-98085029D01*
X61543480Y-97561219D02*
X61591099Y-97513600D01*
X61686337Y-97465981D01*
X61924433Y-97465981D01*
X62019671Y-97513600D01*
X62067290Y-97561219D01*
X62114909Y-97656457D01*
X62114909Y-97751695D01*
X62067290Y-97894552D01*
X61495861Y-98465981D01*
X62114909Y-98465981D01*
X62733956Y-97465981D02*
X62829195Y-97465981D01*
X62924433Y-97513600D01*
X62972052Y-97561219D01*
X63019671Y-97656457D01*
X63067290Y-97846933D01*
X63067290Y-98085029D01*
X63019671Y-98275505D01*
X62972052Y-98370743D01*
X62924433Y-98418362D01*
X62829195Y-98465981D01*
X62733956Y-98465981D01*
X62638718Y-98418362D01*
X62591099Y-98370743D01*
X62543480Y-98275505D01*
X62495861Y-98085029D01*
X62495861Y-97846933D01*
X62543480Y-97656457D01*
X62591099Y-97561219D01*
X62638718Y-97513600D01*
X62733956Y-97465981D01*
X63257766Y-98561219D02*
X64019671Y-98561219D01*
X64257766Y-97942171D02*
X64591100Y-97942171D01*
X64733957Y-98465981D02*
X64257766Y-98465981D01*
X64257766Y-97465981D01*
X64733957Y-97465981D01*
X65067290Y-98465981D02*
X65591100Y-97799314D01*
X65067290Y-97799314D02*
X65591100Y-98465981D01*
X65972052Y-97799314D02*
X65972052Y-98799314D01*
X65972052Y-97846933D02*
X66067290Y-97799314D01*
X66257767Y-97799314D01*
X66353005Y-97846933D01*
X66400624Y-97894552D01*
X66448243Y-97989790D01*
X66448243Y-98275505D01*
X66400624Y-98370743D01*
X66353005Y-98418362D01*
X66257767Y-98465981D01*
X66067290Y-98465981D01*
X65972052Y-98418362D01*
X67305386Y-98465981D02*
X67305386Y-97942171D01*
X67257767Y-97846933D01*
X67162529Y-97799314D01*
X66972052Y-97799314D01*
X66876814Y-97846933D01*
X67305386Y-98418362D02*
X67210148Y-98465981D01*
X66972052Y-98465981D01*
X66876814Y-98418362D01*
X66829195Y-98323124D01*
X66829195Y-98227886D01*
X66876814Y-98132648D01*
X66972052Y-98085029D01*
X67210148Y-98085029D01*
X67305386Y-98037410D01*
X67781576Y-97799314D02*
X67781576Y-98465981D01*
X67781576Y-97894552D02*
X67829195Y-97846933D01*
X67924433Y-97799314D01*
X68067291Y-97799314D01*
X68162529Y-97846933D01*
X68210148Y-97942171D01*
X68210148Y-98465981D01*
X68638719Y-98418362D02*
X68733957Y-98465981D01*
X68924433Y-98465981D01*
X69019672Y-98418362D01*
X69067291Y-98323124D01*
X69067291Y-98275505D01*
X69019672Y-98180267D01*
X68924433Y-98132648D01*
X68781576Y-98132648D01*
X68686338Y-98085029D01*
X68638719Y-97989790D01*
X68638719Y-97942171D01*
X68686338Y-97846933D01*
X68781576Y-97799314D01*
X68924433Y-97799314D01*
X69019672Y-97846933D01*
X69495862Y-98465981D02*
X69495862Y-97799314D01*
X69495862Y-97465981D02*
X69448243Y-97513600D01*
X69495862Y-97561219D01*
X69543481Y-97513600D01*
X69495862Y-97465981D01*
X69495862Y-97561219D01*
X70114909Y-98465981D02*
X70019671Y-98418362D01*
X69972052Y-98370743D01*
X69924433Y-98275505D01*
X69924433Y-97989790D01*
X69972052Y-97894552D01*
X70019671Y-97846933D01*
X70114909Y-97799314D01*
X70257767Y-97799314D01*
X70353005Y-97846933D01*
X70400624Y-97894552D01*
X70448243Y-97989790D01*
X70448243Y-98275505D01*
X70400624Y-98370743D01*
X70353005Y-98418362D01*
X70257767Y-98465981D01*
X70114909Y-98465981D01*
X70876814Y-97799314D02*
X70876814Y-98465981D01*
X70876814Y-97894552D02*
X70924433Y-97846933D01*
X71019671Y-97799314D01*
X71162529Y-97799314D01*
X71257767Y-97846933D01*
X71305386Y-97942171D01*
X71305386Y-98465981D01*
X71543481Y-98561219D02*
X72305386Y-98561219D01*
X72543481Y-98465981D02*
X72543481Y-97465981D01*
X72924434Y-97465981D01*
X73019672Y-97513600D01*
X73067291Y-97561219D01*
X73114910Y-97656457D01*
X73114910Y-97799314D01*
X73067291Y-97894552D01*
X73019672Y-97942171D01*
X72924434Y-97989790D01*
X72543481Y-97989790D01*
X73686338Y-98465981D02*
X73591100Y-98418362D01*
X73543481Y-98370743D01*
X73495862Y-98275505D01*
X73495862Y-97989790D01*
X73543481Y-97894552D01*
X73591100Y-97846933D01*
X73686338Y-97799314D01*
X73829196Y-97799314D01*
X73924434Y-97846933D01*
X73972053Y-97894552D01*
X74019672Y-97989790D01*
X74019672Y-98275505D01*
X73972053Y-98370743D01*
X73924434Y-98418362D01*
X73829196Y-98465981D01*
X73686338Y-98465981D01*
X74448243Y-98465981D02*
X74448243Y-97799314D01*
X74448243Y-97989790D02*
X74495862Y-97894552D01*
X74543481Y-97846933D01*
X74638719Y-97799314D01*
X74733958Y-97799314D01*
X74924434Y-97799314D02*
X75305386Y-97799314D01*
X75067291Y-97465981D02*
X75067291Y-98323124D01*
X75114910Y-98418362D01*
X75210148Y-98465981D01*
X75305386Y-98465981D01*
X146692881Y-85563838D02*
X145692881Y-85563838D01*
X146692881Y-84992409D02*
X146121452Y-85420981D01*
X145692881Y-84992409D02*
X146264310Y-85563838D01*
X146692881Y-84563838D02*
X145692881Y-84563838D01*
X146407167Y-84230504D01*
X145692881Y-83897171D01*
X146692881Y-83897171D01*
X145692881Y-82992409D02*
X145692881Y-83182886D01*
X145740500Y-83278124D01*
X145788119Y-83325743D01*
X145930976Y-83420981D01*
X146121452Y-83468600D01*
X146502405Y-83468600D01*
X146597643Y-83420981D01*
X146645262Y-83373362D01*
X146692881Y-83278124D01*
X146692881Y-83087647D01*
X146645262Y-82992409D01*
X146597643Y-82944790D01*
X146502405Y-82897171D01*
X146264310Y-82897171D01*
X146169071Y-82944790D01*
X146121452Y-82992409D01*
X146073833Y-83087647D01*
X146073833Y-83278124D01*
X146121452Y-83373362D01*
X146169071Y-83420981D01*
X146264310Y-83468600D01*
X146121452Y-82325743D02*
X146073833Y-82420981D01*
X146026214Y-82468600D01*
X145930976Y-82516219D01*
X145883357Y-82516219D01*
X145788119Y-82468600D01*
X145740500Y-82420981D01*
X145692881Y-82325743D01*
X145692881Y-82135266D01*
X145740500Y-82040028D01*
X145788119Y-81992409D01*
X145883357Y-81944790D01*
X145930976Y-81944790D01*
X146026214Y-81992409D01*
X146073833Y-82040028D01*
X146121452Y-82135266D01*
X146121452Y-82325743D01*
X146169071Y-82420981D01*
X146216690Y-82468600D01*
X146311929Y-82516219D01*
X146502405Y-82516219D01*
X146597643Y-82468600D01*
X146645262Y-82420981D01*
X146692881Y-82325743D01*
X146692881Y-82135266D01*
X146645262Y-82040028D01*
X146597643Y-81992409D01*
X146502405Y-81944790D01*
X146311929Y-81944790D01*
X146216690Y-81992409D01*
X146169071Y-82040028D01*
X146121452Y-82135266D01*
X146692881Y-80992409D02*
X146692881Y-81563838D01*
X146692881Y-81278124D02*
X145692881Y-81278124D01*
X145835738Y-81373362D01*
X145930976Y-81468600D01*
X145978595Y-81563838D01*
X145692881Y-80373362D02*
X145692881Y-80278123D01*
X145740500Y-80182885D01*
X145788119Y-80135266D01*
X145883357Y-80087647D01*
X146073833Y-80040028D01*
X146311929Y-80040028D01*
X146502405Y-80087647D01*
X146597643Y-80135266D01*
X146645262Y-80182885D01*
X146692881Y-80278123D01*
X146692881Y-80373362D01*
X146645262Y-80468600D01*
X146597643Y-80516219D01*
X146502405Y-80563838D01*
X146311929Y-80611457D01*
X146073833Y-80611457D01*
X145883357Y-80563838D01*
X145788119Y-80516219D01*
X145740500Y-80468600D01*
X145692881Y-80373362D01*
X145692881Y-79420981D02*
X145692881Y-79325742D01*
X145740500Y-79230504D01*
X145788119Y-79182885D01*
X145883357Y-79135266D01*
X146073833Y-79087647D01*
X146311929Y-79087647D01*
X146502405Y-79135266D01*
X146597643Y-79182885D01*
X146645262Y-79230504D01*
X146692881Y-79325742D01*
X146692881Y-79420981D01*
X146645262Y-79516219D01*
X146597643Y-79563838D01*
X146502405Y-79611457D01*
X146311929Y-79659076D01*
X146073833Y-79659076D01*
X145883357Y-79611457D01*
X145788119Y-79563838D01*
X145740500Y-79516219D01*
X145692881Y-79420981D01*
X145692881Y-78468600D02*
X145692881Y-78373361D01*
X145740500Y-78278123D01*
X145788119Y-78230504D01*
X145883357Y-78182885D01*
X146073833Y-78135266D01*
X146311929Y-78135266D01*
X146502405Y-78182885D01*
X146597643Y-78230504D01*
X146645262Y-78278123D01*
X146692881Y-78373361D01*
X146692881Y-78468600D01*
X146645262Y-78563838D01*
X146597643Y-78611457D01*
X146502405Y-78659076D01*
X146311929Y-78706695D01*
X146073833Y-78706695D01*
X145883357Y-78659076D01*
X145788119Y-78611457D01*
X145740500Y-78563838D01*
X145692881Y-78468600D01*
X146597643Y-77135266D02*
X146645262Y-77182885D01*
X146692881Y-77325742D01*
X146692881Y-77420980D01*
X146645262Y-77563838D01*
X146550024Y-77659076D01*
X146454786Y-77706695D01*
X146264310Y-77754314D01*
X146121452Y-77754314D01*
X145930976Y-77706695D01*
X145835738Y-77659076D01*
X145740500Y-77563838D01*
X145692881Y-77420980D01*
X145692881Y-77325742D01*
X145740500Y-77182885D01*
X145788119Y-77135266D01*
X146692881Y-76230504D02*
X146692881Y-76706695D01*
X145692881Y-76706695D01*
X145740500Y-75373361D02*
X145692881Y-75468599D01*
X145692881Y-75611456D01*
X145740500Y-75754314D01*
X145835738Y-75849552D01*
X145930976Y-75897171D01*
X146121452Y-75944790D01*
X146264310Y-75944790D01*
X146454786Y-75897171D01*
X146550024Y-75849552D01*
X146645262Y-75754314D01*
X146692881Y-75611456D01*
X146692881Y-75516218D01*
X146645262Y-75373361D01*
X146597643Y-75325742D01*
X146264310Y-75325742D01*
X146264310Y-75516218D01*
X146311929Y-74897171D02*
X146311929Y-74135266D01*
X145692881Y-73182885D02*
X145692881Y-73659076D01*
X146169071Y-73706695D01*
X146121452Y-73659076D01*
X146073833Y-73563838D01*
X146073833Y-73325742D01*
X146121452Y-73230504D01*
X146169071Y-73182885D01*
X146264310Y-73135266D01*
X146502405Y-73135266D01*
X146597643Y-73182885D01*
X146645262Y-73230504D01*
X146692881Y-73325742D01*
X146692881Y-73563838D01*
X146645262Y-73659076D01*
X146597643Y-73706695D01*
X146692881Y-72230504D02*
X146692881Y-72706695D01*
X145692881Y-72706695D01*
X134067605Y-79552724D02*
X134715224Y-79552724D01*
X134791414Y-79514629D01*
X134829510Y-79476533D01*
X134867605Y-79400343D01*
X134867605Y-79247962D01*
X134829510Y-79171771D01*
X134791414Y-79133676D01*
X134715224Y-79095581D01*
X134067605Y-79095581D01*
X134143795Y-78752724D02*
X134105700Y-78714629D01*
X134067605Y-78638438D01*
X134067605Y-78447962D01*
X134105700Y-78371772D01*
X134143795Y-78333676D01*
X134219986Y-78295581D01*
X134296176Y-78295581D01*
X134410462Y-78333676D01*
X134867605Y-78790819D01*
X134867605Y-78295581D01*
X144688571Y-40271905D02*
X144736190Y-40129048D01*
X144783810Y-40081429D01*
X144879048Y-40033810D01*
X145021905Y-40033810D01*
X145117143Y-40081429D01*
X145164762Y-40129048D01*
X145212381Y-40224286D01*
X145212381Y-40605239D01*
X144212381Y-40605239D01*
X144212381Y-40271905D01*
X144260000Y-40176667D01*
X144307619Y-40129048D01*
X144402857Y-40081429D01*
X144498095Y-40081429D01*
X144593333Y-40129048D01*
X144640952Y-40176667D01*
X144688571Y-40271905D01*
X144688571Y-40605239D01*
X144545714Y-39176667D02*
X145212381Y-39176667D01*
X144545714Y-39605239D02*
X145069524Y-39605239D01*
X145164762Y-39557620D01*
X145212381Y-39462382D01*
X145212381Y-39319524D01*
X145164762Y-39224286D01*
X145117143Y-39176667D01*
X144545714Y-38843334D02*
X144545714Y-38462382D01*
X144212381Y-38700477D02*
X145069524Y-38700477D01*
X145164762Y-38652858D01*
X145212381Y-38557620D01*
X145212381Y-38462382D01*
X144545714Y-38271905D02*
X144545714Y-37890953D01*
X144212381Y-38129048D02*
X145069524Y-38129048D01*
X145164762Y-38081429D01*
X145212381Y-37986191D01*
X145212381Y-37890953D01*
X145212381Y-37414762D02*
X145164762Y-37510000D01*
X145117143Y-37557619D01*
X145021905Y-37605238D01*
X144736190Y-37605238D01*
X144640952Y-37557619D01*
X144593333Y-37510000D01*
X144545714Y-37414762D01*
X144545714Y-37271904D01*
X144593333Y-37176666D01*
X144640952Y-37129047D01*
X144736190Y-37081428D01*
X145021905Y-37081428D01*
X145117143Y-37129047D01*
X145164762Y-37176666D01*
X145212381Y-37271904D01*
X145212381Y-37414762D01*
X144545714Y-36652857D02*
X145212381Y-36652857D01*
X144640952Y-36652857D02*
X144593333Y-36605238D01*
X144545714Y-36510000D01*
X144545714Y-36367142D01*
X144593333Y-36271904D01*
X144688571Y-36224285D01*
X145212381Y-36224285D01*
X145164762Y-35795714D02*
X145212381Y-35700476D01*
X145212381Y-35510000D01*
X145164762Y-35414761D01*
X145069524Y-35367142D01*
X145021905Y-35367142D01*
X144926667Y-35414761D01*
X144879048Y-35510000D01*
X144879048Y-35652857D01*
X144831429Y-35748095D01*
X144736190Y-35795714D01*
X144688571Y-35795714D01*
X144593333Y-35748095D01*
X144545714Y-35652857D01*
X144545714Y-35510000D01*
X144593333Y-35414761D01*
X139556667Y-37462381D02*
X139556667Y-38176667D01*
X139509047Y-38319524D01*
X139413809Y-38414762D01*
X139270952Y-38462381D01*
X139175714Y-38462381D01*
X139937619Y-37462381D02*
X140556667Y-37462381D01*
X140223333Y-37843333D01*
X140366191Y-37843333D01*
X140461429Y-37890952D01*
X140509048Y-37938571D01*
X140556667Y-38033810D01*
X140556667Y-38271905D01*
X140509048Y-38367143D01*
X140461429Y-38414762D01*
X140366191Y-38462381D01*
X140080476Y-38462381D01*
X139985238Y-38414762D01*
X139937619Y-38367143D01*
X100033809Y-74782261D02*
X100033809Y-73782261D01*
X100367143Y-74496547D01*
X100700476Y-73782261D01*
X100700476Y-74782261D01*
X101319523Y-74782261D02*
X101224285Y-74734642D01*
X101176666Y-74687023D01*
X101129047Y-74591785D01*
X101129047Y-74306070D01*
X101176666Y-74210832D01*
X101224285Y-74163213D01*
X101319523Y-74115594D01*
X101462381Y-74115594D01*
X101557619Y-74163213D01*
X101605238Y-74210832D01*
X101652857Y-74306070D01*
X101652857Y-74591785D01*
X101605238Y-74687023D01*
X101557619Y-74734642D01*
X101462381Y-74782261D01*
X101319523Y-74782261D01*
X102510000Y-74115594D02*
X102510000Y-74782261D01*
X102081428Y-74115594D02*
X102081428Y-74639404D01*
X102129047Y-74734642D01*
X102224285Y-74782261D01*
X102367143Y-74782261D01*
X102462381Y-74734642D01*
X102510000Y-74687023D01*
X102986190Y-74115594D02*
X102986190Y-74782261D01*
X102986190Y-74210832D02*
X103033809Y-74163213D01*
X103129047Y-74115594D01*
X103271905Y-74115594D01*
X103367143Y-74163213D01*
X103414762Y-74258451D01*
X103414762Y-74782261D01*
X103748095Y-74115594D02*
X104129047Y-74115594D01*
X103890952Y-73782261D02*
X103890952Y-74639404D01*
X103938571Y-74734642D01*
X104033809Y-74782261D01*
X104129047Y-74782261D01*
X104462381Y-74782261D02*
X104462381Y-74115594D01*
X104462381Y-73782261D02*
X104414762Y-73829880D01*
X104462381Y-73877499D01*
X104510000Y-73829880D01*
X104462381Y-73782261D01*
X104462381Y-73877499D01*
X104938571Y-74115594D02*
X104938571Y-74782261D01*
X104938571Y-74210832D02*
X104986190Y-74163213D01*
X105081428Y-74115594D01*
X105224286Y-74115594D01*
X105319524Y-74163213D01*
X105367143Y-74258451D01*
X105367143Y-74782261D01*
X106271905Y-74115594D02*
X106271905Y-74925118D01*
X106224286Y-75020356D01*
X106176667Y-75067975D01*
X106081428Y-75115594D01*
X105938571Y-75115594D01*
X105843333Y-75067975D01*
X106271905Y-74734642D02*
X106176667Y-74782261D01*
X105986190Y-74782261D01*
X105890952Y-74734642D01*
X105843333Y-74687023D01*
X105795714Y-74591785D01*
X105795714Y-74306070D01*
X105843333Y-74210832D01*
X105890952Y-74163213D01*
X105986190Y-74115594D01*
X106176667Y-74115594D01*
X106271905Y-74163213D01*
X106748095Y-74782261D02*
X106748095Y-73782261D01*
X106748095Y-74258451D02*
X107319524Y-74258451D01*
X107319524Y-74782261D02*
X107319524Y-73782261D01*
X107938571Y-74782261D02*
X107843333Y-74734642D01*
X107795714Y-74687023D01*
X107748095Y-74591785D01*
X107748095Y-74306070D01*
X107795714Y-74210832D01*
X107843333Y-74163213D01*
X107938571Y-74115594D01*
X108081429Y-74115594D01*
X108176667Y-74163213D01*
X108224286Y-74210832D01*
X108271905Y-74306070D01*
X108271905Y-74591785D01*
X108224286Y-74687023D01*
X108176667Y-74734642D01*
X108081429Y-74782261D01*
X107938571Y-74782261D01*
X108843333Y-74782261D02*
X108748095Y-74734642D01*
X108700476Y-74639404D01*
X108700476Y-73782261D01*
X109605239Y-74734642D02*
X109510001Y-74782261D01*
X109319524Y-74782261D01*
X109224286Y-74734642D01*
X109176667Y-74639404D01*
X109176667Y-74258451D01*
X109224286Y-74163213D01*
X109319524Y-74115594D01*
X109510001Y-74115594D01*
X109605239Y-74163213D01*
X109652858Y-74258451D01*
X109652858Y-74353690D01*
X109176667Y-74448928D01*
X109843334Y-74877499D02*
X110605239Y-74877499D01*
X110748096Y-73782261D02*
X111367144Y-73782261D01*
X111033810Y-74163213D01*
X111176668Y-74163213D01*
X111271906Y-74210832D01*
X111319525Y-74258451D01*
X111367144Y-74353690D01*
X111367144Y-74591785D01*
X111319525Y-74687023D01*
X111271906Y-74734642D01*
X111176668Y-74782261D01*
X110890953Y-74782261D01*
X110795715Y-74734642D01*
X110748096Y-74687023D01*
X111795715Y-74782261D02*
X111795715Y-74115594D01*
X111795715Y-74210832D02*
X111843334Y-74163213D01*
X111938572Y-74115594D01*
X112081430Y-74115594D01*
X112176668Y-74163213D01*
X112224287Y-74258451D01*
X112224287Y-74782261D01*
X112224287Y-74258451D02*
X112271906Y-74163213D01*
X112367144Y-74115594D01*
X112510001Y-74115594D01*
X112605239Y-74163213D01*
X112652858Y-74258451D01*
X112652858Y-74782261D01*
X113129048Y-74782261D02*
X113129048Y-74115594D01*
X113129048Y-74210832D02*
X113176667Y-74163213D01*
X113271905Y-74115594D01*
X113414763Y-74115594D01*
X113510001Y-74163213D01*
X113557620Y-74258451D01*
X113557620Y-74782261D01*
X113557620Y-74258451D02*
X113605239Y-74163213D01*
X113700477Y-74115594D01*
X113843334Y-74115594D01*
X113938572Y-74163213D01*
X113986191Y-74258451D01*
X113986191Y-74782261D01*
X105976667Y-70782261D02*
X105643333Y-70306070D01*
X105405238Y-70782261D02*
X105405238Y-69782261D01*
X105786191Y-69782261D01*
X105881429Y-69829880D01*
X105929048Y-69877499D01*
X105976667Y-69972737D01*
X105976667Y-70115594D01*
X105929048Y-70210832D01*
X105881429Y-70258451D01*
X105786191Y-70306070D01*
X105405238Y-70306070D01*
X106405238Y-70258451D02*
X106738572Y-70258451D01*
X106881429Y-70782261D02*
X106405238Y-70782261D01*
X106405238Y-69782261D01*
X106881429Y-69782261D01*
X107643334Y-70258451D02*
X107310000Y-70258451D01*
X107310000Y-70782261D02*
X107310000Y-69782261D01*
X107786191Y-69782261D01*
X108310000Y-69782261D02*
X108310000Y-70020356D01*
X108071905Y-69925118D02*
X108310000Y-70020356D01*
X108548096Y-69925118D01*
X108167143Y-70210832D02*
X108310000Y-70020356D01*
X108452858Y-70210832D01*
X109071905Y-69782261D02*
X109071905Y-70020356D01*
X108833810Y-69925118D02*
X109071905Y-70020356D01*
X109310001Y-69925118D01*
X108929048Y-70210832D02*
X109071905Y-70020356D01*
X109214763Y-70210832D01*
M02*
