G04 #@! TF.FileFunction,Profile,NP*
%FSLAX46Y46*%
G04 Gerber Fmt 4.6, Leading zero omitted, Abs format (unit mm)*
G04 Created by KiCad (PCBNEW 4.0.7) date 07/31/18 16:17:15*
%MOMM*%
%LPD*%
G01*
G04 APERTURE LIST*
%ADD10C,0.100000*%
%ADD11C,0.150000*%
G04 APERTURE END LIST*
D10*
D11*
X152476200Y-34714800D02*
X152476200Y-40180000D01*
X170540000Y-40180000D02*
X152476200Y-40180000D01*
X61607700Y-40180000D02*
X61607700Y-34714800D01*
X61607700Y-40180000D02*
X44000000Y-40180000D01*
X151476200Y-109529880D02*
G75*
G03X152476200Y-108529880I0J1000000D01*
G01*
X61607700Y-108529880D02*
G75*
G03X62607700Y-109529880I1000000J0D01*
G01*
X61607700Y-108529880D02*
X61607700Y-99885500D01*
X74874120Y-109529880D02*
X62607700Y-109529880D01*
X74874120Y-100218240D02*
X74874120Y-109529880D01*
X75834240Y-100218240D02*
X74874120Y-100218240D01*
X75834240Y-109529880D02*
X75834240Y-100218240D01*
X142067280Y-109529880D02*
X75834240Y-109529880D01*
X142067280Y-100218240D02*
X142067280Y-109529880D01*
X143057880Y-100218240D02*
X142067280Y-100218240D01*
X143057880Y-109529880D02*
X143057880Y-100218240D01*
X151476200Y-109529880D02*
X143057880Y-109529880D01*
X152476200Y-99885500D02*
X152476200Y-108529880D01*
X152476200Y-99885500D02*
X170540000Y-99885500D01*
X61607700Y-99885500D02*
X44000000Y-99885500D01*
X44000000Y-40180000D02*
X44000000Y-99885500D01*
X152476200Y-34714800D02*
X61607700Y-34714800D01*
X170540000Y-99885500D02*
X170540000Y-40180000D01*
M02*
